<svg width="158" height="50" viewBox="0 0 158 50" fill="none" xmlns="http://www.w3.org/2000/svg">
<g clip-path="url(#clip0_1_658)">
<path fill-rule="evenodd" clip-rule="evenodd" d="M31.7953 3.63664C31.8935 3.53563 31.9425 3.48512 32.0407 3.38411C32.1388 3.33361 32.1879 3.2326 32.286 3.18209C32.5804 2.87906 32.8257 2.52553 32.973 2.17199C33.1202 1.76795 33.0711 1.36391 32.7276 0.909366C32.4823 0.505326 32.1879 0.202296 31.7953 0.101286C31.4028 0.000276303 30.9121 0.050781 30.4214 0.252801C30.2251 0.353811 30.0779 0.454822 29.9307 0.606337C29.7835 0.757852 29.6363 0.909367 29.4891 1.06088C28.6549 1.76795 27.8698 2.42452 27.0848 3.13159C26.2997 3.83866 25.5146 4.59623 24.7785 5.45482C21.3438 9.49522 18.2525 13.7882 15.5046 18.2326C12.7077 22.7275 10.3034 27.475 8.34065 32.576C8.19345 32.8791 8.04624 33.1821 7.94811 33.4851C7.8009 33.7882 7.6537 34.1417 7.45742 34.5457C7.31022 34.0407 7.16302 33.6366 7.06488 33.3336C6.96674 33.0306 6.8686 32.7275 6.77047 32.475C6.03444 29.3437 5.54376 26.1619 5.24935 23.0306C4.95494 19.8993 4.90587 16.7174 5.05308 13.4851C5.10214 11.869 5.20028 10.3538 5.34749 8.83866C5.49469 7.32351 5.59283 5.80836 5.69096 4.2427C5.7891 2.92957 5.39655 2.12149 4.41519 1.91947C3.97357 1.81846 3.53196 1.86896 3.09034 2.07098C2.64873 2.273 2.35432 2.67704 2.10898 3.2831C1.71643 4.29321 1.42202 5.30331 1.27481 6.36391C0.8332 8.99017 0.538791 11.6164 0.342517 14.2427C0.146244 16.869 0.146244 19.4952 0.342517 22.172C0.538791 25.0508 0.882268 27.8791 1.37295 30.7073C1.9127 33.4851 2.64873 36.2629 3.58103 38.9902C3.7773 39.3942 3.92451 39.8488 4.12078 40.2528C4.26798 40.6568 4.46426 41.1114 4.7096 41.5154C5.00401 42.071 5.39655 42.475 5.88724 42.7781C6.37792 43.0811 6.91767 43.1821 7.55556 43.1316C8.24252 43.0306 8.7332 42.8286 9.12575 42.4245C9.51829 42.0205 9.8127 41.5154 10.009 40.9094C10.1562 40.5053 10.2543 40.1518 10.3525 39.7983C10.4506 39.4447 10.5487 39.0407 10.5978 38.6366C11.0885 36.5659 11.6282 34.4952 12.2661 32.475C12.904 30.4548 13.7382 28.4851 14.7686 26.6164C17.1239 22.273 19.6264 18.1821 22.3251 14.2932C24.9748 10.3538 28.1643 6.81846 31.7953 3.63664Z" fill="#FF3D54"/>
<path fill-rule="evenodd" clip-rule="evenodd" d="M100.487 15.5559C100.34 14.9498 99.9965 14.6973 99.3586 14.7478C99.1132 14.7983 98.8679 14.8488 98.6225 14.8993C98.3772 14.9498 98.1319 15.0508 97.8865 15.1013C97.0524 15.3033 98.6716 14.9498 97.7393 15.1518C97.543 15.2023 97.4449 15.2023 97.4449 15.2528C97.9847 15.1518 97.2977 15.3033 97.4449 15.2528C97.3958 15.2528 97.3958 15.2528 97.3468 15.2528C97.3958 14.8488 97.4449 14.5458 97.494 14.2427C97.543 13.9397 97.543 13.6872 97.5921 13.3842C97.6412 12.7781 97.6902 12.273 97.6412 11.869C97.5921 11.465 97.3958 11.1619 96.9542 10.9599C96.4635 10.8084 96.071 10.8084 95.6784 11.0609C95.2859 11.3134 94.9915 11.667 94.7461 12.071C94.5008 12.5256 94.2555 12.9801 94.1082 13.5357C93.961 14.0407 93.8138 14.4953 93.7157 14.8488C93.5685 15.5054 93.3722 16.0104 93.0288 16.3134C92.7343 16.6165 92.2927 16.869 91.7039 17.071C91.1151 17.2225 90.5753 17.4246 89.9865 17.6771C89.4468 17.8791 88.907 18.1316 88.3673 18.4347C86.9933 18.9902 86.4536 19.5458 86.7971 20.1013C86.9933 20.7579 87.7294 20.8084 89.0051 20.2528C89.3977 20.1013 89.8393 19.8993 90.2319 19.7983C90.6244 19.6468 91.0169 19.4953 91.4095 19.3943C91.6058 19.3437 91.802 19.2932 91.9983 19.2427C92.1946 19.2427 92.4399 19.1922 92.6853 19.0912C92.6362 19.6973 92.5381 20.2528 92.489 20.8084C92.4399 21.3639 92.3418 21.869 92.2927 22.374C92.1455 23.9397 91.9983 25.4549 91.9002 26.97L91.8511 27.0205C91.3604 27.5256 91.0169 27.9801 90.7716 28.2831C90.5263 28.5862 90.2809 28.8892 90.0356 29.1417C89.7902 29.3942 89.594 29.6973 89.2996 30.0003C89.0542 30.3033 88.6617 30.7579 88.22 31.3134C87.6312 31.9195 87.2387 32.2225 86.9443 32.2225C86.6989 32.2225 86.5027 32.071 86.4536 31.768C86.3554 31.465 86.3555 31.0104 86.4045 30.4549C86.4536 29.8993 86.5517 29.3942 86.6008 28.8387C86.6499 28.2326 86.748 27.6771 86.8952 27.1215C86.9933 26.566 87.0915 26.0104 87.1896 25.4549C87.2877 24.7983 87.2387 24.3437 87.0915 24.0407C86.9443 23.7377 86.6008 23.4347 86.061 23.1316C85.1778 22.5761 84.2946 22.3235 83.4604 22.374C82.6263 22.4246 81.743 22.7781 80.9089 23.3841C79.7803 24.1922 78.8971 25.1013 78.2592 26.2124C78.2101 26.2629 78.161 26.3134 78.112 26.3639C78.0138 26.5155 77.9157 26.6165 77.8176 26.768C77.7194 26.869 77.5722 27.0205 77.4741 27.2225C76.9834 27.9296 76.4927 28.5862 76.0511 29.2427C75.5604 29.8993 75.0697 30.5559 74.53 31.2124C74.1374 31.8185 73.843 32.1215 73.6468 32.172C73.4505 32.2225 73.3033 32.1215 73.2051 31.869C73.107 31.6165 73.0089 31.2124 72.9598 30.7579C72.9107 30.3033 72.8617 29.7983 72.8126 29.2932C72.7635 28.6367 72.7145 28.0306 72.6654 27.4246C72.6163 26.8185 72.5673 26.2124 72.4201 25.6064C72.1747 24.5458 71.7331 23.8892 70.9971 23.6367C70.3101 23.3841 69.5741 23.6367 68.7399 24.3437C67.9548 25.0508 67.2188 25.8084 66.5809 26.6165C65.943 27.4246 65.2561 28.2831 64.5691 29.1417C64.5691 28.0306 64.6182 26.667 64.6673 25.0003C64.7163 23.3336 64.8635 21.6165 65.0598 19.8488C65.2561 18.0811 65.4523 16.3134 65.7468 14.6468C65.9921 12.9801 66.2865 11.566 66.63 10.4044C66.7772 9.79829 66.7772 9.34375 66.5809 8.99021C66.3846 8.63668 66.0902 8.43466 65.6977 8.33365C65.3051 8.28314 64.9126 8.33365 64.471 8.53567C64.0294 8.73769 63.735 9.09122 63.5387 9.59627C63.0971 10.6064 62.7045 12.1215 62.312 14.0912C61.9685 16.0609 61.6741 18.1821 61.4287 20.4549C61.2325 22.4751 61.0853 24.5458 61.0362 26.6165C60.5946 27.071 60.0548 27.6266 59.3679 28.2326C58.5337 28.9397 57.6996 29.5963 56.7673 30.1518C55.884 30.7074 55.0008 31.2124 54.1666 31.566C53.3325 31.9195 52.6946 32.0205 52.253 31.8185C51.8114 31.667 51.6151 31.1619 51.6642 30.3538C51.7623 29.5458 52.253 28.2831 53.1853 26.5155C53.3325 26.3639 53.4797 26.2124 53.6269 26.0104C53.7741 25.8084 53.9213 25.6569 54.0685 25.5559C54.2157 25.4549 54.3629 25.4549 54.5101 25.5054C54.6573 25.5559 54.7555 25.8084 54.8536 26.1619C54.9517 26.465 55.148 26.768 55.3443 26.97C55.5896 27.172 55.884 27.2225 56.2766 27.1215C56.6691 26.97 56.9635 26.7175 57.0617 26.4145C57.1598 26.1114 57.2089 25.8084 57.2089 25.4044C57.2089 24.3943 56.8654 23.5862 56.1784 23.0811C55.4915 22.5761 54.6573 22.4246 53.725 22.7276C52.989 22.9801 52.302 23.3336 51.7132 23.8387C51.1244 24.3437 50.6337 24.9498 50.1921 25.6569C49.8977 26.1619 49.6523 26.667 49.407 27.2225C48.4256 28.0811 47.4933 28.8892 46.561 29.5458C45.6287 30.2528 44.5002 30.8084 43.1263 31.3134C42.6846 31.465 42.243 31.6165 41.7523 31.7175C41.3107 31.8185 40.8691 31.8185 40.5256 31.768C40.1822 31.7175 39.8878 31.5155 39.6915 31.1619C39.4952 30.8589 39.4461 30.3538 39.5443 29.6468C40.2803 29.9498 41.0654 29.8488 41.9977 29.4448C42.8809 29.0407 43.7151 28.4347 44.402 27.6771C45.089 26.9195 45.5797 26.1114 45.8741 25.2023C46.1685 24.2932 45.9722 23.5862 45.4325 22.9801C44.9418 22.4751 44.402 22.172 43.7151 22.2225C43.0281 22.2225 42.3902 22.4246 41.7033 22.7276C41.0163 23.0811 40.3784 23.4852 39.7896 23.9902C39.1517 24.4953 38.7101 24.9498 38.3666 25.4044C38.0232 25.8084 37.7287 26.2629 37.4834 26.7175C37.3362 26.7175 37.2381 26.667 37.0909 26.667C36.6983 26.667 36.3058 26.667 35.9132 26.7175C35.5207 26.7175 35.2263 26.768 34.9318 26.768L34.5393 26.8185C34.4412 25.9599 34.0977 25.2528 33.5089 24.7478C32.9201 24.2427 32.2331 23.9397 31.3989 23.8387C30.5648 23.7377 29.6815 23.8387 28.7002 24.0912C27.7188 24.3942 26.7374 24.8993 25.7561 25.6064L26.8846 22.374C26.9828 22.071 27.0319 21.768 27.0319 21.465C27.0319 21.1619 26.8846 20.9094 26.6393 20.6569C26.394 20.4549 26.0996 20.3538 25.7561 20.3538C25.4126 20.3538 25.1182 20.5054 24.8238 20.7579C24.6275 20.9599 24.4312 21.2124 24.235 21.4145C24.0387 21.667 23.8915 21.9195 23.7443 22.172C23.4499 22.7781 23.2045 23.3841 22.9101 23.9902C22.5666 24.6468 22.3213 25.2528 22.076 25.8589C21.4381 27.7781 20.8983 29.6468 20.5548 31.566C20.2114 33.4852 19.8679 35.4549 19.6225 37.4245C19.4263 39.0912 19.3281 40.7074 19.3281 42.3235C19.3281 42.8286 19.4263 43.3841 19.5735 43.8892C19.7207 44.3942 20.0151 44.8488 20.3586 45.3033C20.8492 45.9094 21.4381 46.0609 22.125 45.7074C22.861 45.4043 23.1555 44.8993 23.0082 44.1922C22.7138 43.2831 22.6157 42.374 22.7138 41.465C22.812 40.5559 22.9592 39.6468 23.0573 38.7377C23.1064 37.7276 23.2536 36.7175 23.4499 35.7074C23.6461 34.6973 23.9405 33.7882 24.284 32.9296C25.3145 33.2831 26.394 33.4347 27.5225 33.4347C28.6511 33.4347 29.7306 33.2326 30.712 32.8791C31.6933 32.5256 32.5275 31.97 33.2635 31.2629C33.9505 30.5559 34.3921 29.6973 34.5393 28.6367C35.3244 28.4347 36.0604 28.3336 36.7474 28.2831C36.6983 28.3841 36.6983 28.4347 36.6492 28.5357C36.2076 30.1013 36.3548 31.465 37.0909 32.5256C37.8269 33.6367 39.0045 34.2427 40.6238 34.4448C41.4579 34.4953 42.3412 34.2932 43.3716 33.9397C44.402 33.5862 45.3834 33.0811 46.3648 32.4751C47.1499 32.0205 47.8368 31.465 48.5238 30.9599C48.5238 31.869 48.7201 32.6266 49.1126 33.2326C49.6524 33.9902 50.3884 34.3942 51.2716 34.4953C52.2039 34.5458 53.1853 34.3942 54.2648 33.9902C55.3443 33.5862 56.3747 33.0306 57.4051 32.3235C58.4356 31.6165 59.4169 30.9094 60.3002 30.1013C60.4964 29.8993 60.7418 29.7478 60.9381 29.5458C60.9381 30.9094 60.9871 32.172 61.1343 33.2326C61.1834 34.0912 61.576 34.7478 62.312 35.2023C62.9499 35.6064 63.4896 35.6569 63.9803 35.4043C64.471 35.1518 64.8145 34.6468 64.9126 33.8892C64.9617 33.6872 64.9617 33.4347 65.0107 33.1821C65.0107 32.9296 65.1089 32.7276 65.207 32.5256C65.5014 32.1215 65.8449 31.6165 66.1393 31.0609C66.4828 30.5054 66.8263 29.9498 67.1697 29.3942C67.5623 28.8387 67.9548 28.3336 68.3964 27.8791C68.8381 27.4246 69.2797 27.071 69.7704 26.768C69.8685 27.8286 69.9666 28.8892 70.0648 29.8993C70.1629 30.9599 70.4082 32.0205 70.8008 33.1316C71.2424 34.1922 71.8312 34.7983 72.6163 34.9498C73.3523 35.1013 74.1374 34.7478 74.9225 33.9397C75.4623 33.4347 75.953 32.8286 76.3946 32.2225C76.4437 32.172 76.4927 32.071 76.5418 32.0205C76.5909 32.2225 76.5909 32.374 76.689 32.5761C76.8853 33.2831 77.2778 33.7377 77.7685 33.9902C78.3082 34.2427 78.848 34.1417 79.4859 33.7377C79.8294 33.5862 80.1728 33.3336 80.4673 32.9801C80.8107 32.6771 81.1051 32.374 81.3995 32.071C81.694 31.7175 82.0374 31.3639 82.3318 31.0104C82.6263 30.6569 82.9697 30.2528 83.3132 29.7478C83.2641 30.6569 83.3623 31.5155 83.5095 32.3235C83.6567 33.1316 83.9511 33.7882 84.3437 34.2932C84.7362 34.7983 85.2269 35.0508 85.8648 35.1013C86.5027 35.1518 87.2387 34.8488 88.171 34.2427C88.5635 33.9397 88.907 33.6367 89.2014 33.3336C89.5449 33.0306 89.8393 32.6771 90.1337 32.273C90.5753 31.768 90.9188 31.3134 91.1641 31.0104C91.3114 30.8084 91.4586 30.6569 91.5567 30.5054C91.5567 31.2124 91.6058 31.768 91.753 33.0306C91.8511 34.2932 92.1455 35.5054 92.6362 36.7175C93.1759 38.0811 94.1573 38.6872 95.5312 38.5862C96.2672 38.5357 96.7579 38.2831 96.9051 37.7276C97.0524 37.172 96.9051 36.6165 96.4635 36.0609C96.1691 35.6569 96.0219 35.2528 95.9238 34.8488C95.8256 34.4448 95.7766 34.0407 95.6784 33.5862C95.4822 30.8084 95.5312 29.8993 95.6784 27.071C95.8747 24.2932 96.2182 21.465 96.6598 18.6872C96.807 17.5761 97.1995 17.5256 97.7393 17.374C98.0828 17.273 98.4263 17.2225 98.7697 17.1215C99.1132 17.0205 99.5058 16.97 99.8492 16.8185C100.438 16.5155 100.634 16.0609 100.487 15.5559ZM43.6169 24.6468C43.2735 25.5559 42.8319 26.2124 42.3412 26.6165C41.8505 27.0205 41.3107 27.273 40.6728 27.4751C41.1145 26.2629 42.0958 25.3538 43.6169 24.6468ZM31.1536 30.3538C30.712 30.6569 30.2213 30.8589 29.6325 31.0609C28.7492 31.2629 28.0132 31.4145 27.4244 31.465C26.8356 31.5155 26.443 31.5155 26.2468 31.4144C26.0505 31.3639 26.0996 31.2124 26.394 31.0104C26.6884 30.8084 27.2281 30.5559 28.1114 30.2528C29.1909 29.8488 30.4666 29.4953 31.8896 29.0912C31.8405 29.6468 31.5952 30.1013 31.1536 30.3538ZM28.8474 27.8286C27.7679 28.1316 26.6884 28.5862 25.6089 29.1922C25.9033 28.7882 26.394 28.2831 26.9828 27.7276C27.5716 27.172 28.2095 26.7175 28.8474 26.4145C29.4853 26.0609 30.1232 25.9094 30.712 25.9599C31.3008 26.0104 31.7424 26.3639 31.9878 27.1215C30.9573 27.3235 29.9269 27.5761 28.8474 27.8286ZM83.2641 26.2124C82.8225 26.8185 82.3809 27.4751 81.8412 28.1316C81.3014 28.7882 80.7617 29.3942 80.2219 30.0003C79.6822 30.6064 79.2405 31.0104 78.8971 31.2629C78.9952 30.3033 79.2405 29.4448 79.584 28.5862C79.9275 27.7781 80.32 27.071 80.8107 26.465C81.2523 25.9094 81.7921 25.4549 82.3809 25.1518C82.9697 24.8488 83.5586 24.7478 84.1474 24.7983C83.9511 25.1518 83.6567 25.6064 83.2641 26.2124Z" fill="#FF3D54"/>
<path fill-rule="evenodd" clip-rule="evenodd" d="M138.024 22.5758C138.171 22.7778 138.368 22.9293 138.564 23.0303C138.76 23.1313 138.956 23.1818 139.202 23.1818C139.349 23.1313 139.545 23.0303 139.742 22.8788C139.938 22.7273 140.085 22.5253 140.134 22.3737C140.183 22.2222 140.134 22.0707 140.036 21.8687C139.938 21.6667 139.84 21.4647 139.692 21.2626C139.545 21.0606 139.349 20.9091 139.202 20.7576C139.006 20.6061 138.858 20.5051 138.662 20.5051C138.368 20.4546 138.122 20.5556 137.877 20.7576C137.681 20.9596 137.533 21.2121 137.484 21.4647C137.484 21.6162 137.533 21.8182 137.632 22.0707C137.73 22.1717 137.828 22.3737 138.024 22.5758Z" fill="#FF3D54"/>
<path fill-rule="evenodd" clip-rule="evenodd" d="M157.605 26.6161C157.458 26.4646 157.213 26.3636 156.918 26.4141C156.624 26.4646 156.231 26.6666 155.79 27.1212C154.759 28.0303 153.778 28.8383 152.846 29.5454C151.913 30.2525 150.785 30.808 149.411 31.3131C148.969 31.4646 148.528 31.6161 148.037 31.7171C147.595 31.8181 147.154 31.8181 146.81 31.7676C146.467 31.7171 146.172 31.5151 145.976 31.1616C145.78 30.8585 145.731 30.3535 145.829 29.6464C146.565 29.9495 147.35 29.8485 148.282 29.4444C149.165 29.0404 150 28.4343 150.687 27.6767C151.373 26.9192 151.864 26.1111 152.159 25.202C152.453 24.3434 152.257 23.5858 151.717 22.9798C151.226 22.4747 150.687 22.1717 150 22.2222C149.313 22.2222 148.675 22.4242 147.988 22.7272C147.301 23.0808 146.663 23.4848 146.074 23.9899C145.436 24.4949 144.995 24.9495 144.651 25.404C144.062 26.0606 143.621 26.8181 143.277 27.6767C143.032 27.9798 142.737 28.2828 142.443 28.6868C141.854 29.3939 141.314 30.0505 140.824 30.6565C140.333 31.3131 139.842 31.8181 139.401 32.2222C138.959 32.6262 138.665 32.7777 138.518 32.6262C138.567 32.1212 138.616 31.7171 138.616 31.3131C138.616 30.9596 138.665 30.606 138.714 30.3535C138.763 29.7979 138.861 29.1414 139.008 28.3333C139.106 27.5757 139.205 26.8687 139.254 26.3131C139.352 25.404 139.008 24.7979 138.223 24.4949C137.831 24.3434 137.487 24.3939 137.144 24.5454C136.8 24.6969 136.555 25.0505 136.359 25.505C136.064 26.2121 135.819 26.9697 135.573 27.7777C135.328 28.1313 135.034 28.5353 134.739 28.9394C134.347 29.5454 133.905 30.101 133.414 30.707C132.973 31.3131 132.531 31.8181 132.09 32.2222C131.795 32.5252 131.55 32.6767 131.354 32.6767C131.108 32.6262 130.961 32.3737 130.863 31.8181C130.765 31.3131 130.716 30.6565 130.716 29.9495C130.716 29.2424 130.667 28.4848 130.667 27.7777C130.667 27.0202 130.618 26.4141 130.569 25.9091C130.421 25 129.931 24.4444 129.244 24.2424C128.508 24.0404 127.821 24.1919 127.134 24.6969C126.692 25 126.251 25.505 125.76 26.2121C125.318 26.9697 124.877 27.6767 124.435 28.4343C123.993 29.1919 123.601 29.7979 123.257 30.3535C122.914 30.8585 122.619 31.0606 122.423 30.8585C122.276 30.606 122.178 30.202 122.129 29.6464C122.129 29.0909 122.129 28.4343 122.227 27.7272C122.276 26.9697 122.423 26.2121 122.619 25.3535C122.816 24.4949 123.012 23.6868 123.257 22.8788C123.405 22.3232 123.405 21.8687 123.159 21.4646C122.914 21.1111 122.669 20.8585 122.325 20.808C121.54 20.4545 120.902 20.808 120.46 21.9192C120.362 22.1212 120.264 22.3737 120.166 22.7272C119.773 23.9899 119.479 25.303 119.332 26.6161C119.332 26.7676 119.332 26.8687 119.283 27.0202C119.283 27.0202 119.234 27.0202 119.234 27.0707C118.203 27.9798 117.222 28.7878 116.29 29.4949C115.357 30.202 114.229 30.7575 112.855 31.2626C112.413 31.4141 111.972 31.5656 111.481 31.6666C111.039 31.7676 110.598 31.7676 110.254 31.7171C109.911 31.6666 109.616 31.4646 109.42 31.1111C109.224 30.808 109.175 30.303 109.273 29.5959C110.009 29.899 110.794 29.7979 111.726 29.3939C112.61 28.9899 113.444 28.3838 114.131 27.6262C114.818 26.8686 115.308 26.0606 115.603 25.1515C115.897 24.2929 115.701 23.5353 115.161 22.9293C114.67 22.4242 114.131 22.1212 113.444 22.1717C112.757 22.1717 112.119 22.3737 111.432 22.6767C110.745 23.0303 110.107 23.4343 109.518 23.9394C108.88 24.4444 108.439 24.899 108.095 25.3535C107.703 25.808 107.359 26.3131 107.065 26.8686C106.967 26.9697 106.918 27.0707 106.819 27.1212C106.721 27.2727 106.574 27.4242 106.476 27.6262C106.378 27.7777 106.133 28.1313 105.789 28.5353C105.446 28.9899 105.102 29.4444 104.808 29.9495C104.464 30.4545 104.219 30.7575 104.023 30.808C103.826 30.8586 103.679 30.707 103.63 30.4545C103.532 30.1515 103.483 29.7979 103.483 29.2929C103.483 28.7878 103.483 28.2828 103.532 27.7777C103.777 24.899 104.121 21.9697 104.562 19.0909C105.004 16.1616 105.544 13.2323 106.083 10.202C106.182 9.24239 105.838 8.68683 105.102 8.43431C104.71 8.3838 104.366 8.3838 104.072 8.58582C103.728 8.73734 103.483 9.04037 103.336 9.49491C102.943 10.3535 102.6 11.4646 102.256 12.9293C101.913 14.3939 101.569 15.9091 101.275 17.4747C100.98 19.0909 100.735 20.6565 100.49 22.2727C100.293 23.8889 100.146 25.2525 100.048 26.4141C99.999 26.9192 99.9499 27.6262 99.8518 28.5353C99.7536 29.4444 99.7046 30.404 99.7536 31.3131C99.8027 32.2727 99.999 33.1313 100.244 33.8889C100.539 34.6464 101.078 35.101 101.814 35.2525C102.305 35.3535 102.698 35.303 103.09 35.101C103.434 34.899 103.777 34.5959 104.072 34.2424C104.268 33.9899 104.562 33.5858 105.004 32.9798C105.396 32.4242 105.789 31.8181 106.231 31.2121C106.329 31.6666 106.525 32.1212 106.819 32.5252C107.555 33.6363 108.733 34.2424 110.352 34.4444C111.187 34.4949 112.07 34.2929 113.1 33.9394C114.131 33.5858 115.112 33.0808 116.093 32.4747C117.075 31.8687 117.958 31.2121 118.792 30.505C118.89 30.404 118.988 30.3535 119.087 30.2525C119.087 30.3535 119.087 30.4545 119.087 30.5555C119.136 31.0606 119.136 31.6161 119.185 32.1717C119.234 32.7272 119.381 33.2323 119.626 33.6363C120.019 34.2929 120.608 34.6464 121.344 34.6464C122.08 34.6464 122.718 34.4444 123.306 33.9394C123.797 33.4343 124.19 32.8282 124.533 32.2727C124.877 31.6666 125.22 31.0606 125.564 30.4545C125.907 29.8485 126.251 29.2424 126.643 28.6868C127.036 28.0808 127.477 27.5757 128.066 27.0202C128.115 27.4747 128.115 27.8788 128.115 28.2323C128.115 28.5858 128.115 28.8889 128.164 29.1919C128.213 29.7979 128.311 30.404 128.36 31.0606C128.41 31.7171 128.508 32.3232 128.704 32.8788C128.998 33.7373 129.391 34.3434 130.029 34.5454C130.618 34.7979 131.255 34.7979 131.893 34.5454C132.335 34.3939 132.875 33.9899 133.513 33.3838C134.052 32.8788 134.592 32.3232 135.083 31.7171C135.083 31.9697 135.132 32.2222 135.181 32.4747C135.328 33.5858 135.819 34.3434 136.653 34.7474C137.438 35.1515 138.37 35.0505 139.352 34.5454C139.892 34.2424 140.382 33.9394 140.726 33.5353C141.413 32.7777 142.051 32.0202 142.688 31.2626C142.737 31.2121 142.737 31.1616 142.787 31.1616C142.885 31.6161 143.081 32.0707 143.326 32.4242C144.062 33.5353 145.24 34.1414 146.859 34.3434C147.693 34.3939 148.577 34.1919 149.607 33.8383C150.637 33.4848 151.619 32.9798 152.6 32.3737C153.582 31.7676 154.465 31.1111 155.299 30.404C156.133 29.6969 156.82 29.0404 157.262 28.3838C157.556 28.0303 157.703 27.6767 157.703 27.3232C157.801 27.0707 157.752 26.8181 157.605 26.6161ZM149.951 24.6464C149.607 25.5555 149.214 26.2121 148.675 26.6161C148.184 27.0202 147.644 27.2727 147.006 27.4747C147.448 26.2626 148.429 25.3535 149.951 24.6464ZM113.444 24.6464C113.1 25.5555 112.659 26.2121 112.168 26.6161C111.677 27.0202 111.137 27.2727 110.5 27.4747C110.99 26.2626 111.923 25.3535 113.444 24.6464Z" fill="#FF3D54"/>
<path d="M30.0781 46.869H30.5688C31.0104 45.9599 31.3539 45.1014 31.5992 44.1923C31.8446 43.2832 32.0409 42.3236 32.139 41.3135H35.9663V46.869H36.8496V50.0003H35.5247V48.0306H31.403V50.0003H30.0781V46.869ZM33.2676 42.5256C33.1694 43.2327 33.0222 43.9902 32.7769 44.7478C32.5315 45.5559 32.2862 46.263 32.0409 46.869H34.5924V42.5256H33.2676Z" fill="white"/>
<path d="M43.0821 48.0304L42.5915 46.4142H40.2362L39.7455 48.0304H38.2734L40.5796 41.2627H42.297L44.6032 48.0304H43.0821ZM42.297 45.2526C41.8554 43.7879 41.6101 42.9799 41.561 42.7778C41.5119 42.5758 41.4629 42.4243 41.4629 42.3233C41.3647 42.7273 41.0703 43.6869 40.6287 45.2526H42.297Z" fill="white"/>
<path d="M51.1761 43.4347C51.1761 44.1418 50.9799 44.6973 50.5383 45.1014C50.0966 45.5054 49.4588 45.6569 48.6737 45.6569H48.0848V48.0306H46.7109V41.3135H48.8209C49.606 41.3135 50.1948 41.465 50.6364 41.8185C50.9308 42.1721 51.1761 42.7276 51.1761 43.4347ZM48.0358 44.4953H48.4774C48.919 44.4953 49.2134 44.3943 49.4097 44.2428C49.606 44.0913 49.7041 43.8387 49.7041 43.4852C49.7041 43.1317 49.606 42.9296 49.4588 42.7276C49.2625 42.5761 49.0171 42.4751 48.6246 42.4751H47.9867V44.4953H48.0358Z" fill="white"/>
<path d="M53.6328 41.3135H54.8595V44.5458V45.4044L54.8104 46.4145H54.8595L57.8527 41.3135H59.521V48.0306H58.2943V44.7983C58.2943 44.3438 58.3434 43.7377 58.3924 42.8791H58.3434L55.3011 48.0306H53.6328V41.3135Z" fill="white"/>
<path d="M71.3953 48.0306H70.0214V45.1519H67.4208V48.0306H66.0469V41.3135H67.4208V43.9397H70.0214V41.3135H71.3953V48.0306Z" fill="white"/>
<path d="M78.264 48.0304L77.7733 46.4142H75.369L74.8783 48.0304H73.4062L75.7125 41.2627H77.4299L79.7361 48.0304H78.264ZM77.4789 45.2526C77.0373 43.7879 76.792 42.9799 76.7429 42.7778C76.6938 42.5758 76.6448 42.4243 76.6448 42.3233C76.5466 42.7273 76.2522 43.6869 75.8106 45.2526H77.4789Z" fill="white"/>
<path d="M84.5913 42.4243C84.0515 42.4243 83.659 42.6263 83.3646 43.0304C83.0702 43.4344 82.923 43.99 82.923 44.697C82.923 46.2122 83.4627 46.9698 84.5422 46.9698C84.9838 46.9698 85.5727 46.8688 86.2106 46.6162V47.8283C85.6708 48.0809 85.082 48.1819 84.395 48.1819C83.4627 48.1819 82.7267 47.8789 82.236 47.2728C81.7453 46.6667 81.5 45.8081 81.5 44.697C81.5 43.99 81.6472 43.3839 81.8925 42.8789C82.1379 42.3738 82.4814 41.9698 82.972 41.6667C83.4137 41.3637 84.0025 41.2627 84.5913 41.2627C85.2292 41.2627 85.8671 41.4142 86.505 41.7172L86.0633 42.8789C85.818 42.7778 85.5727 42.6768 85.3273 42.5758C85.082 42.4748 84.8366 42.4243 84.5913 42.4243Z" fill="white"/>
<path d="M91.4138 48.0306H90.0399V42.5256H88.2734V41.3135H93.1803V42.5256H91.4138V48.0306Z" fill="white"/>
<path d="M99.9496 43.4347C99.9496 44.1418 99.7533 44.6973 99.3117 45.1014C98.8701 45.5054 98.2322 45.6569 97.4471 45.6569H96.8583V48.0306H95.4844V41.3135H97.5943C98.3794 41.3135 98.9682 41.465 99.4098 41.8185C99.7533 42.1721 99.9496 42.7276 99.9496 43.4347ZM96.8092 44.4953H97.2508C97.6924 44.4953 97.9868 44.3943 98.2322 44.2428C98.4285 44.0913 98.5266 43.8387 98.5266 43.4852C98.5266 43.1317 98.4285 42.9296 98.2813 42.7276C98.085 42.5761 97.8396 42.4751 97.4471 42.4751H96.8092V44.4953Z" fill="white"/>
<path d="M108.339 44.647C108.339 45.7581 108.094 46.6167 107.554 47.2227C107.014 47.8288 106.229 48.1318 105.248 48.1318C104.266 48.1318 103.481 47.8288 102.941 47.2227C102.402 46.6167 102.156 45.7581 102.156 44.647C102.156 43.5358 102.402 42.6773 102.941 42.0712C103.481 41.4651 104.266 41.1621 105.248 41.1621C106.229 41.1621 107.014 41.4651 107.554 42.0712C108.094 42.6773 108.339 43.5358 108.339 44.647ZM103.579 44.647C103.579 45.4045 103.726 45.9601 103.972 46.3641C104.266 46.7682 104.659 46.9197 105.198 46.9197C106.327 46.9197 106.867 46.1621 106.867 44.647C106.867 43.1318 106.327 42.3742 105.198 42.3742C104.659 42.3742 104.217 42.5762 103.972 42.9298C103.726 43.3338 103.579 43.9399 103.579 44.647Z" fill="white"/>
<path d="M114.724 48.0306H110.945V41.3135H114.724V42.4751H112.368V43.9397H114.576V45.1519H112.368V46.869H114.724V48.0306Z" fill="white"/>
<path d="M122.669 48.0306H121.295V45.1519H118.694V48.0306H117.32V41.3135H118.694V43.9397H121.295V41.3135H122.669V48.0306Z" fill="white"/>
<path d="M125.562 41.3135H126.789V44.5458V45.4044L126.74 46.4145H126.789L129.782 41.3135H131.451V48.0306H130.224V44.7983C130.224 44.3438 130.273 43.7377 130.322 42.8791H130.273L127.231 48.0306H125.562V41.3135Z" fill="white"/>
<path d="M138.122 48.0306H134.344V41.3135H138.122V42.4751H135.718V43.9397H137.926V45.1519H135.718V46.869H138.122V48.0306Z" fill="white"/>
<path d="M140.484 47.2727C140.484 46.9697 140.583 46.7677 140.73 46.6161C140.877 46.4646 141.122 46.4141 141.417 46.4141C141.711 46.4141 141.907 46.5151 142.055 46.6666C142.202 46.8182 142.3 47.0202 142.3 47.3232C142.3 47.5757 142.202 47.8283 142.055 47.9798C141.907 48.1313 141.662 48.2323 141.417 48.2323C141.122 48.2323 140.926 48.1313 140.73 47.9798C140.583 47.7778 140.484 47.5757 140.484 47.2727ZM142.005 45.505H140.779L140.533 40.3535H142.3L142.005 45.505Z" fill="white"/>
</g>
<defs>
<clipPath id="clip0_1_658">
<rect width="158" height="50" fill="white"/>
</clipPath>
</defs>
</svg>
