<svg width="190" height="54" viewBox="0 0 190 54" fill="none" xmlns="http://www.w3.org/2000/svg">
<path fill-rule="evenodd" clip-rule="evenodd" d="M13.2906 0.321928C13.3382 0.311783 13.386 0.303293 13.4335 0.293701C23.5022 7.76276 13.4668 23.9939 5.51847 30.4066C4.12302 28.888 2.92916 27.1847 2.01562 25.4008C8.35174 21.5305 11.9431 10.0845 4.70122 5.36093C6.9371 2.88717 9.87279 1.04961 13.2906 0.321928Z" fill="#FF6195"/>
<path fill-rule="evenodd" clip-rule="evenodd" d="M17.1489 0C23.7212 0.282773 29.7096 4.71272 32.2242 10.7019C28.0594 21.8461 20.9096 28.714 10.909 34.6978C9.6875 34.0263 8.52169 33.2077 7.4375 32.2766C16.1944 25.2126 24.9963 9.60194 17.1489 0Z" fill="#FFC641"/>
<path fill-rule="evenodd" clip-rule="evenodd" d="M33.31 14.5334C34.961 25.3801 26.5274 40.01 13.9531 36.0124C24.1198 29.9726 28.7213 24.5971 33.31 14.5334Z" fill="#00DC58"/>
<path fill-rule="evenodd" clip-rule="evenodd" d="M0.915869 22.8551C-0.875731 17.6746 0.0296605 12.0448 3.03322 7.50342C8.41906 10.9814 5.56987 20.2734 0.915869 22.8551Z" fill="#00ADFE"/>
<path fill-rule="evenodd" clip-rule="evenodd" d="M25.7114 43.1875C26.3247 43.018 26.9283 43.0973 27.4183 43.3818C27.9866 43.7116 28.4093 44.2921 28.5537 44.9969C28.7039 45.7294 28.8677 46.4602 29.004 47.1945C29.1406 47.9292 29.1826 48.6884 29.1661 49.4534C29.1502 50.1954 28.8612 50.9146 28.4908 51.5038C28.1299 52.0782 27.6371 52.5429 27.0271 52.7496C26.0479 53.0813 25.0769 53.4166 24.0624 53.621C22.5468 50.5734 23.5145 45.3339 25.7114 43.1875Z" fill="#FF6195"/>
<path fill-rule="evenodd" clip-rule="evenodd" d="M18.9928 44.6493C19.9566 44.6027 20.9185 44.5765 21.8517 44.4236C20.1363 48.4507 20.4622 51.1072 21.4568 53.9829L21.4125 53.9877C20.7715 54.0571 20.1349 53.835 19.5704 53.4592C18.9891 53.0721 18.4216 52.5329 18.0879 51.8631C17.7423 51.1692 17.4558 50.4579 17.2888 49.7232C17.1217 48.9882 16.9862 48.2463 16.8347 47.5077C16.6896 46.799 16.8454 46.0935 17.2368 45.556C17.6201 45.0297 18.2439 44.6857 18.9928 44.6493Z" fill="#00ADFE"/>
<path fill-rule="evenodd" clip-rule="evenodd" d="M12.7627 38.2141C12.2487 37.4473 13.3917 36.6519 13.9053 37.4181L17.7129 43.1011C18.2269 43.8679 17.0839 44.6633 16.5703 43.897L12.7627 38.2141Z" fill="#00ADFE"/>
<path fill-rule="evenodd" clip-rule="evenodd" d="M27.2716 34.5754C27.3072 34.3843 27.4158 34.2258 27.5624 34.124C27.8789 33.9045 28.308 33.9879 28.5235 34.3105C28.6558 34.5088 28.6356 34.6222 28.6374 34.8065L27.3738 41.5999C27.3382 41.7908 27.2296 41.9494 27.083 42.0513C26.7665 42.2708 26.3374 42.1874 26.1219 41.8648C25.9894 41.6665 26.0097 41.553 26.0081 41.3686L27.2716 34.5754Z" fill="#00ADFE"/>
<path fill-rule="evenodd" clip-rule="evenodd" d="M20.4529 38.804C20.3276 38.1924 20.9943 37.7236 21.5112 38.0684C21.6596 38.1673 21.771 38.3241 21.8101 38.515L22.5002 41.8822C22.6867 42.7931 21.3295 43.0816 21.1429 42.1713L20.4529 38.804Z" fill="#00ADFE"/>
<path d="M51.3357 40.4372C51.3357 40.1042 51.254 40.0417 51.0191 39.9897C50.6415 39.9168 49.9985 39.8857 49.335 39.8857C48.0284 39.8857 47.865 39.9065 47.6609 40.0209C47.5894 40.0625 47.5282 40.1771 47.5282 40.3018C47.5282 40.4267 47.5588 40.6347 47.5588 40.843C47.5588 40.8845 47.5588 40.9365 47.5588 40.9782L47.4975 41.5504C47.2526 43.3817 46.7218 44.9424 46.2419 45.5977C46.1909 45.6809 45.9665 45.8267 45.895 45.8267C45.6091 45.8475 45.5274 46.1076 45.5274 46.4094L45.3539 47.6891C45.3438 47.7203 45.3438 47.7515 45.3438 47.7827C45.3438 48.1676 46.0175 48.5214 46.2727 48.5214C46.3849 48.5214 46.4869 48.4799 46.5074 48.3654C46.589 47.9284 46.6198 47.2833 46.7218 47.0961C46.9464 47.0544 47.9365 47.0961 48.2121 47.0961H50.0291L49.9065 47.8452C49.9065 47.8867 49.8964 47.918 49.8964 47.9492C49.8964 48.251 50.5293 48.6775 50.9274 48.6775C51.0295 48.6775 51.0906 48.6254 51.0906 48.5214C51.1724 47.6683 51.2948 46.9192 51.4582 46.1284C51.4582 45.8058 51.0906 45.837 50.5598 45.837C50.7538 43.8915 51.1724 41.384 51.3357 40.4372ZM48.7939 41.1551C48.7939 41.1446 48.7939 41.1342 48.7939 41.1342C48.7939 41.0614 48.7634 40.9885 48.7328 40.9573C48.8348 40.9573 49.1716 40.947 49.3146 40.947C49.5594 40.947 49.8148 40.9677 49.9065 40.9782C49.733 42.0811 49.3758 44.37 49.2125 45.8267C48.651 45.8267 47.9875 45.8163 47.4159 45.8163C48.1305 44.8902 48.5592 42.7158 48.7939 41.1551ZM53.2595 45.5874C53.1881 45.9012 53.1472 46.2671 53.1472 46.5186C53.1472 46.9382 53.5453 47.1584 54.2292 47.1584C54.3416 47.1584 54.3926 47.0839 54.3926 46.9902C54.413 46.5289 54.4742 46.0279 54.5864 45.4834C55.1581 45.4417 55.7298 45.4 56.2707 45.348C56.3626 46.0382 56.4443 46.5931 56.5362 46.8965C56.6688 47.1064 57.261 47.1584 57.6692 47.1584C57.7816 47.1584 57.8529 47.1064 57.8529 46.9815C57.8327 46.8463 57.6897 46.0036 57.557 44.8175C57.3835 43.2151 57.2405 41.5712 57.2405 40.6452V40.1354C57.2201 39.9273 56.6994 39.7816 56.1891 39.7816C55.9951 39.7816 56.0461 40.1042 56.0054 40.1354C55.8318 40.0834 55.4236 39.9168 55.3725 39.9168C55.3112 39.9168 55.2806 39.9482 55.25 39.9897C54.5763 40.999 53.8821 42.7781 53.4534 44.3805C53.2085 44.4012 52.841 44.3285 52.841 44.526C52.841 44.6406 52.9839 45.0256 53.2595 45.5874ZM56.1686 44.2245L54.7397 44.3285C54.9641 43.392 55.4133 41.7169 55.9544 40.9885C56.0259 42.0499 56.0258 43.1007 56.1686 44.2245ZM64.503 41.6544C64.503 41.1342 64.2377 40.5204 63.9825 40.3018C63.6559 40.0314 62.6759 39.7193 62.0941 39.7193C61.0222 39.7193 60.0524 40.3746 59.8177 40.4995C59.777 40.5307 59.7565 40.5827 59.7565 40.6347C59.7565 40.8116 60.0933 41.4672 60.2057 41.54C60.0014 42.3116 59.6442 44.5312 59.6442 46.3348C59.6442 46.8133 59.7565 46.9382 60.3384 47.0647C60.4813 47.1273 60.6446 47.1584 60.808 47.1584C60.91 47.1584 60.9508 47.1064 60.9611 47.0111C60.9917 46.1371 61.0733 45.0949 61.1549 44.3648C61.4101 44.5521 61.747 44.6458 62.0634 44.6458C62.2166 44.6458 62.4105 44.6249 62.6454 44.5312C63.7987 44.1047 64.503 42.8857 64.503 41.6544ZM62.1452 40.8221C62.8392 40.8221 63.2169 41.2695 63.2169 41.8955C63.2169 42.9274 62.339 43.7179 61.2059 43.8533C61.308 43.052 61.4714 42.1764 61.5735 41.6129C61.6041 41.488 61.6144 41.384 61.6144 41.3111C61.5836 41.1759 61.4204 41.0094 61.308 41.0094C61.5633 40.9053 61.8592 40.8221 62.1452 40.8221ZM66.8864 39.9688C66.723 40.5621 66.1515 44.0787 66.0085 45.9827C65.9984 46.0973 65.9881 46.2219 65.9881 46.3468C65.9881 46.8878 66.7537 47.0752 67.1416 47.0752C67.2436 47.0752 67.407 46.9399 67.4273 46.8463C68.0603 45.8163 68.7748 44.2868 69.6527 42.6118C69.4486 43.8187 69.2035 45.4105 69.2035 46.4197C69.2035 46.7526 69.2649 46.8672 69.7446 46.9921C69.9079 47.0441 70.1223 47.1273 70.3366 47.1273C70.449 47.1273 70.5204 47.0753 70.5204 46.9712C70.6326 44.4429 71.143 41.6024 71.3676 40.3643C71.3676 40.2603 71.2961 40.2186 71.2248 40.1874C71.143 40.1562 70.5816 40.0105 70.3469 39.9794C70.1835 39.9585 70.0814 40.0002 69.9488 40.1354C69.224 41.332 68.2339 43.3608 67.4682 44.6094C67.6519 43.2151 67.9684 41.3632 68.1316 40.4684C68.1624 40.3226 68.1624 40.2186 68.1725 40.1354C68.1521 40.0314 67.4273 39.8336 67.0599 39.8336C66.9476 39.8336 66.9068 39.9065 66.8864 39.9688ZM76.7999 43.3503C76.8509 43.496 77.004 43.777 77.1877 43.9747C77.0755 44.8798 76.9735 45.785 76.9735 46.3782C76.9735 47.0127 77.7491 47.2313 78.1983 47.2313C78.3003 47.2313 78.3514 47.1793 78.3514 47.0856C78.3718 46.2533 78.4637 45.2128 78.5759 44.1723C79.2292 44.1308 79.8724 44.0787 80.4951 44.0162C80.4032 44.8695 80.342 45.785 80.3113 46.3885C80.342 46.9504 81.2606 47.2208 81.5057 47.2208C81.6077 47.2208 81.6792 47.1793 81.6792 47.0856C81.7098 44.8798 82.1895 41.3631 82.4141 40.1666L82.4447 40.0522C82.4447 40.0417 82.4447 40.0314 82.4447 40.0314C82.4447 39.8336 81.8017 39.6567 81.2708 39.6567C81.0156 39.6567 80.8524 40.9885 80.6175 42.903C79.9745 42.9447 79.3212 42.9862 78.6883 43.0487C78.8619 41.7064 79.0557 40.5307 79.1578 40.0522C79.1578 40.0314 79.1681 40.0105 79.1681 40.0002C79.1681 39.8233 78.6067 39.6672 78.0247 39.6672C77.9022 39.6672 77.841 39.7193 77.8104 39.8024C77.7084 40.1457 77.4838 41.5712 77.2898 43.1007C76.9836 43.1214 76.7896 43.1422 76.7896 43.2776C76.7896 43.2983 76.7896 43.3191 76.7999 43.3503ZM84.2461 45.5874C84.1746 45.9012 84.1337 46.2671 84.1337 46.5186C84.1337 46.9382 84.5318 47.1584 85.2157 47.1584C85.3281 47.1584 85.3791 47.0839 85.3791 46.9902C85.3996 46.5289 85.4608 46.0279 85.573 45.4834C86.1446 45.4417 86.7163 45.4 87.2572 45.348C87.3492 46.0382 87.4308 46.5931 87.5227 46.8965C87.6554 47.1064 88.2475 47.1584 88.6558 47.1584C88.7682 47.1584 88.8395 47.1064 88.8395 46.9815C88.8192 46.8463 88.6762 46.0036 88.5436 44.8175C88.37 43.2151 88.2271 41.5712 88.2271 40.6452V40.1354C88.2066 39.9273 87.686 39.7816 87.1756 39.7816C86.9816 39.7816 87.0327 40.1042 86.9919 40.1354C86.8184 40.0834 86.4101 39.9168 86.3591 39.9168C86.2977 39.9168 86.2672 39.9482 86.2366 39.9897C85.5628 40.999 84.8686 42.7781 84.4399 44.3805C84.1951 44.4012 83.8275 44.3285 83.8275 44.526C83.8275 44.6406 83.9705 45.0256 84.2461 45.5874ZM87.1552 44.2245L85.7262 44.3285C85.9506 43.392 86.3998 41.7169 86.9409 40.9885C87.0124 42.0499 87.0124 43.1007 87.1552 44.2245ZM95.2243 46.2013C95.2957 46.1179 95.3263 46.0139 95.3263 45.8995C95.3263 45.7226 95.2243 45.5977 95.1017 45.348C94.9385 45.0776 94.8875 45.0464 94.8261 45.0464C94.6321 45.0464 94.377 45.4314 94.2239 45.5666C93.8565 45.8787 93.4991 46.1179 93.1317 46.1179C92.4274 46.1179 91.9782 45.3897 91.9782 44.474C91.9782 41.7064 92.6825 40.8116 93.4788 40.8116C93.9278 40.8116 94.2443 41.0717 94.2443 41.5295C94.2443 41.5609 94.2443 41.9562 93.9993 42.4452C93.8462 42.8198 94.1627 42.8198 94.4075 42.9654C94.4893 42.9967 94.5505 43.007 94.6119 43.007C95.2854 43.007 95.5509 41.2903 95.561 41.0717C95.5305 40.2498 94.2953 39.6984 93.6319 39.6984C93.4584 39.6984 93.2745 39.7088 93.0908 39.7296C91.5699 39.9273 90.5797 41.7273 90.5797 44.3076C90.5797 46.4717 91.6311 47.3562 93.1113 47.3562C94.2137 47.3562 94.918 46.6903 95.2243 46.2013ZM97.536 41.1031C97.9544 41.0822 98.5056 41.0614 98.8628 41.0614C98.7097 42.1122 98.4138 44.4117 98.3424 46.1908C98.281 46.7318 99.1079 47.2105 99.4855 47.2105C99.649 47.2105 99.7204 47.0441 99.7407 46.7423C99.8428 44.8487 100.027 43.1943 100.159 41.6649C100.18 41.2903 99.9961 41.1134 99.8122 41.0197C100.619 41.0197 101.517 41.1551 101.936 41.1551C102.089 41.1551 102.15 41.0405 102.15 40.947C102.15 40.5621 101.793 39.9897 101.68 39.9168C101.496 39.7296 100.19 39.7401 99.4141 39.7401C98.475 39.7401 97.3114 39.7921 96.9643 39.8442C96.8827 39.8545 96.8418 39.9065 96.8418 40.0105C96.8418 40.3018 97.0868 40.7804 97.1378 40.8636C97.2603 41.0197 97.3215 41.0926 97.536 41.1031ZM108.085 41.6544C108.085 41.1342 107.82 40.5204 107.565 40.3018C107.238 40.0314 106.258 39.7193 105.676 39.7193C104.604 39.7193 103.635 40.3746 103.4 40.4995C103.359 40.5307 103.339 40.5827 103.339 40.6347C103.339 40.8116 103.676 41.4672 103.788 41.54C103.584 42.3116 103.226 44.5312 103.226 46.3348C103.226 46.8133 103.339 46.9382 103.921 47.0647C104.064 47.1273 104.227 47.1584 104.39 47.1584C104.492 47.1584 104.533 47.1064 104.543 47.0111C104.574 46.1371 104.655 45.0949 104.737 44.3648C104.992 44.5521 105.329 44.6458 105.646 44.6458C105.799 44.6458 105.993 44.6249 106.228 44.5312C107.381 44.1047 108.085 42.8857 108.085 41.6544ZM105.727 40.8221C106.421 40.8221 106.799 41.2695 106.799 41.8955C106.799 42.9274 105.921 43.7179 104.788 43.8533C104.89 43.052 105.054 42.1764 105.156 41.6129C105.186 41.488 105.197 41.384 105.197 41.3111C105.166 41.1759 105.003 41.0094 104.89 41.0094C105.146 40.9053 105.441 40.8221 105.727 40.8221ZM113.133 39.9377C112.898 39.8545 112.582 39.8024 112.265 39.8024C110.765 39.8024 109.519 41.6024 109.519 44.4949C109.519 46.9607 110.877 47.3353 111.836 47.3353C112.051 47.3353 112.255 47.3042 112.469 47.2521C113.715 46.9607 114.715 45.1399 114.715 42.5701C114.715 40.843 113.99 40.073 113.133 39.9377ZM112.398 40.843C112.959 40.843 113.337 41.1863 113.337 42.3723C113.337 45.4 112.49 46.274 111.857 46.274C111.336 46.274 110.918 45.9204 110.918 44.6614C110.918 41.8105 111.714 40.843 112.398 40.843ZM119.63 42.7261C119.17 42.7261 118.701 42.8093 118.221 42.903C118.313 42.3515 118.476 41.8418 118.476 41.5504C118.476 41.332 118.456 41.0511 118.139 41.0511C118.946 40.8116 119.936 40.8116 121.028 40.8116C121.212 40.8116 121.314 40.4372 121.314 40.0417C121.314 39.6464 121.069 39.6672 120.579 39.6672C119.109 39.6984 117.19 39.9273 116.914 40.4892C116.884 40.5307 116.853 40.6661 116.853 40.7805C116.853 40.9053 117.016 41.2486 117.2 41.3006C117.19 41.3735 117.17 41.4569 117.047 41.9874C116.792 43.1319 116.527 44.4949 116.435 45.8683C116.435 46.9399 116.873 47.2001 117.874 47.2001C118.201 47.2001 118.629 47.1793 119.038 47.1273C120.181 46.9815 120.793 47.2001 120.793 46.2948C120.793 46.1284 120.773 45.8163 120.508 45.8163C119.915 45.8787 118.925 45.941 118.231 46.0556C117.945 46.0659 117.741 46.0452 117.792 45.7226C117.864 45.1296 117.945 44.5052 118.047 43.985C118.64 43.8393 119.354 43.7873 119.997 43.7873C120.222 43.7873 120.303 43.392 120.303 43.0174C120.303 42.6638 119.854 42.7261 119.63 42.7261ZM122.656 43.3503C122.707 43.496 122.86 43.777 123.044 43.9747C122.932 44.8798 122.83 45.785 122.83 46.3782C122.83 47.0127 123.605 47.2313 124.054 47.2313C124.156 47.2313 124.207 47.1793 124.207 47.0856C124.228 46.2533 124.32 45.2128 124.432 44.1723C125.085 44.1308 125.729 44.0787 126.351 44.0162C126.259 44.8695 126.198 45.785 126.167 46.3885C126.198 46.9504 127.117 47.2208 127.362 47.2208C127.464 47.2208 127.535 47.1793 127.535 47.0856C127.566 44.8798 128.046 41.3631 128.27 40.1666L128.301 40.0522C128.301 40.0417 128.301 40.0314 128.301 40.0314C128.301 39.8336 127.658 39.6567 127.127 39.6567C126.872 39.6567 126.708 40.9885 126.474 42.903C125.831 42.9447 125.177 42.9862 124.544 43.0487C124.718 41.7064 124.912 40.5307 125.014 40.0522C125.014 40.0314 125.024 40.0105 125.024 40.0002C125.024 39.8233 124.463 39.6672 123.881 39.6672C123.758 39.6672 123.697 39.7193 123.667 39.8024C123.564 40.1457 123.34 41.5712 123.146 43.1007C122.84 43.1214 122.646 43.1422 122.646 43.2776C122.646 43.2983 122.646 43.3191 122.656 43.3503ZM130.99 39.9688C130.827 40.5621 130.255 44.0787 130.112 45.9827C130.102 46.0973 130.092 46.2219 130.092 46.3468C130.092 46.8878 130.858 47.0752 131.245 47.0752C131.347 47.0752 131.511 46.9399 131.531 46.8463C132.164 45.8163 132.879 44.2868 133.757 42.6118C133.552 43.8187 133.307 45.4105 133.307 46.4197C133.307 46.7526 133.369 46.8672 133.848 46.9921C134.012 47.0441 134.226 47.1273 134.44 47.1273C134.553 47.1273 134.624 47.0753 134.624 46.9712C134.736 44.4429 135.247 41.6024 135.471 40.3643C135.471 40.2603 135.4 40.2186 135.329 40.1874C135.247 40.1562 134.685 40.0105 134.451 39.9794C134.287 39.9585 134.185 40.0002 134.053 40.1354C133.328 41.332 132.338 43.3608 131.572 44.6094C131.756 43.2151 132.072 41.3632 132.235 40.4684C132.266 40.3226 132.266 40.2186 132.276 40.1354C132.256 40.0314 131.531 39.8336 131.164 39.8336C131.051 39.8336 131.011 39.9065 130.99 39.9688ZM140.427 42.7261C139.968 42.7261 139.498 42.8093 139.018 42.903C139.11 42.3515 139.273 41.8418 139.273 41.5504C139.273 41.332 139.253 41.0511 138.937 41.0511C139.743 40.8116 140.733 40.8116 141.825 40.8116C142.009 40.8116 142.111 40.4372 142.111 40.0417C142.111 39.6464 141.866 39.6672 141.376 39.6672C139.906 39.6984 137.987 39.9273 137.712 40.4892C137.681 40.5307 137.65 40.6661 137.65 40.7805C137.65 40.9053 137.814 41.2486 137.997 41.3006C137.987 41.3735 137.967 41.4569 137.844 41.9874C137.589 43.1319 137.324 44.4949 137.232 45.8683C137.232 46.9399 137.671 47.2001 138.671 47.2001C138.998 47.2001 139.426 47.1793 139.835 47.1273C140.978 46.9815 141.59 47.2001 141.59 46.2948C141.59 46.1284 141.57 45.8163 141.305 45.8163C140.713 45.8787 139.723 45.941 139.028 46.0556C138.743 46.0659 138.538 46.0452 138.589 45.7226C138.661 45.1296 138.743 44.5052 138.845 43.985C139.437 43.8393 140.151 43.7873 140.794 43.7873C141.019 43.7873 141.101 43.392 141.101 43.0174C141.101 42.6638 140.651 42.7261 140.427 42.7261ZM145.668 40.3018C145.709 40.0522 145.587 39.9377 145.454 39.8545C145.301 39.7713 144.811 39.6776 144.556 39.6776C144.433 39.6776 144.27 39.7504 144.239 39.8857C144.004 40.6556 143.719 42.7261 143.729 44.1828C143.739 44.2868 143.77 44.474 143.841 44.5469C143.923 44.6614 144.055 44.7238 144.464 44.7446C144.607 44.755 144.709 44.6198 144.75 44.5157C144.995 43.3817 145.444 41.384 145.668 40.3018ZM144.79 46.1388C144.801 46.0036 144.729 45.8475 144.607 45.7746C144.372 45.6083 143.984 45.5457 143.719 45.5457C143.545 45.5457 143.504 45.6498 143.484 45.7226C143.422 45.9204 143.351 46.3573 143.341 46.6278C143.341 46.7943 143.402 46.8672 143.463 46.9295C143.637 47.1064 143.953 47.2833 144.382 47.2936C144.525 47.2936 144.586 47.2625 144.637 47.1273C144.709 46.9087 144.75 46.5029 144.79 46.1388Z" fill="#FF6195"/>
<path d="M45.8032 32.0542C46.2184 33.1315 47.9027 33.8342 50.1635 33.8342C53.6474 33.8342 56.5081 31.2343 56.5081 27.8148C56.5081 26.2923 55.4931 25.0277 52.6553 24.6997C54.4317 24.0206 56.3235 22.5683 56.3235 20.0389C56.3235 17.9777 53.9702 16.7363 51.4555 16.7363C48.8947 16.7363 46.5414 17.9075 45.9647 18.3525C45.8262 18.4461 45.7109 18.5866 45.7109 18.774C45.7109 19.1254 46.1031 19.7577 46.7953 20.32C46.3107 23.4817 45.7801 28.5877 45.7109 31.1875C45.7109 31.5389 45.7339 31.82 45.8032 32.0542ZM51.0401 26.2222C52.6321 26.2222 53.3705 26.9483 53.3705 27.8851C53.3705 29.6651 51.9399 31.0705 50.302 31.164C49.6099 31.164 48.8947 31.0237 48.7793 30.766C48.8024 29.8525 48.9639 28.096 49.1253 26.4095C49.7714 26.2923 50.4174 26.2222 51.0401 26.2222ZM49.0098 19.7812C49.6561 19.5 50.5559 19.2191 51.3632 19.2191C52.586 19.2191 53.2089 19.664 53.2089 20.6946C53.2089 22.1 52.1707 23.4349 50.6482 23.8331C50.2097 23.9503 49.7714 23.9737 49.356 24.0674C49.4715 22.826 49.7484 21.6783 49.7484 20.7883C49.7484 20.2965 49.4253 19.8749 49.0098 19.7812ZM58.2154 32.4289C58.3307 32.8974 59.6919 33.4829 60.5917 33.4829C60.8223 33.4829 60.9377 33.3892 60.9377 33.1549C61.03 31.0705 61.1685 29.5949 61.3762 27.9085C61.7682 27.5103 63.914 25.5663 64.3523 25.5663C64.5139 25.5663 64.56 25.7303 64.56 25.9411C64.56 26.55 64.3984 27.3697 64.3293 28.1194C64.2138 29.22 64.0754 30.3912 64.0754 31.4217C64.0754 32.2649 63.9831 32.8505 65.3443 33.2486C65.6442 33.4126 66.0595 33.4594 66.498 33.4594C66.7286 33.4594 66.89 33.3892 66.89 33.1315C67.0286 29.6183 67.2824 27.6274 67.5591 25.0043C67.6284 24.5357 67.6284 24.4889 67.6284 24.4655C67.6284 23.8331 65.4366 23.0134 65.0213 23.0134C64.1908 23.0134 62.5529 24.5826 61.6299 25.5663L61.976 23.9268C61.976 23.88 61.976 23.8566 61.976 23.8097C61.976 23.3646 60.6149 22.99 59.669 22.99C59.3459 22.99 59.2536 23.1305 59.1843 23.3646C58.7923 24.6529 58.2384 28.5409 58.1231 31.5154C58.1231 31.8434 58.1231 32.1477 58.2154 32.4289ZM77.2721 32.2649C77.4335 32.1243 77.5028 31.9137 77.5028 31.7263C77.5028 31.1172 76.8338 30.2975 76.5339 30.2975C76.1415 30.2975 75.4264 30.8597 75.1956 31.0002C74.665 31.328 74.2267 31.3749 73.8575 31.3515C73.1887 31.328 72.3578 30.3912 72.3578 28.8688C72.3578 28.7283 72.3578 28.6112 72.381 28.4472C72.5886 28.5877 73.3499 28.822 74.2035 28.822C75.8187 28.822 78.0564 27.8148 78.0564 24.8168C78.0564 23.0134 76.0033 22.4746 74.9189 22.4278C72.1504 22.4278 69.3588 24.4889 69.3588 28.7517C69.3588 31.5623 70.9738 33.6234 73.6268 33.6234C75.4034 33.6234 76.4876 33.0846 77.2721 32.2649ZM74.4343 24.6529C74.988 24.6529 75.4725 25.0043 75.4725 25.5897C75.4725 26.9483 74.5727 27.5572 73.5806 27.5572C73.0732 27.5572 72.6809 27.44 72.4501 27.3463C72.6117 25.8708 73.396 24.6997 74.4343 24.6529ZM83.0631 23.9503C83.0631 23.9034 83.0631 23.8566 83.0631 23.8097C83.0631 23.0134 81.748 22.7323 81.4018 22.662C81.2404 22.6152 81.1481 22.6386 81.0558 22.6386C80.4329 22.6386 79.9023 26.1754 79.9023 27.5337C79.9023 28.4003 80.6866 29.6417 82.4169 29.6417C83.1784 29.6417 84.2398 29.2903 85.0934 28.8454C85.0241 29.4075 84.955 29.876 84.8625 30.8831L84.7702 31.4686C84.7933 31.6326 84.8625 31.9839 84.955 32.1243C85.3008 32.5928 86.2929 33.3189 86.9159 33.3189C87.1467 33.3189 87.262 33.2017 87.2849 32.9911C87.4927 31.3514 88.0926 26.8311 88.4848 24.4186C88.4848 24.3249 88.5077 24.2314 88.5077 24.1377C88.5077 23.3412 88.0003 23.0603 87.1005 22.7792C86.8466 22.7089 86.6159 22.6854 86.5006 22.6854C86.2237 22.6854 86.0391 22.8494 85.993 23.0603C85.8084 23.8331 85.4624 25.5897 85.2778 27.1122C84.8625 27.3463 83.3166 27.8148 82.9708 27.8148C82.5555 27.8148 82.5555 27.5572 82.5555 27.2526C82.6939 26.3392 82.8092 25.1917 83.0631 23.9503ZM99.259 25.4023C99.259 24.5826 97.9207 24.4889 97.4594 24.4889C97.2748 23.6223 96.6981 22.8026 94.8522 22.8026C92.3376 22.8026 89.7767 26.1988 89.7767 30.2037C89.7767 32.3586 91.1839 33.6703 92.6606 33.6703C93.8373 33.6703 95.0599 32.1712 95.7981 30.6723L95.8213 30.6957C95.7981 31.2109 95.6599 31.656 95.6599 32.1009C95.6599 33.0379 96.7211 33.6703 98.1514 33.6703C98.3822 33.6703 98.4976 33.5297 98.4976 33.3423C98.5206 32.4757 99.0281 26.9951 99.259 25.4023ZM93.2835 30.9768C92.9603 30.9768 92.5684 30.602 92.5684 29.9931C92.5684 27.5572 94.0908 25.098 95.2907 25.098C95.9366 25.098 96.1905 25.8708 96.052 27.6743C95.4753 29.2435 94.1831 30.9768 93.2835 30.9768ZM108.441 22.826C107.864 22.7089 105.719 22.5215 104.796 22.5215C103.296 22.5215 101.197 22.7557 100.643 22.9197C100.482 22.9666 100.412 23.1071 100.412 23.2945C100.412 23.5286 100.805 25.1214 101.22 25.1214C101.266 25.1214 101.358 25.1214 101.497 25.1448C101.981 25.0745 102.72 24.9808 103.481 24.9574C103.066 26.4095 102.35 29.5714 102.35 32.3586C102.35 32.5928 103.112 33.4829 104.704 33.4829C104.934 33.4829 105.05 33.3892 105.05 33.1549C105.188 31.0705 105.604 28.6112 105.926 26.9483C106.042 26.1285 105.949 25.4726 105.419 25.0043C106.642 25.098 108.441 25.4023 108.857 25.4023C109.018 25.4023 109.133 25.2618 109.133 24.9106C109.064 23.0368 108.88 22.9431 108.441 22.826ZM112.802 25.2385L112.779 25.2151C113.148 25.1917 113.771 25.1214 114.463 25.1214C114.901 25.1214 115.362 25.1448 115.87 25.2151C115.685 26.8546 115.409 29.6183 115.339 31.3046C115.339 32.5694 116.493 33.4829 117.785 33.4829C118.016 33.4829 118.223 33.2486 118.223 33.0145C118.269 31.3046 118.639 25.9177 118.962 23.6457C118.962 22.8729 117.9 22.8494 116.539 22.7557L114.416 22.6152C114.255 22.6152 114.071 22.6152 113.909 22.6152C112.386 22.6152 111.348 22.8729 110.887 22.8729C110.587 22.9666 110.402 23.388 110.402 23.7863C110.402 24.2314 110.818 24.934 110.794 25.7537C110.794 25.824 110.794 25.9177 110.794 25.988C110.84 26.1051 110.84 26.2455 110.84 26.386C110.84 27.768 109.872 29.876 108.949 31.2343L108.464 32.0308C108.441 32.1009 108.441 32.1478 108.441 32.1946C108.441 32.9911 110.079 33.4126 110.771 33.4126C111.094 33.4126 111.256 33.3423 111.371 33.0614C112.432 31.1406 113.471 28.6814 113.471 26.2923C113.471 25.8474 113.148 25.3789 112.802 25.2385ZM128.605 32.2649C128.767 32.1243 128.836 31.9137 128.836 31.7263C128.836 31.1172 128.167 30.2975 127.867 30.2975C127.475 30.2975 126.76 30.8597 126.529 31.0002C125.998 31.328 125.56 31.3749 125.191 31.3515C124.522 31.328 123.691 30.3912 123.691 28.8688C123.691 28.7283 123.691 28.6112 123.714 28.4472C123.922 28.5877 124.683 28.822 125.537 28.822C127.152 28.822 129.39 27.8148 129.39 24.8168C129.39 23.0134 127.336 22.4746 126.252 22.4278C123.484 22.4278 120.692 24.4889 120.692 28.7517C120.692 31.5623 122.307 33.6234 124.96 33.6234C126.737 33.6234 127.821 33.0846 128.605 32.2649ZM125.767 24.6529C126.321 24.6529 126.806 25.0043 126.806 25.5897C126.806 26.9483 125.906 27.5572 124.914 27.5572C124.406 27.5572 124.014 27.44 123.783 27.3463C123.945 25.8708 124.729 24.6997 125.767 24.6529ZM131.005 27.7211C131.051 27.9554 131.166 28.6814 131.466 28.9391C131.558 29.0328 131.674 29.1031 131.743 29.1732C131.605 30.4849 131.535 31.4452 131.535 32.3352C131.72 32.9911 132.989 33.6703 133.865 33.6703C134.119 33.6703 134.258 33.5531 134.258 33.3423C134.304 32.2883 134.396 30.9534 134.489 29.5012C135.481 29.4777 136.45 29.4075 137.395 29.3372C137.28 30.274 137.188 31.2812 137.188 32.0074C137.188 32.4991 137.28 32.7568 137.788 33.0379C138.295 33.3423 139.172 33.6703 139.564 33.6703C139.818 33.6703 139.933 33.5531 139.933 33.3423C140.072 30.6254 140.441 26.2222 140.879 23.8097C140.879 23.7629 140.902 23.7394 140.902 23.6926C140.902 23.1774 139.195 22.8494 138.687 22.8494C138.065 22.8494 137.857 25.098 137.603 27.1591L134.673 27.3229C134.811 25.9646 135.019 24.7232 135.25 23.7629C135.25 23.2242 133.981 22.8494 132.989 22.8494C132.643 22.8494 132.574 23.0368 132.551 23.1774C132.389 23.9034 132.066 25.824 131.881 27.4166L131.212 27.4635C131.097 27.4635 131.005 27.5572 131.005 27.7211ZM152.415 23.9737C152.415 23.2711 150.684 23.0837 150.038 23.0837C149.808 23.0837 149.669 23.2477 149.646 23.4583C149.554 24.9808 149.346 26.4329 149.046 28.5174C148.677 29.0094 146.508 30.3912 145.886 30.5083C146.07 28.4003 146.439 26.0582 146.578 24.0205C146.624 23.2008 145.701 22.9666 144.686 22.9666C144.132 22.9666 143.648 23.0837 143.648 24.1377C143.417 27.5103 143.094 29.1966 142.886 31.9137C142.84 32.382 144.017 32.9911 145.078 33.2954C145.217 33.3423 145.793 33.2954 145.932 33.2017C146.67 32.71 148.285 31.5857 149 30.9534C148.977 31.5623 148.954 32.0308 148.954 32.1243C148.954 33.0145 149.969 33.4829 150.961 33.4829C151.192 33.4829 151.353 33.1315 151.423 32.71C151.653 31.0939 152.253 26.5734 152.415 23.9737ZM162.058 32.2649C162.22 32.1243 162.289 31.9137 162.289 31.7263C162.289 31.1172 161.62 30.2975 161.32 30.2975C160.928 30.2975 160.213 30.8597 159.982 31.0002C159.451 31.328 159.013 31.3749 158.644 31.3515C157.975 31.328 157.144 30.3912 157.144 28.8688C157.144 28.7283 157.144 28.6112 157.167 28.4472C157.375 28.5877 158.136 28.822 158.99 28.822C160.605 28.822 162.843 27.8148 162.843 24.8168C162.843 23.0134 160.79 22.4746 159.705 22.4278C156.937 22.4278 154.145 24.4889 154.145 28.7517C154.145 31.5623 155.76 33.6234 158.413 33.6234C160.19 33.6234 161.274 33.0846 162.058 32.2649ZM159.221 24.6529C159.774 24.6529 160.259 25.0043 160.259 25.5897C160.259 26.9483 159.359 27.5572 158.367 27.5572C157.86 27.5572 157.467 27.44 157.236 27.3463C157.398 25.8708 158.182 24.6997 159.221 24.6529ZM166.903 31.7028C166.926 31.4217 166.765 31.0939 166.534 30.93C166.004 30.602 165.288 30.5552 164.735 30.5552C164.342 30.5552 164.25 30.766 164.204 30.93C164.089 31.3514 164.02 32.0074 163.997 32.5694C163.997 32.9442 164.135 33.0846 164.273 33.2017C164.712 33.6703 166.28 34.1152 166.58 33.3892C166.719 32.9442 166.811 32.4757 166.903 31.7028ZM171.356 38.7997C171.379 37.1132 171.518 34.7477 171.702 32.3586C171.864 32.5694 172.579 33.0846 173.41 33.0846C174.794 33.0846 178.301 31.8434 178.301 26.5266C178.301 23.8331 176.916 22.99 175.14 22.99C174.078 22.99 173.156 24.3483 172.394 25.1448C172.51 24.2548 172.648 23.6692 172.648 23.4115C172.648 22.9197 171.402 22.8026 170.341 22.8026C170.133 22.8026 169.995 22.9197 169.926 23.1071C169.556 24.442 168.703 32.874 168.541 37.0663C168.541 37.4177 168.565 37.7222 168.611 38.0266C168.841 38.4951 169.972 39.1274 171.079 39.1274C171.264 39.1274 171.356 38.9869 171.356 38.7997ZM174.355 25.3789C175.393 24.934 175.509 26.2923 175.509 27.0185C175.509 29.1499 174.286 31.1406 172.74 31.1406C172.371 31.1406 172.048 31.0471 171.841 30.9768L171.979 29.4543C172.071 28.5174 172.164 28.0023 172.279 27.5103C172.694 26.5969 173.64 25.5429 174.355 25.3789ZM181.577 32.2415C181.83 32.8974 182.015 33.0614 182.476 33.0614C182.592 33.0614 182.799 33.0145 182.915 33.0145C182.269 34.5603 181.554 36.27 181.184 37.4411C180.977 38.05 180.954 38.1906 180.954 38.3546C180.954 39.2211 182.753 40.0409 183.168 40.0409C183.469 40.0409 183.699 39.7834 183.768 39.5725C184.922 35.708 187.46 29.0094 189.559 24.9574C189.744 24.606 189.998 24.0674 189.998 23.6926C189.998 23.2711 188.798 22.4746 188.198 22.4746C187.414 22.4746 185.752 26.1051 184.068 30.7191C183.284 28.4237 182.845 25.988 182.661 22.9197C182.661 22.6386 182.269 22.5917 182.015 22.5917C180.469 22.5917 179.57 22.7557 179.57 23.9971C179.57 24.2548 179.593 24.5123 179.639 24.6997C180.031 27.3229 180.608 29.8291 181.577 32.2415Z" fill="#4D4D4D"/>
</svg>
