<svg width="16" height="16" viewBox="0 0 16 16" fill="none" xmlns="http://www.w3.org/2000/svg">
<g clip-path="url(#clip0_1_5984)">
<path d="M11.3075 15.4987C11.091 15.4922 10.8855 15.4017 10.7345 15.2464L4.07601 8.58948C3.91979 8.43319 3.83203 8.22126 3.83203 8.00029C3.83203 7.77931 3.91979 7.56738 4.07601 7.41109L10.7345 0.754194C10.8113 0.674228 10.9033 0.610387 11.0051 0.56641C11.1068 0.522434 11.2164 0.499204 11.3272 0.498082C11.4381 0.496958 11.5481 0.517966 11.6507 0.559873C11.7533 0.60178 11.8466 0.663744 11.925 0.742137C12.0034 0.820531 12.0653 0.913779 12.1072 1.01642C12.1491 1.11906 12.1702 1.22903 12.169 1.33989C12.1679 1.45075 12.1447 1.56027 12.1007 1.66204C12.0567 1.76381 11.9929 1.85578 11.9129 1.93258L5.84358 8.00029L11.9129 14.068C12.0333 14.185 12.1156 14.3357 12.1489 14.5003C12.1822 14.6649 12.165 14.8358 12.0995 14.9904C12.0341 15.1451 11.9234 15.2764 11.7821 15.367C11.6408 15.4577 11.4753 15.5036 11.3075 15.4987Z" fill="#222222"/>
</g>
<defs>
<clipPath id="clip0_1_5984">
<rect width="16" height="16" fill="white" transform="matrix(1 -8.74228e-08 -8.74228e-08 -1 0 16)"/>
</clipPath>
</defs>
</svg>
