<svg width="15" height="15" viewBox="0 0 15 15" fill="none" xmlns="http://www.w3.org/2000/svg">
<path d="M3.31786 7.9675C2.57653 8.14415 1.91593 8.56327 1.44148 9.15798C0.96703 9.75269 0.706083 10.4887 0.700288 11.2486V13.8921C0.699125 13.946 0.708916 13.9996 0.729072 14.0496C0.749227 14.0996 0.77933 14.1451 0.817568 14.1832C0.855806 14.2213 0.901387 14.2513 0.951567 14.2714C1.00175 14.2915 1.05549 14.3013 1.10955 14.3001L3.87207 14.2491C4.48925 14.2501 5.09373 14.0744 5.61367 13.7429C6.13361 13.4114 6.54715 12.938 6.80512 12.3791C7.06983 11.8523 7.17861 11.2612 7.11872 10.6751C7.05884 10.0889 6.83277 9.53187 6.46696 9.0691C6.10115 8.60633 5.61073 8.25698 5.05305 8.06189C4.49538 7.86681 3.89352 7.83407 3.31786 7.9675ZM13.6688 1.09089C13.311 0.809631 12.8607 0.671982 12.4063 0.705015C11.9518 0.738047 11.5263 0.939371 11.2132 1.2694L5.77344 6.71798C5.6995 6.79274 5.65804 6.8935 5.65804 6.99849C5.65804 7.10347 5.6995 7.20424 5.77344 7.27899L7.69185 9.20002C7.76684 9.27374 7.86791 9.31506 7.97322 9.31506C8.07853 9.31506 8.17961 9.27374 8.25459 9.20002L13.7882 3.70043C13.9521 3.53625 14.0817 3.34127 14.1696 3.12678C14.2574 2.9123 14.3016 2.68257 14.2997 2.45091C14.3058 2.19123 14.252 1.93362 14.1427 1.69786C14.0333 1.4621 13.8712 1.25447 13.6688 1.09089Z" fill="#FF3D54"/>
</svg>
