<svg width="30" height="30" viewBox="0 0 30 30" fill="none" xmlns="http://www.w3.org/2000/svg">
<path d="M21.8178 25.2273C22.947 25.226 23.862 24.311 23.8633 23.1818C23.8633 22.0521 22.9475 21.1364 21.8178 21.1364C20.6881 21.1364 19.7724 22.0521 19.7724 23.1818C19.7724 24.3115 20.6881 25.2273 21.8178 25.2273ZM21.8178 22.5C22.1941 22.5007 22.4989 22.8055 22.4996 23.1818C22.4996 23.5583 22.1944 23.8636 21.8178 23.8636C21.4413 23.8636 21.136 23.5583 21.136 23.1818C21.136 22.8053 21.4413 22.5 21.8178 22.5ZM21.8178 19.7727C22.947 19.7715 23.862 18.8565 23.8633 17.7273C23.8633 16.5976 22.9475 15.6818 21.8178 15.6818C20.6881 15.6818 19.7724 16.5976 19.7724 17.7273C19.7724 18.857 20.6881 19.7727 21.8178 19.7727ZM21.8178 17.0455C22.1941 17.0462 22.4989 17.351 22.4996 17.7273C22.4996 18.1038 22.1944 18.4091 21.8178 18.4091C21.4413 18.4091 21.136 18.1038 21.136 17.7273C21.136 17.3507 21.4413 17.0455 21.8178 17.0455ZM25.2269 2.72727H22.4996V0.681818C22.4996 0.305287 22.1944 0 21.8178 0C21.4413 0 21.136 0.305287 21.136 0.681818V2.72727H8.86328V0.681818C8.86328 0.305287 8.55799 0 8.18146 0C7.80493 0 7.49964 0.305287 7.49964 0.681818V2.72727H4.77237C2.8903 2.72902 1.36503 4.25429 1.36328 6.13636V26.5909C1.36503 28.473 2.8903 29.9983 4.77237 30H25.2269C27.109 29.9983 28.6343 28.473 28.636 26.5909V6.13636C28.6343 4.25429 27.109 2.72902 25.2269 2.72727ZM27.2724 26.5909C27.2711 27.7201 26.3561 28.6351 25.2269 28.6364H4.77237C3.64319 28.6351 2.72817 27.7201 2.72692 26.5909V12.2727H27.2724V26.5909ZM27.2724 10.9091H2.72692V6.13636C2.72817 5.00719 3.64319 4.09216 4.77237 4.09091H7.49964V6.13636C7.49964 6.13661 7.49964 6.13686 7.49964 6.1372C7.49989 6.51348 7.8051 6.81843 8.18146 6.81818C8.18171 6.81818 8.18196 6.81818 8.1823 6.81818C8.55858 6.81793 8.86353 6.51273 8.86328 6.13636V4.09091H21.136V6.13636C21.136 6.13661 21.136 6.13686 21.136 6.1372C21.1363 6.51348 21.4415 6.81843 21.8178 6.81818C21.8181 6.81818 21.8183 6.81818 21.8187 6.81818C22.1949 6.81793 22.4999 6.51273 22.4996 6.13636V4.09091H25.2269C26.3561 4.09216 27.2711 5.00719 27.2724 6.13636V10.9091ZM8.18146 25.2273C9.31064 25.226 10.2257 24.311 10.2269 23.1818C10.2269 22.0521 9.31114 21.1364 8.18146 21.1364C7.05179 21.1364 6.13601 22.0521 6.13601 23.1818C6.13601 24.3115 7.05179 25.2273 8.18146 25.2273ZM8.18146 22.5C8.55774 22.5007 8.86253 22.8055 8.86328 23.1818C8.86328 23.5583 8.55799 23.8636 8.18146 23.8636C7.80493 23.8636 7.49964 23.5583 7.49964 23.1818C7.49964 22.8053 7.80493 22.5 8.18146 22.5ZM14.9996 25.2273C16.1288 25.226 17.0439 24.311 17.0451 23.1818C17.0451 22.0521 16.1293 21.1364 14.9996 21.1364C13.87 21.1364 12.9542 22.0521 12.9542 23.1818C12.9542 24.3115 13.87 25.2273 14.9996 25.2273ZM14.9996 22.5C15.3759 22.5007 15.6807 22.8055 15.6815 23.1818C15.6815 23.5583 15.3762 23.8636 14.9996 23.8636C14.6231 23.8636 14.3178 23.5583 14.3178 23.1818C14.3178 22.8053 14.6231 22.5 14.9996 22.5ZM14.9996 19.7727C16.1288 19.7715 17.0439 18.8565 17.0451 17.7273C17.0451 16.5976 16.1293 15.6818 14.9996 15.6818C13.87 15.6818 12.9542 16.5976 12.9542 17.7273C12.9542 18.857 13.87 19.7727 14.9996 19.7727ZM14.9996 17.0455C15.3759 17.0462 15.6807 17.351 15.6815 17.7273C15.6815 18.1038 15.3762 18.4091 14.9996 18.4091C14.6231 18.4091 14.3178 18.1038 14.3178 17.7273C14.3178 17.3507 14.6231 17.0455 14.9996 17.0455ZM8.18146 19.7727C9.31064 19.7715 10.2257 18.8565 10.2269 17.7273C10.2269 16.5976 9.31114 15.6818 8.18146 15.6818C7.05179 15.6818 6.13601 16.5976 6.13601 17.7273C6.13601 18.857 7.05179 19.7727 8.18146 19.7727ZM8.18146 17.0455C8.55774 17.0462 8.86253 17.351 8.86328 17.7273C8.86328 18.1038 8.55799 18.4091 8.18146 18.4091C7.80493 18.4091 7.49964 18.1038 7.49964 17.7273C7.49964 17.3507 7.80493 17.0455 8.18146 17.0455Z" fill="white"/>
</svg>
