<svg width="38" height="40" viewBox="0 0 38 40" fill="none" xmlns="http://www.w3.org/2000/svg">
<path d="M28.0852 33.6364C29.5908 33.6347 30.8108 32.4147 30.8125 30.9091C30.8125 29.4029 29.5915 28.1818 28.0852 28.1818C26.579 28.1818 25.358 29.4029 25.358 30.9091C25.358 32.4153 26.579 33.6364 28.0852 33.6364ZM28.0852 30C28.5869 30.001 28.9933 30.4074 28.9943 30.9091C28.9943 31.4111 28.5873 31.8182 28.0852 31.8182C27.5832 31.8182 27.1761 31.4111 27.1761 30.9091C27.1761 30.407 27.5832 30 28.0852 30ZM28.0852 26.3636C29.5908 26.362 30.8108 25.1419 30.8125 23.6364C30.8125 22.1301 29.5915 20.9091 28.0852 20.9091C26.579 20.9091 25.358 22.1301 25.358 23.6364C25.358 25.1426 26.579 26.3636 28.0852 26.3636ZM28.0852 22.7273C28.5869 22.7283 28.9933 23.1347 28.9943 23.6364C28.9943 24.1384 28.5873 24.5455 28.0852 24.5455C27.5832 24.5455 27.1761 24.1384 27.1761 23.6364C27.1761 23.1343 27.5832 22.7273 28.0852 22.7273ZM32.6307 3.63636H28.9943V0.909091C28.9943 0.407049 28.5873 0 28.0852 0C27.5832 0 27.1761 0.407049 27.1761 0.909091V3.63636H10.8125V0.909091C10.8125 0.407049 10.4055 0 9.90341 0C9.40137 0 8.99432 0.407049 8.99432 0.909091V3.63636H5.35795C2.84852 3.63869 0.81483 5.67239 0.8125 8.18182V35.4545C0.81483 37.964 2.84852 39.9977 5.35795 40H32.6307C35.1401 39.9977 37.1738 37.964 37.1761 35.4545V8.18182C37.1738 5.67239 35.1401 3.63869 32.6307 3.63636ZM35.358 35.4545C35.3563 36.9601 34.1363 38.1802 32.6307 38.1818H5.35795C3.85238 38.1802 2.63235 36.9601 2.63068 35.4545V16.3636H35.358V35.4545ZM35.358 14.5455H2.63068V8.18182C2.63235 6.67625 3.85238 5.45621 5.35795 5.45455H8.99432V8.18182C8.99432 8.18215 8.99432 8.18248 8.99432 8.18293C8.99465 8.68464 9.40159 9.09124 9.90341 9.09091C9.90374 9.09091 9.90407 9.09091 9.90452 9.09091C10.4062 9.09058 10.8128 8.68364 10.8125 8.18182V5.45455H27.1761V8.18182C27.1761 8.18215 27.1761 8.18248 27.1761 8.18293C27.1765 8.68464 27.5834 9.09124 28.0852 9.09091C28.0856 9.09091 28.0859 9.09091 28.0863 9.09091C28.588 9.09058 28.9946 8.68364 28.9943 8.18182V5.45455H32.6307C34.1363 5.45621 35.3563 6.67625 35.358 8.18182V14.5455ZM9.90341 33.6364C11.409 33.6347 12.629 32.4147 12.6307 30.9091C12.6307 29.4029 11.4096 28.1818 9.90341 28.1818C8.39717 28.1818 7.17614 29.4029 7.17614 30.9091C7.17614 32.4153 8.39717 33.6364 9.90341 33.6364ZM9.90341 30C10.4051 30.001 10.8115 30.4074 10.8125 30.9091C10.8125 31.4111 10.4055 31.8182 9.90341 31.8182C9.40137 31.8182 8.99432 31.4111 8.99432 30.9091C8.99432 30.407 9.40137 30 9.90341 30ZM18.9943 33.6364C20.4999 33.6347 21.7199 32.4147 21.7216 30.9091C21.7216 29.4029 20.5006 28.1818 18.9943 28.1818C17.4881 28.1818 16.267 29.4029 16.267 30.9091C16.267 32.4153 17.4881 33.6364 18.9943 33.6364ZM18.9943 30C19.496 30.001 19.9024 30.4074 19.9034 30.9091C19.9034 31.4111 19.4964 31.8182 18.9943 31.8182C18.4923 31.8182 18.0852 31.4111 18.0852 30.9091C18.0852 30.407 18.4923 30 18.9943 30ZM18.9943 26.3636C20.4999 26.362 21.7199 25.1419 21.7216 23.6364C21.7216 22.1301 20.5006 20.9091 18.9943 20.9091C17.4881 20.9091 16.267 22.1301 16.267 23.6364C16.267 25.1426 17.4881 26.3636 18.9943 26.3636ZM18.9943 22.7273C19.496 22.7283 19.9024 23.1347 19.9034 23.6364C19.9034 24.1384 19.4964 24.5455 18.9943 24.5455C18.4923 24.5455 18.0852 24.1384 18.0852 23.6364C18.0852 23.1343 18.4923 22.7273 18.9943 22.7273ZM9.90341 26.3636C11.409 26.362 12.629 25.1419 12.6307 23.6364C12.6307 22.1301 11.4096 20.9091 9.90341 20.9091C8.39717 20.9091 7.17614 22.1301 7.17614 23.6364C7.17614 25.1426 8.39717 26.3636 9.90341 26.3636ZM9.90341 22.7273C10.4051 22.7283 10.8115 23.1347 10.8125 23.6364C10.8125 24.1384 10.4055 24.5455 9.90341 24.5455C9.40137 24.5455 8.99432 24.1384 8.99432 23.6364C8.99432 23.1343 9.40137 22.7273 9.90341 22.7273Z" fill="#FF3D54"/>
</svg>
