<svg width="17" height="17" viewBox="0 0 17 17" fill="none" xmlns="http://www.w3.org/2000/svg">
<path d="M8.5 6.79995C8.16513 6.79995 7.83354 6.86591 7.52416 6.99406C7.21478 7.12221 6.93367 7.31004 6.69688 7.54683C6.46009 7.78362 6.27226 8.06473 6.14411 8.37411C6.01596 8.68349 5.95 9.01508 5.95 9.34995C5.95 9.68482 6.01596 10.0164 6.14411 10.3258C6.27226 10.6352 6.46009 10.9163 6.69688 11.1531C6.93367 11.3899 7.21478 11.5777 7.52416 11.7058C7.83354 11.834 8.16513 11.9 8.5 11.9C9.1763 11.9 9.82491 11.6313 10.3031 11.1531C10.7813 10.6749 11.05 10.0263 11.05 9.34995C11.05 8.67365 10.7813 8.02505 10.3031 7.54683C9.82491 7.06861 9.1763 6.79995 8.5 6.79995ZM15.3 4.24995H13.26C13.1132 4.24325 12.9715 4.19384 12.8524 4.10777C12.7332 4.02171 12.6418 3.90273 12.5894 3.76545L12.0615 2.1836C12.0086 2.04647 11.917 1.92771 11.7977 1.84182C11.6785 1.75593 11.5368 1.70663 11.39 1.69995H5.61C5.3295 1.69995 5.0269 1.91755 4.93935 2.18275L4.41065 3.76545C4.35808 3.90267 4.26664 4.02159 4.14752 4.10764C4.02841 4.19369 3.88679 4.24315 3.74 4.24995H1.7C0.765 4.24995 0 5.01495 0 5.94995V13.6C0 14.535 0.765 15.3 1.7 15.3H15.3C16.235 15.3 17 14.535 17 13.6V5.94995C17 5.01495 16.235 4.24995 15.3 4.24995ZM8.5 13.6C7.37283 13.6 6.29183 13.1522 5.4948 12.3552C4.69777 11.5581 4.25 10.4771 4.25 9.34995C4.25 8.22278 4.69777 7.14178 5.4948 6.34475C6.29183 5.54772 7.37283 5.09995 8.5 5.09995C9.62717 5.09995 10.7082 5.54772 11.5052 6.34475C12.3022 7.14178 12.75 8.22278 12.75 9.34995C12.75 10.4771 12.3022 11.5581 11.5052 12.3552C10.7082 13.1522 9.62717 13.6 8.5 13.6ZM14.875 6.96995C14.7172 6.96995 14.5659 6.90726 14.4543 6.79568C14.3427 6.6841 14.28 6.53275 14.28 6.37495C14.28 6.21715 14.3427 6.06581 14.4543 5.95422C14.5659 5.84264 14.7172 5.77995 14.875 5.77995C15.0328 5.77995 15.1841 5.84264 15.2957 5.95422C15.4073 6.06581 15.47 6.21715 15.47 6.37495C15.47 6.53275 15.4073 6.6841 15.2957 6.79568C15.1841 6.90726 15.0328 6.96995 14.875 6.96995Z" fill="#FF3D54"/>
</svg>
