<svg width="26" height="26" viewBox="0 0 26 26" fill="none" xmlns="http://www.w3.org/2000/svg">
<path fill-rule="evenodd" clip-rule="evenodd" d="M0.210938 0.812891C0.210938 0.48152 0.479567 0.212891 0.810938 0.212891H5.97031C6.30168 0.212891 6.57031 0.48152 6.57031 0.812891V5.97227C6.57031 6.30364 6.30168 6.57227 5.97031 6.57227H0.810938C0.479567 6.57227 0.210938 6.30364 0.210938 5.97227V0.812891ZM1.41094 1.41289V5.37226H5.37031V1.41289H1.41094Z" fill="#FF3D54"/>
<path fill-rule="evenodd" clip-rule="evenodd" d="M9.81875 0.812891C9.81875 0.48152 10.0874 0.212891 10.4187 0.212891H15.5781C15.9095 0.212891 16.1781 0.48152 16.1781 0.812891V5.97227C16.1781 6.30364 15.9095 6.57227 15.5781 6.57227H10.4187C10.0874 6.57227 9.81875 6.30364 9.81875 5.97227V0.812891ZM11.0187 1.41289V5.37226H14.9781V1.41289H11.0187Z" fill="#FF3D54"/>
<path fill-rule="evenodd" clip-rule="evenodd" d="M19.4266 0.812891C19.4266 0.48152 19.6952 0.212891 20.0266 0.212891H25.1859C25.5173 0.212891 25.7859 0.48152 25.7859 0.812891V5.97227C25.7859 6.30364 25.5173 6.57227 25.1859 6.57227H20.0266C19.6952 6.57227 19.4266 6.30364 19.4266 5.97227V0.812891ZM20.6266 1.41289V5.37226H24.5859V1.41289H20.6266Z" fill="#FF3D54"/>
<path fill-rule="evenodd" clip-rule="evenodd" d="M0.210938 10.4208C0.210938 10.0894 0.479567 9.8208 0.810938 9.8208H5.97031C6.30168 9.8208 6.57031 10.0894 6.57031 10.4208V15.5802C6.57031 15.9115 6.30168 16.1802 5.97031 16.1802H0.810938C0.479567 16.1802 0.210938 15.9115 0.210938 15.5802V10.4208ZM1.41094 11.0208V14.9802H5.37031V11.0208H1.41094Z" fill="#FF3D54"/>
<path fill-rule="evenodd" clip-rule="evenodd" d="M9.81875 10.4208C9.81875 10.0894 10.0874 9.8208 10.4187 9.8208H15.5781C15.9095 9.8208 16.1781 10.0894 16.1781 10.4208V15.5802C16.1781 15.9115 15.9095 16.1802 15.5781 16.1802H10.4187C10.0874 16.1802 9.81875 15.9115 9.81875 15.5802V10.4208ZM11.0187 11.0208V14.9802H14.9781V11.0208H11.0187Z" fill="#FF3D54"/>
<path fill-rule="evenodd" clip-rule="evenodd" d="M19.4266 10.4208C19.4266 10.0894 19.6952 9.8208 20.0266 9.8208H25.1859C25.5173 9.8208 25.7859 10.0894 25.7859 10.4208V15.5802C25.7859 15.9115 25.5173 16.1802 25.1859 16.1802H20.0266C19.6952 16.1802 19.4266 15.9115 19.4266 15.5802V10.4208ZM20.6266 11.0208V14.9802H24.5859V11.0208H20.6266Z" fill="#FF3D54"/>
<path fill-rule="evenodd" clip-rule="evenodd" d="M0.210938 20.0285C0.210938 19.6971 0.479567 19.4285 0.810938 19.4285H5.97031C6.30168 19.4285 6.57031 19.6971 6.57031 20.0285V25.1878C6.57031 25.5192 6.30168 25.7878 5.97031 25.7878H0.810938C0.479567 25.7878 0.210938 25.5192 0.210938 25.1878V20.0285ZM1.41094 20.6285V24.5878H5.37031V20.6285H1.41094Z" fill="#FF3D54"/>
<path fill-rule="evenodd" clip-rule="evenodd" d="M9.81875 20.0285C9.81875 19.6971 10.0874 19.4285 10.4187 19.4285H15.5781C15.9095 19.4285 16.1781 19.6971 16.1781 20.0285V25.1878C16.1781 25.5192 15.9095 25.7878 15.5781 25.7878H10.4187C10.0874 25.7878 9.81875 25.5192 9.81875 25.1878V20.0285ZM11.0187 20.6285V24.5878H14.9781V20.6285H11.0187Z" fill="#FF3D54"/>
<path fill-rule="evenodd" clip-rule="evenodd" d="M19.4266 20.0285C19.4266 19.6971 19.6952 19.4285 20.0266 19.4285H25.1859C25.5173 19.4285 25.7859 19.6971 25.7859 20.0285V25.1878C25.7859 25.5192 25.5173 25.7878 25.1859 25.7878H20.0266C19.6952 25.7878 19.4266 25.5192 19.4266 25.1878V20.0285ZM20.6266 20.6285V24.5878H24.5859V20.6285H20.6266Z" fill="#FF3D54"/>
</svg>
