<svg width="12" height="6" viewBox="0 0 12 6" fill="none" xmlns="http://www.w3.org/2000/svg">
<path fill-rule="evenodd" clip-rule="evenodd" d="M0.17489 0.199917C-0.0591107 0.420826 -0.0591107 0.778101 0.17489 0.998465L5.13338 5.66919C5.24268 5.77375 5.37401 5.857 5.51981 5.91389C5.66561 5.97078 5.82287 6.0001 5.98153 6.0001C6.14019 6.0001 6.29716 5.97078 6.44295 5.91389C6.58875 5.857 6.72008 5.77375 6.82938 5.66919L11.8245 0.964649C11.9361 0.857878 11.9989 0.716484 12 0.569183C12.0011 0.421881 11.9404 0.279709 11.8304 0.171552C11.776 0.117973 11.7103 0.0751075 11.637 0.0456008C11.5637 0.016094 11.4845 0.000578307 11.4044 1.58362e-05C11.3242 -0.000546635 11.245 0.0138552 11.1712 0.0423298C11.0974 0.0708045 11.0307 0.112741 10.9755 0.165551L6.40516 4.47137C6.35051 4.52369 6.28473 4.56535 6.2118 4.59382C6.13888 4.62228 6.0606 4.63698 5.98124 4.63698C5.90187 4.63698 5.8233 4.62228 5.75038 4.59382C5.67745 4.56535 5.61167 4.52369 5.55702 4.47137L1.02274 0.199917C0.968141 0.147613 0.902258 0.105965 0.829381 0.0775023C0.756505 0.0490392 0.678133 0.034356 0.598815 0.034356C0.519497 0.034356 0.441126 0.0490391 0.368249 0.0775023C0.295372 0.105965 0.229489 0.147613 0.17489 0.199917Z" fill="#FF3D54"/>
</svg>
