<svg width="50" height="50" viewBox="0 0 50 50" fill="none" xmlns="http://www.w3.org/2000/svg">
<path d="M48.5386 15.0176C48.5386 12.2608 46.2954 10.0176 43.5386 10.0176H6.46143C3.70463 10.0176 1.46143 12.2608 1.46143 15.0176V34.9824C1.46143 37.7393 3.70463 39.9824 6.46143 39.9824H43.5386C46.2954 39.9824 48.5386 37.7393 48.5386 34.9824V15.0176ZM46.5386 34.9824C46.5386 36.6367 45.1929 37.9824 43.5386 37.9824H6.46143C4.80713 37.9824 3.46143 36.6367 3.46143 34.9824V15.0176C3.46143 13.3633 4.80713 12.0176 6.46143 12.0176H43.5386C45.1929 12.0176 46.5386 13.3633 46.5386 15.0176V34.9824Z" fill="#FF3D54"/>
<path d="M17.4488 14.3701C16.4978 14.3701 15.5986 14.5875 14.7889 14.9656C13.9586 14.5806 13.0537 14.3682 12.1333 14.3682C8.65478 14.3682 5.82568 17.2041 5.82568 20.6895C5.82568 24.168 8.65478 26.9971 12.1333 26.9971C13.053 26.9971 13.9558 26.7857 14.784 26.4022C15.5949 26.7817 16.4958 27 17.4488 27C20.9302 27 23.7632 24.167 23.7632 20.6856C23.7632 17.2031 20.9302 14.3701 17.4488 14.3701ZM7.82568 20.6895C7.82568 18.3066 9.75828 16.3682 12.1333 16.3682C12.3604 16.3682 12.5822 16.3904 12.8013 16.4241C11.7692 17.5488 11.1333 19.0424 11.1333 20.6856C11.1333 22.3262 11.7678 23.818 12.7976 24.942C12.5798 24.9753 12.3591 24.9971 12.1333 24.9971C9.75828 24.9971 7.82568 23.0645 7.82568 20.6895ZM17.4488 25C15.0689 25 13.1333 23.0645 13.1333 20.6856C13.1333 18.3057 15.0689 16.3701 17.4488 16.3701C19.8277 16.3701 21.7632 18.3057 21.7632 20.6856C21.7632 23.0645 19.8277 25 17.4488 25ZM22.7632 31.6914H7.31398C6.76128 31.6914 6.31398 32.1387 6.31398 32.6914C6.31398 33.2441 6.76128 33.6914 7.31398 33.6914H22.7632C23.3159 33.6914 23.7632 33.2441 23.7632 32.6914C23.7632 32.1387 23.3159 31.6914 22.7632 31.6914ZM41.147 26.7744H31.314C30.7613 26.7744 30.314 27.2217 30.314 27.7744C30.314 28.3272 30.7613 28.7744 31.314 28.7744H41.147C41.6997 28.7744 42.147 28.3272 42.147 27.7744C42.147 27.2217 41.6997 26.7744 41.147 26.7744ZM41.147 31.6914H31.314C30.7613 31.6914 30.314 32.1387 30.314 32.6914C30.314 33.2441 30.7613 33.6914 31.314 33.6914H41.147C41.6997 33.6914 42.147 33.2441 42.147 32.6914C42.147 32.1387 41.6997 31.6914 41.147 31.6914Z" fill="#FF3D54"/>
</svg>
