<svg width="40" height="40" viewBox="0 0 40 40" fill="none" xmlns="http://www.w3.org/2000/svg">
<path d="M23.7642 13.5969C23.7642 14.2247 23.7642 14.8525 23.7642 15.4802C23.7642 16.9869 23.7642 18.4936 23.7642 20.0045C23.7642 21.8209 23.7642 23.6373 23.7642 25.4537C23.7642 27.0274 23.7642 28.6052 23.7642 30.1789C23.7642 30.9406 23.7308 31.7107 23.7642 32.4682C23.7642 32.4808 23.7642 32.4892 23.7642 32.5017C24.0447 32.2213 24.3209 31.9451 24.6013 31.6647C23.1951 31.6647 21.7888 31.6647 20.3826 31.6647C18.1351 31.6647 15.8834 31.6647 13.6359 31.6647C13.1211 31.6647 12.6063 31.6647 12.0957 31.6647C12.3761 31.9451 12.6524 32.2213 12.9328 32.5017C12.916 30.7021 11.7818 29.1326 10.1035 28.5132C8.50475 27.923 6.57952 28.4462 5.49135 29.7562C4.84264 30.5347 4.4827 31.4847 4.47433 32.5017C4.75475 32.2213 5.03097 31.9451 5.31139 31.6647C4.41993 31.6647 3.52428 31.6647 2.63281 31.6647C2.61189 31.6647 2.25195 31.6856 2.2394 31.6605C2.24777 31.6772 2.43192 31.6982 2.26451 31.6563C2.24777 31.6521 2.13058 31.627 2.13058 31.6186C2.16406 31.6312 2.19336 31.6479 2.22684 31.6605C2.19336 31.6437 2.15988 31.627 2.1264 31.6103C2.09291 31.5935 2.06362 31.5726 2.03014 31.5517C1.8711 31.4638 2.14732 31.6814 2.02595 31.5475C2.00502 31.5224 1.97573 31.4931 1.94643 31.468C1.8125 31.3466 2.03014 31.6228 1.94224 31.4638C1.91295 31.4094 1.88365 31.3466 1.84598 31.2964C1.78739 31.2127 1.89202 31.4847 1.85854 31.3131C1.85435 31.3006 1.80832 31.1541 1.82087 31.1499C1.80832 31.1541 1.83343 31.355 1.82924 31.1415C1.82924 31.1331 1.82924 31.129 1.82924 31.1206C1.82924 31.0787 1.82924 31.0327 1.82924 30.9908C1.82924 29.5679 1.82924 28.1449 1.82924 26.7219C1.82924 24.3907 1.82924 22.0595 1.82924 19.7283C1.82924 17.937 1.82924 16.1415 1.82924 14.3502C1.82924 14.1535 1.82924 13.9526 1.82924 13.7559C1.82924 13.7099 1.82924 13.6638 1.82924 13.622C1.82924 13.6136 1.82924 13.6052 1.82924 13.5927C1.82924 13.5718 1.82924 13.5425 1.82924 13.5299C1.82924 13.3583 1.82924 13.5843 1.81669 13.5801C1.80832 13.5759 1.86272 13.3625 1.87528 13.3625C1.88784 13.3625 1.79157 13.5215 1.85435 13.4085C1.88365 13.3625 1.90876 13.3123 1.93806 13.2662C2.02176 13.1198 1.8418 13.3374 1.9255 13.283C1.95899 13.2621 1.99665 13.2118 2.02176 13.1867C2.14314 13.0528 1.86691 13.2704 2.02595 13.1825C2.05943 13.1658 2.08873 13.1449 2.12221 13.1239C2.13895 13.1156 2.15569 13.1072 2.17243 13.0988C2.25614 13.0612 2.2394 13.0653 2.1264 13.1198C2.1264 13.1072 2.26451 13.0821 2.28962 13.0737C2.46959 13.0193 2.10547 13.0695 2.29381 13.0737C2.30636 13.0737 2.33566 13.0737 2.35659 13.0737C2.37333 13.0737 2.38588 13.0737 2.40262 13.0737C2.48214 13.0737 2.55748 13.0737 2.637 13.0737C3.18108 13.0737 3.72099 13.0737 4.26507 13.0737C4.39063 13.0737 4.512 13.0737 4.63756 13.0737C4.35715 12.7933 4.08092 12.5171 3.80051 12.2367C3.80051 14.0614 4.35296 15.8946 5.40765 17.3845C6.48745 18.9122 7.97322 20.0589 9.72266 20.7118C13.2216 22.0176 17.3733 20.8876 19.7296 17.9872C21.0564 16.355 21.7972 14.3419 21.7972 12.2325C21.5168 12.5129 21.2405 12.7891 20.9601 13.0695C21.5544 13.0695 22.1446 13.0695 22.7389 13.0695C22.8686 13.0695 23.0025 13.0695 23.1323 13.0695C23.1658 13.0695 23.1951 13.0695 23.2285 13.0695C23.2327 13.0695 23.2411 13.0695 23.2453 13.0695C23.2746 13.0695 23.3039 13.0695 23.3332 13.0737C23.4001 13.0779 23.3708 13.0737 23.2536 13.0612C23.2578 13.0528 23.4713 13.1114 23.4713 13.1198C23.3666 13.0737 23.3415 13.0612 23.4001 13.0905C23.4252 13.103 23.4504 13.1156 23.4755 13.1281C23.5089 13.1449 23.5382 13.1658 23.5717 13.1867C23.6471 13.2369 23.6345 13.2286 23.5341 13.1532C23.5466 13.1449 23.6345 13.2495 23.6512 13.2662C23.7098 13.3332 23.7015 13.3206 23.6261 13.2244C23.6471 13.2537 23.668 13.283 23.6847 13.3165C23.6931 13.3332 23.7726 13.442 23.7601 13.4629C23.714 13.3499 23.7057 13.3332 23.735 13.4211C23.7475 13.4588 23.7559 13.4922 23.7642 13.5299C23.781 13.622 23.781 13.6052 23.7601 13.4755C23.7642 13.5215 23.7642 13.5592 23.7642 13.5969C23.7726 14.0363 24.1409 14.4549 24.6013 14.4339C25.0449 14.413 25.4467 14.0656 25.4384 13.5969C25.4216 12.7807 24.9738 11.9897 24.2204 11.6382C23.8019 11.4415 23.3834 11.408 22.9356 11.408C22.2785 11.408 21.6214 11.408 20.9601 11.408C20.5081 11.408 20.1231 11.793 20.1231 12.245C20.1231 12.4292 20.1189 12.6133 20.1063 12.7975C20.1021 12.8937 20.0938 12.99 20.0812 13.0863C20.077 13.1449 20.0687 13.1993 20.0603 13.2579C20.0394 13.4588 20.0938 13.0653 20.0603 13.2621C19.9933 13.6722 19.9054 14.0782 19.7841 14.4758C19.7213 14.6725 19.6543 14.865 19.579 15.0533C19.5748 15.0659 19.5539 15.1412 19.5371 15.158C19.5497 15.1245 19.5664 15.091 19.579 15.0617C19.5664 15.0952 19.5497 15.1287 19.5329 15.1622C19.4869 15.2626 19.4409 15.3631 19.3906 15.4635C19.2107 15.8234 19.0056 16.175 18.7754 16.5056C18.7252 16.581 18.6666 16.6521 18.6164 16.7275C18.5034 16.8823 18.7336 16.581 18.6122 16.7316C18.5787 16.7735 18.5452 16.8153 18.5075 16.8614C18.382 17.0162 18.2481 17.1669 18.1099 17.3134C17.976 17.4515 17.8421 17.5854 17.6998 17.7152C17.5617 17.8407 17.3901 18.0416 17.2185 18.1211C17.3985 18.0374 17.2687 18.0793 17.2143 18.1211C17.185 18.1421 17.1557 18.163 17.1264 18.1839C17.0427 18.2425 16.9632 18.3011 16.8795 18.3555C16.7037 18.4727 16.5237 18.5815 16.3396 18.6862C16.1805 18.7741 16.0131 18.8578 15.8499 18.9373C15.7997 18.9624 15.7495 18.9833 15.6992 19.0084C15.6825 19.0168 15.6657 19.0252 15.649 19.0294C15.5653 19.067 15.582 19.0586 15.695 19.0084C15.6365 19.0712 15.4607 19.1005 15.3853 19.1298C14.9961 19.2721 14.5985 19.3851 14.1925 19.4646C14.1005 19.4814 14.0042 19.5023 13.9121 19.5148C13.8745 19.519 13.7782 19.5525 13.7405 19.54C13.7489 19.5441 13.9498 19.5148 13.7907 19.5316C13.5606 19.5567 13.3304 19.5776 13.096 19.586C12.6649 19.6027 12.2422 19.5776 11.8153 19.5316C11.7149 19.519 11.7818 19.5651 11.8655 19.54C11.8279 19.5525 11.7358 19.519 11.6939 19.5148C11.6019 19.4981 11.5056 19.4814 11.4135 19.4646C11.2001 19.4228 10.9908 19.3725 10.7815 19.3098C10.5932 19.2554 10.4049 19.1968 10.2207 19.1298C10.1328 19.0963 10.0491 19.0628 9.96122 19.0294C9.77707 18.9582 10.1328 19.1089 9.95704 19.0294C9.89845 19.0042 9.83985 18.9749 9.78126 18.9498C9.42132 18.7824 9.07813 18.5899 8.7475 18.3723C8.65542 18.3137 8.56334 18.2509 8.47545 18.1839C8.44616 18.163 8.41686 18.1421 8.38756 18.1211C8.32897 18.0793 8.19923 18.0333 8.38338 18.1211C8.21597 18.0416 8.05693 17.8575 7.923 17.7319C7.62584 17.4641 7.34543 17.1711 7.09431 16.8614C7.06083 16.8195 7.02735 16.7777 6.98968 16.7316C6.87668 16.5935 7.08176 16.8614 6.9855 16.7275C6.91435 16.6312 6.84738 16.5349 6.77623 16.4387C6.64649 16.2503 6.52512 16.0536 6.41211 15.8569C6.3033 15.6644 6.20285 15.4677 6.11077 15.2668C6.08566 15.2166 6.06474 15.1663 6.04381 15.1161C5.96429 14.9362 6.11496 15.2919 6.04381 15.1119C6.00196 15.0073 5.96429 14.9027 5.92662 14.798C5.76758 14.3544 5.65039 13.8982 5.57088 13.4336C5.5625 13.3792 5.55413 13.3206 5.54576 13.2662C5.51647 13.0946 5.56669 13.4462 5.54576 13.2621C5.53321 13.1491 5.52065 13.0319 5.51228 12.9189C5.49554 12.697 5.48717 12.4752 5.48717 12.2534C5.48717 11.8014 5.10212 11.4163 4.65012 11.4163C4.21485 11.4163 3.77958 11.4163 3.34013 11.4163C2.84208 11.4163 2.28962 11.3619 1.79995 11.4917C0.837333 11.7428 0.188616 12.6384 0.171875 13.6178C0.171875 13.7224 0.171875 13.8312 0.171875 13.9359C0.171875 15.5723 0.171875 17.2046 0.171875 18.841C0.171875 21.2434 0.171875 23.6415 0.171875 26.0439C0.171875 27.651 0.171875 29.2581 0.171875 30.8653C0.171875 30.9615 0.171875 31.062 0.171875 31.1583C0.188616 32.1878 0.925224 33.1463 1.96736 33.3137C2.40681 33.3848 2.863 33.3555 3.30664 33.3555C3.86747 33.3555 4.4283 33.3555 4.98494 33.3555C5.09375 33.3555 5.20257 33.3555 5.31557 33.3555C5.77177 33.3555 6.14844 32.9705 6.15263 32.5185C6.15263 32.4306 6.15681 32.3427 6.161 32.2548C6.16518 32.2171 6.16937 32.1795 6.17355 32.1376C6.18192 32.0204 6.14426 32.305 6.16518 32.1878C6.19867 32.0204 6.23215 31.8572 6.28656 31.694C6.3033 31.6479 6.33678 31.4847 6.37445 31.4596C6.37026 31.4638 6.28656 31.6479 6.35771 31.5056C6.37445 31.4722 6.39119 31.4387 6.40793 31.4052C6.48326 31.2587 6.56697 31.1164 6.66323 30.9825C6.67579 30.9616 6.71345 30.903 6.7302 30.8946C6.72601 30.8988 6.59627 31.0494 6.7009 30.9364C6.75112 30.882 6.79716 30.8276 6.84738 30.7732C6.89761 30.7188 6.95201 30.6686 7.00224 30.6184C7.03572 30.5891 7.0692 30.5598 7.10687 30.5263C7.21569 30.43 7.11105 30.4844 7.08594 30.5388C7.10687 30.4928 7.22406 30.4384 7.26591 30.4133C7.33287 30.3672 7.40402 30.3254 7.47936 30.2835C7.54214 30.2459 7.6091 30.2166 7.67607 30.1831C7.68444 30.1789 7.69281 30.1747 7.70118 30.1705C7.78488 30.1329 7.76814 30.1412 7.65514 30.1873C7.67188 30.1622 7.75559 30.1454 7.78488 30.1371C7.93555 30.0826 8.09041 30.0408 8.24526 30.0073C8.28293 29.9989 8.3206 29.9948 8.35826 29.9864C8.47545 29.9655 8.33734 29.9613 8.30804 29.9906C8.34989 29.9529 8.53823 29.9696 8.59683 29.9696C8.75587 29.9655 8.91072 29.9738 9.06558 29.9864C9.21625 29.9989 9.03628 29.9864 9.01535 29.978C9.04465 29.9906 9.09487 29.9906 9.12836 29.9989C9.22043 30.0157 9.31251 30.0366 9.40458 30.0617C9.47573 30.0826 9.54688 30.1036 9.61803 30.1287C9.65151 30.1412 9.68918 30.1538 9.72266 30.1664C9.89845 30.2291 9.59711 30.0994 9.70174 30.158C9.84822 30.2375 9.99889 30.3045 10.137 30.3965C10.1998 30.4384 10.2584 30.4802 10.317 30.5221C10.409 30.5849 10.204 30.4133 10.2751 30.4928C10.3044 30.5263 10.3463 30.5514 10.3798 30.5807C10.5053 30.6895 10.6099 30.8109 10.7229 30.9364C10.7899 31.0118 10.7606 30.9323 10.6936 30.8946C10.7229 30.9113 10.7564 30.9783 10.7732 31.0076C10.8276 31.0829 10.8736 31.1583 10.9197 31.2378C10.9615 31.3089 10.9992 31.3843 11.0368 31.4554C11.0368 31.4512 11.0871 31.5475 11.0829 31.5559C11.0368 31.4429 11.0285 31.4261 11.062 31.5098C11.0703 31.5266 11.0745 31.5433 11.0829 31.56C11.1498 31.7358 11.2001 31.92 11.2335 32.1041C11.2419 32.1376 11.2419 32.1878 11.2545 32.2171C11.2252 32.1418 11.2377 32.0623 11.2503 32.1962C11.2587 32.305 11.2628 32.4097 11.267 32.5185C11.2712 32.9705 11.6479 33.3555 12.1041 33.3555C13.5103 33.3555 14.9166 33.3555 16.3228 33.3555C18.5703 33.3555 20.822 33.3555 23.0695 33.3555C23.5843 33.3555 24.0991 33.3555 24.6097 33.3555C25.0617 33.3555 25.4467 32.9705 25.4467 32.5185C25.4467 31.8907 25.4467 31.2629 25.4467 30.6351C25.4467 29.1284 25.4467 27.6217 25.4467 26.1108C25.4467 24.2944 25.4467 22.478 25.4467 20.6616C25.4467 19.0879 25.4467 17.5101 25.4467 15.9364C25.4467 15.1747 25.4677 14.4088 25.4467 13.6471C25.4467 13.6345 25.4467 13.6262 25.4467 13.6136C25.4467 13.1742 25.0617 12.7556 24.6097 12.7766C24.1493 12.7807 23.7642 13.1281 23.7642 13.5969Z" fill="#FF3D54"/>
<path d="M38.1618 25.6541C38.1618 26.9097 38.1618 28.1653 38.1618 29.4251C38.1618 29.9817 38.166 30.5342 38.1618 31.0908C38.1618 31.1075 38.1618 31.1243 38.1618 31.141C38.1618 31.1452 38.1618 31.1494 38.1618 31.1494C38.1618 31.1703 38.1618 31.2164 38.1618 31.208C38.1618 31.3628 38.1953 31.0908 38.166 31.1871C38.1576 31.2122 38.1325 31.3796 38.1158 31.3796C38.1074 31.3796 38.2162 31.1912 38.1367 31.3335C38.12 31.367 38.1032 31.4005 38.0823 31.4298C38.0697 31.4507 38.0488 31.4758 38.0363 31.501C37.9986 31.593 38.1451 31.4089 38.0656 31.4591C38.0446 31.4717 38.0279 31.501 38.0112 31.5177C37.9902 31.5386 37.9735 31.5554 37.9526 31.5721C37.9065 31.614 37.9275 31.5972 38.0153 31.5261C38.0195 31.5428 37.8605 31.6223 37.8521 31.6265C37.8437 31.6307 37.7852 31.6684 37.7768 31.6642C37.7684 31.66 37.9484 31.6056 37.8186 31.6391C37.7852 31.6474 37.7433 31.6558 37.7098 31.6684C37.6094 31.6977 37.6763 31.6265 37.7642 31.6642C37.7391 31.6516 37.6721 31.6684 37.6429 31.6684C37.5591 31.6684 37.4754 31.6684 37.3959 31.6684C36.6802 31.6684 35.9604 31.6684 35.2447 31.6684C35.5251 31.9488 35.8013 32.225 36.0817 32.5054C36.065 30.7057 34.9308 29.1363 33.2525 28.5168C31.6537 27.9267 29.7285 28.4499 28.6403 29.7599C27.9916 30.5383 27.6317 31.4884 27.6233 32.5054C27.9037 32.225 28.18 31.9488 28.4604 31.6684C27.3387 31.6684 26.2213 31.6684 25.0996 31.6684C24.9364 31.6684 24.7732 31.6684 24.6099 31.6684C24.8903 31.9488 25.1666 32.225 25.447 32.5054C25.447 32.0116 25.447 31.5219 25.447 31.028C25.447 29.8478 25.447 28.6633 25.447 27.4831C25.447 26.0517 25.447 24.6245 25.447 23.1932C25.447 21.9585 25.447 20.7197 25.447 19.485C25.447 18.8865 25.4721 18.2797 25.447 17.677C25.447 17.6686 25.447 17.6602 25.447 17.6519C25.1666 17.9323 24.8903 18.2085 24.6099 18.4889C25.606 18.4889 26.6021 18.4889 27.5982 18.4889C28.9542 18.4889 30.3103 18.4889 31.6663 18.4889C31.7751 18.4889 31.8839 18.4889 31.9927 18.4889C32.0388 18.4889 32.0848 18.4931 32.1309 18.4931C32.2815 18.4973 31.9886 18.4596 32.1936 18.5057C32.2229 18.514 32.2564 18.5224 32.2857 18.5308C32.3108 18.5391 32.4824 18.5894 32.3652 18.5517C32.269 18.5224 32.361 18.5475 32.382 18.5601C32.4196 18.581 32.4573 18.5977 32.495 18.6187C32.5243 18.6354 32.7042 18.7652 32.6205 18.6982C32.5368 18.6312 32.6247 18.7024 32.6331 18.7149C32.6624 18.7442 32.6959 18.7735 32.7252 18.8028C32.7545 18.8363 32.7838 18.8656 32.8131 18.8991C33.0056 19.1209 33.1897 19.3511 33.3781 19.5729C34.3197 20.6946 35.2572 21.8162 36.1989 22.9379C36.6216 23.4443 37.0444 23.9465 37.4671 24.4529C37.5926 24.6036 37.7182 24.7543 37.8479 24.905C37.8814 24.9426 37.9107 24.9803 37.9442 25.018C37.9526 25.0263 37.9609 25.0389 37.9693 25.0473C38.007 25.0807 37.8898 24.9217 37.9484 25.0221C37.986 25.0891 38.0321 25.1561 38.0698 25.223C38.0907 25.2607 38.12 25.3653 38.0698 25.2063C38.0823 25.2398 38.0907 25.2691 38.1032 25.3026C38.1074 25.3193 38.1786 25.5118 38.1618 25.5286C38.1618 25.5286 38.1493 25.3151 38.1576 25.5076C38.1618 25.562 38.1618 25.6081 38.1618 25.6541C38.1702 26.0936 38.5427 26.5121 38.9989 26.4912C39.4467 26.4702 39.8443 26.1229 39.8359 25.6541C39.8234 24.9761 39.5806 24.386 39.1495 23.867C39.0742 23.7791 39.0031 23.6912 38.9277 23.6033C38.5636 23.1681 38.1953 22.7286 37.8312 22.2933C36.8435 21.1131 35.8516 19.9287 34.8638 18.7484C34.5918 18.422 34.3197 18.0955 34.0477 17.7732C33.5204 17.1455 32.7503 16.819 31.9341 16.8148C30.7246 16.8106 29.5109 16.8148 28.3013 16.8148C27.0918 16.8148 25.8781 16.7981 24.6685 16.8148C24.6476 16.8148 24.6267 16.8148 24.6057 16.8148C24.1537 16.8148 23.7687 17.1999 23.7687 17.6519C23.7687 18.1457 23.7687 18.6354 23.7687 19.1293C23.7687 20.3095 23.7687 21.494 23.7687 22.6742C23.7687 24.1056 23.7687 25.5327 23.7687 26.9641C23.7687 28.1988 23.7687 29.4376 23.7687 30.6723C23.7687 31.2749 23.7519 31.8776 23.7687 32.4803C23.7687 32.4887 23.7687 32.497 23.7687 32.5054C23.7687 32.9574 24.1537 33.3425 24.6057 33.3425C25.7274 33.3425 26.8449 33.3425 27.9665 33.3425C28.1297 33.3425 28.293 33.3425 28.4562 33.3425C28.9124 33.3425 29.2891 32.9574 29.2932 32.5054C29.2932 32.4175 29.2974 32.3296 29.3016 32.2417C29.3058 32.2041 29.31 32.1664 29.3142 32.1246C29.3225 32.0074 29.2849 32.292 29.3058 32.1748C29.3393 32.0074 29.3728 31.8441 29.4272 31.6809C29.4439 31.6349 29.4774 31.4717 29.5151 31.4465C29.5109 31.4507 29.4272 31.6349 29.4983 31.4926C29.5151 31.4591 29.5318 31.4256 29.5485 31.3921C29.6239 31.2456 29.7076 31.1033 29.8038 30.9694C29.8164 30.9485 29.8541 30.8899 29.8708 30.8815C29.8666 30.8857 29.7369 31.0364 29.8415 30.9234C29.8917 30.869 29.9378 30.8146 29.988 30.7602C30.0382 30.7057 30.0926 30.6555 30.1429 30.6053C30.1763 30.576 30.2098 30.5467 30.2475 30.5132C30.3563 30.417 30.2517 30.4714 30.2266 30.5258C30.2475 30.4797 30.3647 30.4253 30.4065 30.4002C30.4735 30.3542 30.5446 30.3123 30.62 30.2705C30.6828 30.2328 30.7497 30.2035 30.8167 30.17C30.9297 30.1114 30.8502 30.0989 30.7958 30.1742C30.8167 30.1491 30.8962 30.1324 30.9255 30.124C31.0762 30.0696 31.231 30.0277 31.3859 29.9943C31.4235 29.9859 31.4612 29.9817 31.4989 29.9733C31.6161 29.9524 31.4821 29.9482 31.4487 29.9775C31.4905 29.9398 31.6788 29.9566 31.7374 29.9566C31.8965 29.9524 32.0513 29.9608 32.2062 29.9733C32.3569 29.9859 32.1727 29.9733 32.156 29.965C32.1853 29.9775 32.2355 29.9775 32.269 29.9859C32.361 30.0026 32.4531 30.0235 32.5452 30.0487C32.6163 30.0696 32.6875 30.0905 32.7586 30.1156C32.7921 30.1282 32.8298 30.1407 32.8633 30.1533C33.0391 30.2161 32.7377 30.0863 32.8424 30.1449C32.9888 30.2244 33.1395 30.2914 33.2776 30.3835C33.3404 30.4253 33.399 30.4672 33.4576 30.509C33.5497 30.5718 33.3446 30.4002 33.4157 30.4797C33.445 30.5132 33.4869 30.5383 33.5204 30.5676C33.6459 30.6765 33.7547 30.7978 33.8636 30.9234C33.9305 30.9987 33.9054 30.9192 33.8343 30.8815C33.8636 30.8983 33.897 30.9652 33.9138 30.9945C33.9682 31.0699 34.0142 31.1452 34.0603 31.2247C34.1021 31.2959 34.1398 31.3712 34.1775 31.4424C34.1775 31.4382 34.2277 31.5344 34.2235 31.5428C34.1775 31.4298 34.1691 31.4131 34.2026 31.4968C34.2109 31.5135 34.2151 31.5302 34.2235 31.547C34.2905 31.7228 34.3407 31.9069 34.3742 32.0911C34.3825 32.1246 34.3825 32.1748 34.3951 32.2041C34.3658 32.1287 34.3783 32.0492 34.3909 32.1832C34.3993 32.292 34.4035 32.3966 34.4076 32.5054C34.4118 32.9574 34.7885 33.3425 35.2447 33.3425C35.906 33.3425 36.5714 33.3425 37.2327 33.3425C37.5968 33.3425 37.9693 33.3592 38.3209 33.2378C39.1747 32.9407 39.7313 32.2166 39.8317 31.3252C39.882 30.8564 39.8443 30.3667 39.8443 29.898C39.8443 29.04 39.8443 28.182 39.8443 27.324C39.8443 26.7674 39.8443 26.2149 39.8443 25.6583C39.8443 25.2189 39.4593 24.8003 39.0072 24.8212C38.5469 24.838 38.1618 25.1854 38.1618 25.6541ZM11.2589 32.5054C11.2589 32.5933 11.2547 32.6812 11.2506 32.7691C11.2464 32.8068 11.2422 32.8444 11.238 32.8863C11.2296 33.0035 11.2673 32.7189 11.2464 32.8361C11.2129 33.0035 11.1794 33.1667 11.125 33.3299C11.1083 33.376 11.0748 33.5392 11.0371 33.5643C11.0413 33.5601 11.125 33.376 11.0538 33.5183C11.0371 33.5517 11.0204 33.5852 11.0036 33.6187C10.9283 33.7652 10.8446 33.9075 10.7483 34.0414C10.7358 34.0623 10.7023 34.1209 10.6814 34.1293C10.7483 34.0958 10.7776 34.0121 10.7107 34.0875C10.6604 34.1419 10.6144 34.1963 10.5642 34.2507C10.5056 34.3093 10.447 34.3679 10.3884 34.4223C10.3633 34.4474 10.334 34.4683 10.3047 34.4934C10.1959 34.5897 10.3005 34.5353 10.3256 34.4809C10.3047 34.5311 10.1624 34.5981 10.1247 34.6232C10.0619 34.665 9.99916 34.7027 9.93638 34.7362C9.86523 34.778 9.7899 34.8115 9.71456 34.8492C9.61411 34.8994 9.7313 34.8743 9.7606 34.8324C9.73967 34.8575 9.66015 34.8743 9.63085 34.8827C9.48019 34.9371 9.32533 34.9789 9.17047 35.0124C9.13281 35.0208 9.09514 35.025 9.05747 35.0333C8.91099 35.0626 9.08677 35.025 9.1077 35.0291C9.01562 35.025 8.91099 35.0501 8.81891 35.0501C8.65987 35.0543 8.5092 35.0459 8.35016 35.0333C8.15764 35.0208 8.49665 35.0626 8.37109 35.0375C8.33342 35.0291 8.29575 35.025 8.25809 35.0166C8.17438 34.9998 8.09068 34.9789 8.01116 34.958C7.93164 34.9371 7.84793 34.9078 7.76841 34.8827C7.73493 34.8701 7.69726 34.8575 7.66378 34.845C7.55915 34.8073 7.80608 34.9203 7.70982 34.8617C7.56752 34.7738 7.41266 34.7111 7.27455 34.6232C7.2327 34.5981 7.09458 34.5311 7.07366 34.4809C7.07784 34.4851 7.22851 34.6148 7.11551 34.5102C7.08621 34.4851 7.0611 34.4641 7.0318 34.439C6.91043 34.3302 6.79743 34.2088 6.68861 34.0833C6.58398 33.9661 6.70954 34.1209 6.71791 34.1251C6.70117 34.1167 6.66768 34.054 6.65094 34.0372C6.60909 33.9786 6.56724 33.9159 6.52957 33.8531C6.48772 33.7819 6.44587 33.7108 6.4082 33.6354C6.39146 33.602 6.37472 33.5685 6.35797 33.535C6.29101 33.4011 6.32031 33.5266 6.36216 33.5559C6.32449 33.5308 6.29101 33.3634 6.27427 33.3215C6.24916 33.242 6.22405 33.1583 6.20312 33.0788C6.18638 33.0035 6.16964 32.9323 6.15708 32.857C6.13616 32.7398 6.13197 32.8737 6.16127 32.9072C6.14034 32.8821 6.14871 32.7649 6.14453 32.7356C6.13197 32.5808 6.13197 32.4217 6.14453 32.2669C6.14871 32.2292 6.1529 32.1915 6.1529 32.1497C6.16545 31.999 6.1529 32.179 6.14453 32.1999C6.17801 32.1162 6.17801 32.0074 6.19893 31.9195C6.2366 31.7646 6.28682 31.614 6.34542 31.4633C6.38309 31.3587 6.27427 31.6098 6.32868 31.5093C6.34542 31.4758 6.35797 31.4424 6.37472 31.4089C6.41657 31.3252 6.45842 31.2456 6.50864 31.1661C6.54631 31.1033 6.58816 31.0406 6.63002 30.982C6.65094 30.9527 6.67187 30.9234 6.6928 30.8941C6.75976 30.7936 6.55887 31.0489 6.68024 30.9108C6.79324 30.7895 6.89787 30.6681 7.02343 30.5551C7.05273 30.53 7.07784 30.509 7.10714 30.4839C7.18247 30.417 7.10295 30.4463 7.06528 30.5132C7.0904 30.463 7.19503 30.417 7.24525 30.3877C7.38337 30.2956 7.52985 30.2203 7.68052 30.1449C7.82282 30.0738 7.63448 30.1575 7.63448 30.1617C7.64285 30.1491 7.71819 30.1282 7.73911 30.1198C7.81863 30.0905 7.89815 30.0654 7.97767 30.0403C8.04882 30.0194 8.12416 30.0026 8.19531 29.9859C8.23297 29.9775 8.27064 29.9691 8.30831 29.965C8.50502 29.9315 8.23297 29.9691 8.31249 29.9608C8.47991 29.9482 8.64313 29.9357 8.81054 29.9398C8.89006 29.944 8.9654 29.9482 9.04492 29.9566C9.11607 29.9608 9.14955 30.0026 8.99469 29.9482C9.04492 29.965 9.11188 29.9691 9.1621 29.9775C9.33789 30.0152 9.50948 30.0654 9.67689 30.1282C9.71456 30.1407 9.80245 30.2035 9.70619 30.1366C9.59737 30.0612 9.75223 30.1617 9.78152 30.1742C9.85686 30.2119 9.92801 30.2496 9.99916 30.2914C10.0787 30.3374 10.154 30.3877 10.2293 30.4421C10.2377 30.4504 10.3089 30.4881 10.3172 30.509C10.2293 30.4379 10.2084 30.4253 10.2545 30.463C10.2754 30.4797 10.2963 30.4965 10.3172 30.5174C10.4512 30.6304 10.5684 30.756 10.6855 30.8857C10.6897 30.8941 10.6981 30.8983 10.7023 30.9066C10.7567 30.9778 10.7483 30.961 10.673 30.8648C10.7023 30.8815 10.7358 30.9485 10.7525 30.9778C10.8069 31.0531 10.853 31.1285 10.899 31.208C10.9408 31.2791 10.9785 31.3545 11.0162 31.4256C11.0162 31.4214 11.0664 31.5177 11.0622 31.5261C11.0162 31.4131 11.0078 31.3963 11.0413 31.48C11.0497 31.4968 11.0538 31.5135 11.0622 31.5302C11.1292 31.706 11.1794 31.8902 11.2129 32.0743C11.2213 32.1078 11.2213 32.158 11.2338 32.1873C11.2045 32.112 11.2171 32.0325 11.2296 32.1664C11.2547 32.2878 11.2589 32.3966 11.2589 32.5054C11.2631 32.9449 11.6398 33.3634 12.096 33.3425C12.548 33.3215 12.9372 32.9742 12.933 32.5054C12.9163 30.7057 11.7821 29.1405 10.1038 28.5168C8.50083 27.9225 6.55468 28.4583 5.47488 29.7808C4.34486 31.1619 4.13978 33.1332 5.07728 34.6818C6.0106 36.2219 7.80608 36.9795 9.56389 36.6488C11.5184 36.2805 12.9205 34.4641 12.9372 32.5096C12.9414 32.0701 12.548 31.6516 12.1002 31.6725C11.6398 31.6851 11.2631 32.0325 11.2589 32.5054Z" fill="#FF3D54"/>
<path d="M34.4054 32.506C34.4054 32.5939 34.4013 32.6818 34.3971 32.7697C34.3929 32.8073 34.3887 32.845 34.3845 32.8869C34.3762 33.004 34.4138 32.7194 34.3929 32.8366C34.3594 33.004 34.3259 33.1673 34.2715 33.3305C34.2548 33.3765 34.2213 33.5398 34.1836 33.5649C34.1878 33.5607 34.2715 33.3765 34.2004 33.5188C34.1836 33.5523 34.1669 33.5858 34.1501 33.6193C34.0748 33.7658 33.9911 33.9081 33.8948 34.042C33.8823 34.0629 33.8488 34.1215 33.8279 34.1299C33.8948 34.0964 33.9241 34.0169 33.8572 34.088C33.807 34.1424 33.7609 34.1968 33.7107 34.2512C33.6521 34.3098 33.5935 34.3684 33.5349 34.4228C33.5098 34.448 33.4805 34.4689 33.4512 34.494C33.3424 34.5903 33.447 34.5358 33.4721 34.4814C33.4512 34.5317 33.3089 34.5986 33.2712 34.6237C33.2085 34.6656 33.1457 34.7033 33.0829 34.7367C33.0118 34.7786 32.9364 34.8121 32.8611 34.8497C32.7606 34.9 32.8778 34.8749 32.9071 34.833C32.8862 34.8581 32.8067 34.8749 32.7774 34.8832C32.6267 34.9376 32.4719 34.9795 32.317 35.013C32.2793 35.0213 32.2417 35.0255 32.204 35.0339C32.0575 35.0632 32.2333 35.0255 32.2542 35.0297C32.1621 35.0255 32.0575 35.0506 31.9654 35.0506C31.8064 35.0548 31.6557 35.0464 31.4967 35.0339C31.3042 35.0213 31.6432 35.0632 31.5176 35.0381C31.4799 35.0297 31.4423 35.0255 31.4046 35.0172C31.3209 35.0004 31.2372 34.9795 31.1577 34.9586C31.0782 34.9376 30.9945 34.9083 30.9149 34.8832C30.8814 34.8707 30.8438 34.8581 30.8103 34.8456C30.7057 34.8079 30.9526 34.9209 30.8563 34.8623C30.714 34.7744 30.5592 34.7116 30.4211 34.6237C30.3792 34.5986 30.2411 34.5317 30.2202 34.4814C30.2244 34.4856 30.375 34.6154 30.262 34.5107C30.2327 34.4856 30.2076 34.4647 30.1783 34.4396C30.0569 34.3308 29.9439 34.2094 29.8351 34.0838C29.7305 33.9667 29.8561 34.1215 29.8644 34.1257C29.8477 34.1173 29.8142 34.0545 29.7975 34.0378C29.7556 33.9792 29.7138 33.9164 29.6761 33.8536C29.6342 33.7825 29.5924 33.7113 29.5547 33.636C29.538 33.6025 29.5212 33.569 29.5045 33.5356C29.4375 33.4016 29.4668 33.5272 29.5087 33.5565C29.471 33.5314 29.4375 33.364 29.4208 33.3221C29.3957 33.2426 29.3706 33.1589 29.3496 33.0794C29.3329 33.004 29.3162 32.9329 29.3036 32.8576C29.2827 32.7404 29.2785 32.8743 29.3078 32.9078C29.2869 32.8827 29.2952 32.7655 29.291 32.7362C29.2785 32.5813 29.2785 32.4223 29.291 32.2674C29.2952 32.2298 29.2994 32.1921 29.2994 32.1502C29.312 31.9996 29.2994 32.1795 29.291 32.2005C29.3245 32.1168 29.3245 32.0079 29.3455 31.9201C29.3831 31.7652 29.4333 31.6145 29.4919 31.4639C29.5296 31.3592 29.4208 31.6103 29.4752 31.5099C29.4919 31.4764 29.5045 31.4429 29.5212 31.4095C29.5631 31.3257 29.6049 31.2462 29.6552 31.1667C29.6928 31.1039 29.7347 31.0412 29.7765 30.9826C29.7975 30.9533 29.8184 30.924 29.8393 30.8947C29.9063 30.7942 29.7054 31.0495 29.8268 30.9114C29.9398 30.79 30.0444 30.6687 30.17 30.5557C30.1992 30.5305 30.2244 30.5096 30.2537 30.4845C30.329 30.4175 30.2495 30.4468 30.2118 30.5138C30.2369 30.4636 30.3415 30.4175 30.3918 30.3882C30.5299 30.2962 30.6764 30.2208 30.827 30.1455C30.9693 30.0744 30.781 30.1581 30.781 30.1622C30.7894 30.1497 30.8647 30.1288 30.8856 30.1204C30.9652 30.0911 31.0447 30.066 31.1242 30.0409C31.1953 30.0199 31.2707 30.0032 31.3418 29.9865C31.3795 29.9781 31.4172 29.9697 31.4548 29.9655C31.6515 29.9321 31.3795 29.9697 31.459 29.9614C31.6264 29.9488 31.7897 29.9362 31.9571 29.9404C32.0366 29.9446 32.1119 29.9488 32.1914 29.9572C32.2626 29.9614 32.2961 30.0032 32.1412 29.9488C32.1914 29.9655 32.2584 29.9697 32.3086 29.9781C32.4844 30.0158 32.656 30.066 32.8234 30.1288C32.8611 30.1413 32.949 30.2041 32.8527 30.1371C32.7439 30.0618 32.8987 30.1622 32.928 30.1748C33.0034 30.2125 33.0745 30.2501 33.1457 30.292C33.2252 30.338 33.3005 30.3882 33.3759 30.4427C33.3842 30.451 33.4554 30.4887 33.4638 30.5096C33.3759 30.4385 33.3549 30.4259 33.401 30.4636C33.4219 30.4803 33.4428 30.4971 33.4638 30.518C33.5977 30.631 33.7149 30.7565 33.8321 30.8863C33.8363 30.8947 33.8446 30.8988 33.8488 30.9072C33.9032 30.9784 33.8948 30.9616 33.8195 30.8654C33.8488 30.8821 33.8823 30.9491 33.899 30.9784C33.9534 31.0537 33.9995 31.129 34.0455 31.2086C34.0874 31.2797 34.125 31.355 34.1627 31.4262C34.1627 31.422 34.2129 31.5183 34.2087 31.5266C34.1627 31.4136 34.1543 31.3969 34.1878 31.4806C34.1962 31.4973 34.2004 31.5141 34.2087 31.5308C34.2757 31.7066 34.3259 31.8908 34.3594 32.0749C34.3678 32.1084 34.3678 32.1586 34.3803 32.1879C34.351 32.1126 34.3636 32.0331 34.3762 32.167C34.4013 32.2884 34.4054 32.3972 34.4054 32.506C34.4096 32.9454 34.7863 33.364 35.2425 33.343C35.6945 33.3221 36.0837 32.9747 36.0796 32.506C36.0628 30.7063 34.9286 29.141 33.2503 28.5174C31.6474 27.9231 29.7012 28.4588 28.6214 29.7814C27.4914 31.1625 27.2863 33.1338 28.2238 34.6823C29.1571 36.2225 30.9526 36.98 32.7104 36.6494C34.6649 36.2811 36.067 34.4647 36.0837 32.5102C36.0879 32.0707 35.6945 31.6522 35.2467 31.6731C34.7863 31.6857 34.4096 32.0331 34.4054 32.506ZM20.1295 12.2409C20.1295 12.4251 20.1253 12.6092 20.1127 12.7934C20.1086 12.8897 20.1002 12.9859 20.0876 13.0822C20.0834 13.1408 20.0751 13.1952 20.0667 13.2538C20.05 13.4254 20.096 13.0738 20.0667 13.258C19.9997 13.6681 19.9118 14.0741 19.7905 14.4717C19.7319 14.66 19.6691 14.8442 19.5938 15.0241C19.5812 15.0576 19.5687 15.1288 19.5435 15.1539C19.5561 15.1204 19.5728 15.0869 19.5854 15.0576C19.5728 15.0911 19.5561 15.1246 19.5394 15.1581C19.4933 15.2585 19.4473 15.359 19.3971 15.4594C19.2171 15.8193 19.012 16.1709 18.7818 16.5015C18.7316 16.5769 18.673 16.648 18.6228 16.7234C18.514 16.874 18.7149 16.6145 18.6353 16.7066C18.606 16.7401 18.5767 16.7778 18.5516 16.8154C18.4261 16.9703 18.2921 17.121 18.154 17.2674C17.8778 17.5604 17.5807 17.8283 17.2668 18.0794C17.1161 18.2008 17.4174 17.9706 17.2626 18.0836C17.2333 18.1045 17.204 18.1254 17.1747 18.1505C17.0868 18.2133 16.9947 18.2761 16.9026 18.3389C16.7352 18.4519 16.5636 18.5565 16.3878 18.6569C16.2204 18.7532 16.0488 18.8411 15.8731 18.9248C15.7977 18.9625 15.6805 19.042 15.5968 19.0504C15.7182 19.042 15.7224 19.0001 15.6429 19.0294C15.5717 19.0546 15.5048 19.0838 15.4336 19.109C15.0486 19.2513 14.651 19.3684 14.245 19.4522C14.1529 19.4731 14.0567 19.4898 13.9646 19.5066C13.9185 19.5149 13.8725 19.5233 13.8223 19.5275C13.7302 19.54 13.7009 19.5944 13.8474 19.5275C13.7762 19.5652 13.6423 19.5526 13.5586 19.561C13.4414 19.5735 13.3284 19.5819 13.2112 19.5861C12.7843 19.607 12.3532 19.5944 11.9263 19.5484C11.8803 19.5442 11.7966 19.5484 11.7548 19.5275C11.8971 19.5986 11.8719 19.5442 11.7799 19.5275C11.6752 19.5107 11.5748 19.494 11.4702 19.4731C11.2651 19.4354 11.0642 19.3852 10.8633 19.3308C10.675 19.2806 10.4866 19.222 10.3025 19.155C10.2062 19.1215 10.1099 19.0838 10.0137 19.0462C10.0011 19.042 9.92579 19.0211 9.90905 19.0043C10.0221 19.0546 10.0388 19.0587 9.95509 19.0253C9.9216 19.0085 9.88812 18.996 9.85464 18.9792C9.48634 18.8118 9.13059 18.6193 8.79158 18.3975C8.63673 18.297 8.49024 18.1924 8.33957 18.0836C8.18472 17.9706 8.48606 18.2008 8.33539 18.0794C8.30609 18.0585 8.27679 18.0333 8.25168 18.0124C8.15961 17.9371 8.06753 17.8617 7.97964 17.7822C7.68667 17.5227 7.41044 17.2423 7.15933 16.941C7.09236 16.8657 7.03377 16.7861 6.97099 16.7066C6.89147 16.6145 7.09236 16.874 6.98354 16.7234C6.95006 16.6773 6.91658 16.6355 6.88728 16.5894C6.7701 16.4262 6.65709 16.2588 6.55246 16.0872C6.45201 15.924 6.35575 15.7524 6.26786 15.5808C6.22182 15.4887 6.17579 15.4008 6.13393 15.3087C6.11719 15.2753 6.10464 15.2418 6.0879 15.2083C6.07115 15.1748 6.0586 15.1413 6.04186 15.1078C6.00419 15.0241 6.01256 15.0409 6.06278 15.1539C6.01675 15.1078 5.98326 14.9572 5.96234 14.8944C5.92886 14.8065 5.89956 14.7186 5.87026 14.6307C5.79911 14.4173 5.73633 14.1996 5.68192 13.982C5.63589 13.7979 5.59822 13.6137 5.56474 13.4254C5.55637 13.371 5.548 13.3124 5.53962 13.258C5.51451 13.1031 5.53963 13.2998 5.54381 13.3082C5.49777 13.2203 5.51451 13.032 5.50614 12.9357C5.47266 12.5465 5.46848 12.1572 5.49359 11.768C5.50196 11.6634 5.51033 11.5546 5.5187 11.4499C5.52288 11.4039 5.53125 11.3537 5.53544 11.3076C5.55637 11.1067 5.50614 11.5001 5.53544 11.3034C5.56892 11.0942 5.6024 10.8891 5.64844 10.684C5.74052 10.2822 5.86189 9.88464 6.01256 9.49959C6.0293 9.45774 6.05023 9.4117 6.06278 9.36985C6.10464 9.25685 5.97489 9.56237 6.05441 9.39077C6.09208 9.30707 6.12975 9.22336 6.1716 9.13966C6.26786 8.93877 6.37249 8.74624 6.4855 8.55372C6.57757 8.39468 6.67802 8.23983 6.78265 8.08916C6.83287 8.01382 6.88728 7.93849 6.94169 7.86315C6.97099 7.82549 7.00447 7.76271 7.04214 7.72922C6.9668 7.82549 6.95843 7.83804 7.01284 7.76689C7.02958 7.74597 7.04632 7.72504 7.06306 7.70411C7.31 7.39859 7.58204 7.1098 7.87082 6.84613C8.01731 6.70802 8.17216 6.58246 8.3312 6.45272C8.44839 6.35646 8.29772 6.47364 8.29353 6.48202C8.31446 6.44853 8.39398 6.40668 8.42746 6.38157C8.51535 6.31879 8.60743 6.25183 8.69951 6.19323C9.03433 5.96723 9.39008 5.76634 9.75838 5.59474C9.82116 5.56544 9.94253 5.48592 10.0137 5.48174C9.9802 5.49429 9.94672 5.51103 9.91742 5.52359C9.9509 5.51103 9.98438 5.49429 10.0221 5.48174C10.0555 5.46918 10.0932 5.45244 10.1267 5.43988C10.3359 5.36036 10.5494 5.28921 10.7628 5.22644C10.9428 5.17203 11.127 5.12599 11.3111 5.08832C11.4032 5.0674 11.4953 5.05065 11.5915 5.03391C11.6459 5.02554 11.7045 5.01299 11.7631 5.00462C11.8008 5.00043 11.8385 4.99206 11.8761 4.98788C11.7589 5.00462 11.7296 5.0088 11.7966 5.00043C12.2151 4.95439 12.6337 4.92928 13.0522 4.94184C13.2656 4.94602 13.4791 4.96276 13.6925 4.98369C13.7302 4.98788 13.7679 4.99206 13.8055 4.99625C14.0064 5.01717 13.613 4.96276 13.8097 4.99625C13.9227 5.01299 14.0357 5.03391 14.1487 5.05484C14.5547 5.13436 14.9565 5.24318 15.3457 5.38129C15.4336 5.41477 15.5215 5.44407 15.6052 5.48174C15.6219 5.49011 15.6387 5.49429 15.6554 5.50266C15.7391 5.53615 15.7224 5.53196 15.6094 5.48174C15.6345 5.48174 15.6847 5.51522 15.7098 5.52777C15.9107 5.61985 16.1116 5.71611 16.3041 5.82493C16.6515 6.01745 16.9696 6.24346 17.2961 6.46946C17.3965 6.53642 17.1328 6.33972 17.2793 6.4569C17.3212 6.49039 17.363 6.52387 17.4091 6.56154C17.4802 6.62013 17.5472 6.67872 17.6183 6.7415C17.769 6.87543 17.9155 7.01354 18.0536 7.15584C18.1959 7.29814 18.3298 7.44881 18.4596 7.60367C18.5056 7.65807 18.6144 7.75015 18.6312 7.81711C18.6102 7.78782 18.5893 7.76271 18.5684 7.73341C18.5893 7.76271 18.6144 7.792 18.6353 7.8213C18.6688 7.86734 18.7023 7.90919 18.7316 7.95523C18.966 8.28586 19.1752 8.63324 19.3594 8.99317C19.4012 9.07688 19.4431 9.16058 19.4808 9.24429C19.5059 9.29451 19.5268 9.34474 19.5477 9.39496C19.6105 9.52889 19.5394 9.36148 19.531 9.34892C19.644 9.51215 19.7026 9.78837 19.7654 9.97671C19.8951 10.3743 19.9914 10.7803 20.0541 11.1904C20.0583 11.2281 20.0667 11.2658 20.0709 11.3034C20.1002 11.5043 20.05 11.1067 20.0709 11.3076C20.0793 11.4039 20.0918 11.5001 20.1002 11.5964C20.1211 11.814 20.1295 12.0275 20.1295 12.2409C20.1337 12.6804 20.5145 13.0989 20.9665 13.078C21.4185 13.0571 21.8078 12.7097 21.8036 12.2409C21.791 10.4036 21.226 8.55791 20.1462 7.06377C19.0497 5.5487 17.5472 4.40612 15.7852 3.76996C12.2821 2.51438 8.15123 3.6737 5.83259 6.58665C4.64398 8.0766 3.94085 9.85952 3.82785 11.768C3.71903 13.5802 4.19197 15.4343 5.14621 16.9745C6.08371 18.4895 7.48578 19.7493 9.12222 20.465C10.901 21.2434 12.8513 21.4569 14.7556 21.0467C18.3131 20.2808 21.1758 17.2465 21.699 13.643C21.7659 13.1743 21.812 12.7097 21.812 12.2368C21.812 11.7973 21.4269 11.3788 20.9749 11.3997C20.5145 11.4248 20.1295 11.7722 20.1295 12.2409Z" fill="#FF3D54"/>
<path d="M11.9725 7.41419C11.9725 8.82462 11.9725 10.2351 11.9725 11.6455C11.9725 11.8464 11.9641 12.0515 11.9725 12.2524C11.9892 12.629 12.1817 12.8257 12.4161 13.0601C12.9811 13.6251 13.5461 14.186 14.107 14.751C14.5799 15.2239 15.0528 15.6968 15.5258 16.1698C15.8355 16.4795 16.4047 16.5046 16.7102 16.1698C17.0157 15.8349 17.0408 15.316 16.7102 14.9853C15.7434 14.0185 14.7766 13.0517 13.814 12.0891C13.6759 11.951 13.5419 11.8171 13.4038 11.679C13.4875 11.8757 13.5671 12.0724 13.6508 12.2691C13.6508 10.8545 13.6508 9.43986 13.6508 8.02524C13.6508 7.82434 13.6508 7.61927 13.6508 7.41837C13.6508 6.97892 13.2657 6.56039 12.8137 6.58132C12.3533 6.59806 11.9725 6.94544 11.9725 7.41419Z" fill="#FF3D54"/>
</svg>
