<svg width="40" height="40" viewBox="0 0 40 40" fill="none" xmlns="http://www.w3.org/2000/svg">
<path d="M23.7642 13.5971C23.7642 14.2249 23.7642 14.8527 23.7642 15.4805C23.7642 16.9872 23.7642 18.4939 23.7642 20.0048C23.7642 21.8212 23.7642 23.6376 23.7642 25.454C23.7642 27.0276 23.7642 28.6055 23.7642 30.1791C23.7642 30.9409 23.7308 31.711 23.7642 32.4685C23.7642 32.481 23.7642 32.4894 23.7642 32.502C24.0447 32.2216 24.3209 31.9453 24.6013 31.6649C23.1951 31.6649 21.7888 31.6649 20.3826 31.6649C18.1351 31.6649 15.8834 31.6649 13.6359 31.6649C13.1211 31.6649 12.6063 31.6649 12.0957 31.6649C12.3761 31.9453 12.6524 32.2216 12.9328 32.502C12.916 30.7023 11.7818 29.1328 10.1035 28.5134C8.50475 27.9233 6.57952 28.4464 5.49135 29.7564C4.84264 30.5349 4.4827 31.485 4.47433 32.502C4.75475 32.2216 5.03097 31.9453 5.31139 31.6649C4.41993 31.6649 3.52428 31.6649 2.63281 31.6649C2.61189 31.6649 2.25195 31.6858 2.2394 31.6607C2.24777 31.6775 2.43192 31.6984 2.26451 31.6565C2.24777 31.6524 2.13058 31.6273 2.13058 31.6189C2.16406 31.6314 2.19336 31.6482 2.22684 31.6607C2.19336 31.644 2.15988 31.6273 2.1264 31.6105C2.09291 31.5938 2.06362 31.5728 2.03014 31.5519C1.8711 31.464 2.14732 31.6817 2.02595 31.5477C2.00502 31.5226 1.97573 31.4933 1.94643 31.4682C1.8125 31.3468 2.03014 31.6231 1.94224 31.464C1.91295 31.4096 1.88365 31.3468 1.84598 31.2966C1.78739 31.2129 1.89202 31.485 1.85854 31.3134C1.85435 31.3008 1.80832 31.1543 1.82087 31.1501C1.80832 31.1543 1.83343 31.3552 1.82924 31.1418C1.82924 31.1334 1.82924 31.1292 1.82924 31.1208C1.82924 31.079 1.82924 31.0329 1.82924 30.9911C1.82924 29.5681 1.82924 28.1451 1.82924 26.7221C1.82924 24.3909 1.82924 22.0597 1.82924 19.7285C1.82924 17.9372 1.82924 16.1418 1.82924 14.3505C1.82924 14.1538 1.82924 13.9529 1.82924 13.7562C1.82924 13.7101 1.82924 13.6641 1.82924 13.6222C1.82924 13.6139 1.82924 13.6055 1.82924 13.5929C1.82924 13.572 1.82924 13.5427 1.82924 13.5302C1.82924 13.3586 1.82924 13.5846 1.81669 13.5804C1.80832 13.5762 1.86272 13.3627 1.87528 13.3627C1.88784 13.3627 1.79157 13.5218 1.85435 13.4088C1.88365 13.3627 1.90876 13.3125 1.93806 13.2665C2.02176 13.12 1.8418 13.3376 1.9255 13.2832C1.95899 13.2623 1.99665 13.2121 2.02176 13.187C2.14314 13.053 1.86691 13.2707 2.02595 13.1828C2.05943 13.166 2.08873 13.1451 2.12221 13.1242C2.13895 13.1158 2.15569 13.1074 2.17243 13.0991C2.25614 13.0614 2.2394 13.0656 2.1264 13.12C2.1264 13.1074 2.26451 13.0823 2.28962 13.074C2.46959 13.0196 2.10547 13.0698 2.29381 13.074C2.30636 13.074 2.33566 13.074 2.35659 13.074C2.37333 13.074 2.38588 13.074 2.40262 13.074C2.48214 13.074 2.55748 13.074 2.637 13.074C3.18108 13.074 3.72099 13.074 4.26507 13.074C4.39063 13.074 4.512 13.074 4.63756 13.074C4.35715 12.7935 4.08092 12.5173 3.80051 12.2369C3.80051 14.0617 4.35296 15.8948 5.40765 17.3848C6.48745 18.9124 7.97322 20.0592 9.72266 20.7121C13.2216 22.0179 17.3733 20.8879 19.7296 17.9875C21.0564 16.3552 21.7972 14.3421 21.7972 12.2327C21.5168 12.5131 21.2405 12.7894 20.9601 13.0698C21.5544 13.0698 22.1446 13.0698 22.7389 13.0698C22.8686 13.0698 23.0025 13.0698 23.1323 13.0698C23.1658 13.0698 23.1951 13.0698 23.2285 13.0698C23.2327 13.0698 23.2411 13.0698 23.2453 13.0698C23.2746 13.0698 23.3039 13.0698 23.3332 13.074C23.4001 13.0781 23.3708 13.074 23.2536 13.0614C23.2578 13.053 23.4713 13.1116 23.4713 13.12C23.3666 13.074 23.3415 13.0614 23.4001 13.0907C23.4252 13.1033 23.4504 13.1158 23.4755 13.1284C23.5089 13.1451 23.5382 13.166 23.5717 13.187C23.6471 13.2372 23.6345 13.2288 23.5341 13.1535C23.5466 13.1451 23.6345 13.2497 23.6512 13.2665C23.7098 13.3334 23.7015 13.3209 23.6261 13.2246C23.6471 13.2539 23.668 13.2832 23.6847 13.3167C23.6931 13.3334 23.7726 13.4423 23.7601 13.4632C23.714 13.3502 23.7057 13.3334 23.735 13.4213C23.7475 13.459 23.7559 13.4925 23.7642 13.5302C23.781 13.6222 23.781 13.6055 23.7601 13.4757C23.7642 13.5218 23.7642 13.5595 23.7642 13.5971C23.7726 14.0366 24.1409 14.4551 24.6013 14.4342C25.0449 14.4132 25.4467 14.0659 25.4384 13.5971C25.4216 12.781 24.9738 11.99 24.2204 11.6384C23.8019 11.4417 23.3834 11.4082 22.9356 11.4082C22.2785 11.4082 21.6214 11.4082 20.9601 11.4082C20.5081 11.4082 20.1231 11.7933 20.1231 12.2453C20.1231 12.4294 20.1189 12.6136 20.1063 12.7977C20.1021 12.894 20.0938 12.9903 20.0812 13.0865C20.077 13.1451 20.0687 13.1995 20.0603 13.2581C20.0394 13.459 20.0938 13.0656 20.0603 13.2623C19.9933 13.6725 19.9054 14.0784 19.7841 14.476C19.7213 14.6727 19.6543 14.8653 19.579 15.0536C19.5748 15.0661 19.5539 15.1415 19.5371 15.1582C19.5497 15.1247 19.5664 15.0913 19.579 15.062C19.5664 15.0954 19.5497 15.1289 19.5329 15.1624C19.4869 15.2629 19.4409 15.3633 19.3906 15.4637C19.2107 15.8237 19.0056 16.1752 18.7754 16.5059C18.7252 16.5812 18.6666 16.6524 18.6164 16.7277C18.5034 16.8826 18.7336 16.5812 18.6122 16.7319C18.5787 16.7737 18.5452 16.8156 18.5075 16.8616C18.382 17.0165 18.2481 17.1672 18.1099 17.3136C17.976 17.4517 17.8421 17.5857 17.6998 17.7154C17.5617 17.841 17.3901 18.0419 17.2185 18.1214C17.3985 18.0377 17.2687 18.0795 17.2143 18.1214C17.185 18.1423 17.1557 18.1632 17.1264 18.1842C17.0427 18.2428 16.9632 18.3014 16.8795 18.3558C16.7037 18.473 16.5237 18.5818 16.3396 18.6864C16.1805 18.7743 16.0131 18.858 15.8499 18.9375C15.7997 18.9626 15.7495 18.9836 15.6992 19.0087C15.6825 19.017 15.6657 19.0254 15.649 19.0296C15.5653 19.0673 15.582 19.0589 15.695 19.0087C15.6365 19.0714 15.4607 19.1007 15.3853 19.13C14.9961 19.2723 14.5985 19.3853 14.1925 19.4649C14.1005 19.4816 14.0042 19.5025 13.9121 19.5151C13.8745 19.5193 13.7782 19.5528 13.7405 19.5402C13.7489 19.5444 13.9498 19.5151 13.7907 19.5318C13.5606 19.5569 13.3304 19.5779 13.096 19.5862C12.6649 19.603 12.2422 19.5779 11.8153 19.5318C11.7149 19.5193 11.7818 19.5653 11.8655 19.5402C11.8279 19.5528 11.7358 19.5193 11.6939 19.5151C11.6019 19.4983 11.5056 19.4816 11.4135 19.4649C11.2001 19.423 10.9908 19.3728 10.7815 19.31C10.5932 19.2556 10.4049 19.197 10.2207 19.13C10.1328 19.0966 10.0491 19.0631 9.96122 19.0296C9.77707 18.9584 10.1328 19.1091 9.95704 19.0296C9.89845 19.0045 9.83985 18.9752 9.78126 18.9501C9.42132 18.7827 9.07813 18.5901 8.7475 18.3725C8.65542 18.3139 8.56334 18.2511 8.47545 18.1842C8.44616 18.1632 8.41686 18.1423 8.38756 18.1214C8.32897 18.0795 8.19923 18.0335 8.38338 18.1214C8.21597 18.0419 8.05693 17.8577 7.923 17.7322C7.62584 17.4643 7.34543 17.1713 7.09431 16.8616C7.06083 16.8198 7.02735 16.7779 6.98968 16.7319C6.87668 16.5938 7.08176 16.8616 6.9855 16.7277C6.91435 16.6314 6.84738 16.5352 6.77623 16.4389C6.64649 16.2506 6.52512 16.0539 6.41211 15.8572C6.3033 15.6646 6.20285 15.4679 6.11077 15.267C6.08566 15.2168 6.06474 15.1666 6.04381 15.1164C5.96429 14.9364 6.11496 15.2922 6.04381 15.1122C6.00196 15.0076 5.96429 14.9029 5.92662 14.7983C5.76758 14.3547 5.65039 13.8985 5.57088 13.4339C5.5625 13.3795 5.55413 13.3209 5.54576 13.2665C5.51647 13.0949 5.56669 13.4464 5.54576 13.2623C5.53321 13.1493 5.52065 13.0321 5.51228 12.9191C5.49554 12.6973 5.48717 12.4755 5.48717 12.2536C5.48717 11.8016 5.10212 11.4166 4.65012 11.4166C4.21485 11.4166 3.77958 11.4166 3.34013 11.4166C2.84208 11.4166 2.28962 11.3622 1.79995 11.4919C0.837333 11.743 0.188616 12.6387 0.171875 13.618C0.171875 13.7227 0.171875 13.8315 0.171875 13.9361C0.171875 15.5726 0.171875 17.2048 0.171875 18.8413C0.171875 21.2436 0.171875 23.6418 0.171875 26.0441C0.171875 27.6512 0.171875 29.2584 0.171875 30.8655C0.171875 30.9618 0.171875 31.0622 0.171875 31.1585C0.188616 32.1881 0.925224 33.1465 1.96736 33.3139C2.40681 33.3851 2.863 33.3558 3.30664 33.3558C3.86747 33.3558 4.4283 33.3558 4.98494 33.3558C5.09375 33.3558 5.20257 33.3558 5.31557 33.3558C5.77177 33.3558 6.14844 32.9707 6.15263 32.5187C6.15263 32.4308 6.15681 32.3429 6.161 32.255C6.16518 32.2174 6.16937 32.1797 6.17355 32.1379C6.18192 32.0207 6.14426 32.3053 6.16518 32.1881C6.19867 32.0207 6.23215 31.8574 6.28656 31.6942C6.3033 31.6482 6.33678 31.485 6.37445 31.4598C6.37026 31.464 6.28656 31.6482 6.35771 31.5059C6.37445 31.4724 6.39119 31.4389 6.40793 31.4054C6.48326 31.2589 6.56697 31.1167 6.66323 30.9827C6.67579 30.9618 6.71345 30.9032 6.7302 30.8948C6.72601 30.899 6.59627 31.0497 6.7009 30.9367C6.75112 30.8823 6.79716 30.8279 6.84738 30.7735C6.89761 30.7191 6.95201 30.6688 7.00224 30.6186C7.03572 30.5893 7.0692 30.56 7.10687 30.5265C7.21569 30.4303 7.11105 30.4847 7.08594 30.5391C7.10687 30.493 7.22406 30.4386 7.26591 30.4135C7.33287 30.3675 7.40402 30.3256 7.47936 30.2838C7.54214 30.2461 7.6091 30.2168 7.67607 30.1833C7.68444 30.1791 7.69281 30.175 7.70118 30.1708C7.78488 30.1331 7.76814 30.1415 7.65514 30.1875C7.67188 30.1624 7.75559 30.1457 7.78488 30.1373C7.93555 30.0829 8.09041 30.041 8.24526 30.0076C8.28293 29.9992 8.3206 29.995 8.35826 29.9866C8.47545 29.9657 8.33734 29.9615 8.30804 29.9908C8.34989 29.9531 8.53823 29.9699 8.59683 29.9699C8.75587 29.9657 8.91072 29.9741 9.06558 29.9866C9.21625 29.9992 9.03628 29.9866 9.01535 29.9783C9.04465 29.9908 9.09487 29.9908 9.12836 29.9992C9.22043 30.0159 9.31251 30.0369 9.40458 30.062C9.47573 30.0829 9.54688 30.1038 9.61803 30.1289C9.65151 30.1415 9.68918 30.154 9.72266 30.1666C9.89845 30.2294 9.59711 30.0996 9.70174 30.1582C9.84822 30.2377 9.99889 30.3047 10.137 30.3968C10.1998 30.4386 10.2584 30.4805 10.317 30.5223C10.409 30.5851 10.204 30.4135 10.2751 30.493C10.3044 30.5265 10.3463 30.5516 10.3798 30.5809C10.5053 30.6898 10.6099 30.8111 10.7229 30.9367C10.7899 31.012 10.7606 30.9325 10.6936 30.8948C10.7229 30.9116 10.7564 30.9785 10.7732 31.0078C10.8276 31.0832 10.8736 31.1585 10.9197 31.238C10.9615 31.3092 10.9992 31.3845 11.0368 31.4557C11.0368 31.4515 11.0871 31.5477 11.0829 31.5561C11.0368 31.4431 11.0285 31.4264 11.062 31.5101C11.0703 31.5268 11.0745 31.5435 11.0829 31.5603C11.1498 31.7361 11.2001 31.9202 11.2335 32.1044C11.2419 32.1379 11.2419 32.1881 11.2545 32.2174C11.2252 32.142 11.2377 32.0625 11.2503 32.1964C11.2587 32.3053 11.2628 32.4099 11.267 32.5187C11.2712 32.9707 11.6479 33.3558 12.1041 33.3558C13.5103 33.3558 14.9166 33.3558 16.3228 33.3558C18.5703 33.3558 20.822 33.3558 23.0695 33.3558C23.5843 33.3558 24.0991 33.3558 24.6097 33.3558C25.0617 33.3558 25.4467 32.9707 25.4467 32.5187C25.4467 31.8909 25.4467 31.2631 25.4467 30.6353C25.4467 29.1286 25.4467 27.622 25.4467 26.1111C25.4467 24.2947 25.4467 22.4783 25.4467 20.6618C25.4467 19.0882 25.4467 17.5103 25.4467 15.9367C25.4467 15.175 25.4677 14.4091 25.4467 13.6473C25.4467 13.6348 25.4467 13.6264 25.4467 13.6139C25.4467 13.1744 25.0617 12.7559 24.6097 12.7768C24.1493 12.781 23.7642 13.1284 23.7642 13.5971Z" fill="white"/>
<path d="M38.1618 25.6544C38.1618 26.9099 38.1618 28.1655 38.1618 29.4253C38.1618 29.9819 38.166 30.5344 38.1618 31.091C38.1618 31.1078 38.1618 31.1245 38.1618 31.1413C38.1618 31.1454 38.1618 31.1496 38.1618 31.1496C38.1618 31.1706 38.1618 31.2166 38.1618 31.2082C38.1618 31.3631 38.1953 31.091 38.166 31.1873C38.1576 31.2124 38.1325 31.3798 38.1158 31.3798C38.1074 31.3798 38.2162 31.1915 38.1367 31.3338C38.12 31.3673 38.1032 31.4007 38.0823 31.43C38.0697 31.451 38.0488 31.4761 38.0363 31.5012C37.9986 31.5933 38.1451 31.4091 38.0656 31.4593C38.0446 31.4719 38.0279 31.5012 38.0112 31.5179C37.9902 31.5389 37.9735 31.5556 37.9526 31.5723C37.9065 31.6142 37.9275 31.5975 38.0153 31.5263C38.0195 31.543 37.8605 31.6226 37.8521 31.6268C37.8437 31.6309 37.7852 31.6686 37.7768 31.6644C37.7684 31.6602 37.9484 31.6058 37.8186 31.6393C37.7852 31.6477 37.7433 31.656 37.7098 31.6686C37.6094 31.6979 37.6763 31.6268 37.7642 31.6644C37.7391 31.6519 37.6721 31.6686 37.6429 31.6686C37.5591 31.6686 37.4754 31.6686 37.3959 31.6686C36.6802 31.6686 35.9604 31.6686 35.2447 31.6686C35.5251 31.949 35.8013 32.2252 36.0817 32.5057C36.065 30.706 34.9308 29.1365 33.2525 28.5171C31.6537 27.927 29.7285 28.4501 28.6403 29.7601C27.9916 30.5386 27.6317 31.4886 27.6233 32.5057C27.9037 32.2252 28.18 31.949 28.4604 31.6686C27.3387 31.6686 26.2213 31.6686 25.0996 31.6686C24.9364 31.6686 24.7732 31.6686 24.6099 31.6686C24.8903 31.949 25.1666 32.2252 25.447 32.5057C25.447 32.0118 25.447 31.5221 25.447 31.0283C25.447 29.848 25.447 28.6636 25.447 27.4833C25.447 26.052 25.447 24.6248 25.447 23.1934C25.447 21.9588 25.447 20.7199 25.447 19.4853C25.447 18.8868 25.4721 18.2799 25.447 17.6772C25.447 17.6689 25.447 17.6605 25.447 17.6521C25.1666 17.9325 24.8903 18.2088 24.6099 18.4892C25.606 18.4892 26.6021 18.4892 27.5982 18.4892C28.9542 18.4892 30.3103 18.4892 31.6663 18.4892C31.7751 18.4892 31.8839 18.4892 31.9927 18.4892C32.0388 18.4892 32.0848 18.4934 32.1309 18.4934C32.2815 18.4975 31.9886 18.4599 32.1936 18.5059C32.2229 18.5143 32.2564 18.5227 32.2857 18.531C32.3108 18.5394 32.4824 18.5896 32.3652 18.5519C32.269 18.5227 32.361 18.5478 32.382 18.5603C32.4196 18.5812 32.4573 18.598 32.495 18.6189C32.5243 18.6357 32.7042 18.7654 32.6205 18.6984C32.5368 18.6315 32.6247 18.7026 32.6331 18.7152C32.6624 18.7445 32.6959 18.7738 32.7252 18.8031C32.7545 18.8365 32.7838 18.8658 32.8131 18.8993C33.0056 19.1211 33.1897 19.3513 33.3781 19.5732C34.3197 20.6948 35.2572 21.8165 36.1989 22.9381C36.6216 23.4445 37.0444 23.9468 37.4671 24.4532C37.5926 24.6039 37.7182 24.7545 37.8479 24.9052C37.8814 24.9429 37.9107 24.9805 37.9442 25.0182C37.9526 25.0266 37.9609 25.0391 37.9693 25.0475C38.007 25.081 37.8898 24.9219 37.9484 25.0224C37.986 25.0894 38.0321 25.1563 38.0698 25.2233C38.0907 25.2609 38.12 25.3656 38.0698 25.2065C38.0823 25.24 38.0907 25.2693 38.1032 25.3028C38.1074 25.3195 38.1786 25.5121 38.1618 25.5288C38.1618 25.5288 38.1493 25.3154 38.1576 25.5079C38.1618 25.5623 38.1618 25.6083 38.1618 25.6544C38.1702 26.0938 38.5427 26.5123 38.9989 26.4914C39.4467 26.4705 39.8443 26.1231 39.8359 25.6544C39.8234 24.9763 39.5806 24.3862 39.1495 23.8673C39.0742 23.7794 39.0031 23.6915 38.9277 23.6036C38.5636 23.1683 38.1953 22.7289 37.8312 22.2936C36.8435 21.1133 35.8516 19.9289 34.8638 18.7487C34.5918 18.4222 34.3197 18.0958 34.0477 17.7735C33.5204 17.1457 32.7503 16.8192 31.9341 16.8151C30.7246 16.8109 29.5109 16.8151 28.3013 16.8151C27.0918 16.8151 25.8781 16.7983 24.6685 16.8151C24.6476 16.8151 24.6267 16.8151 24.6057 16.8151C24.1537 16.8151 23.7687 17.2001 23.7687 17.6521C23.7687 18.146 23.7687 18.6357 23.7687 19.1295C23.7687 20.3098 23.7687 21.4942 23.7687 22.6744C23.7687 24.1058 23.7687 25.533 23.7687 26.9644C23.7687 28.199 23.7687 29.4379 23.7687 30.6725C23.7687 31.2752 23.7519 31.8779 23.7687 32.4806C23.7687 32.4889 23.7687 32.4973 23.7687 32.5057C23.7687 32.9577 24.1537 33.3427 24.6057 33.3427C25.7274 33.3427 26.8449 33.3427 27.9665 33.3427C28.1297 33.3427 28.293 33.3427 28.4562 33.3427C28.9124 33.3427 29.2891 32.9577 29.2932 32.5057C29.2932 32.4178 29.2974 32.3299 29.3016 32.242C29.3058 32.2043 29.31 32.1667 29.3142 32.1248C29.3225 32.0076 29.2849 32.2922 29.3058 32.175C29.3393 32.0076 29.3728 31.8444 29.4272 31.6812C29.4439 31.6351 29.4774 31.4719 29.5151 31.4468C29.5109 31.451 29.4272 31.6351 29.4983 31.4928C29.5151 31.4593 29.5318 31.4259 29.5485 31.3924C29.6239 31.2459 29.7076 31.1036 29.8038 30.9697C29.8164 30.9487 29.8541 30.8901 29.8708 30.8818C29.8666 30.886 29.7369 31.0366 29.8415 30.9236C29.8917 30.8692 29.9378 30.8148 29.988 30.7604C30.0382 30.706 30.0926 30.6558 30.1429 30.6055C30.1763 30.5763 30.2098 30.547 30.2475 30.5135C30.3563 30.4172 30.2517 30.4716 30.2266 30.526C30.2475 30.48 30.3647 30.4256 30.4065 30.4005C30.4735 30.3544 30.5446 30.3126 30.62 30.2707C30.6828 30.2331 30.7497 30.2038 30.8167 30.1703C30.9297 30.1117 30.8502 30.0991 30.7958 30.1745C30.8167 30.1493 30.8962 30.1326 30.9255 30.1242C31.0762 30.0698 31.231 30.028 31.3859 29.9945C31.4235 29.9861 31.4612 29.9819 31.4989 29.9736C31.6161 29.9526 31.4821 29.9485 31.4487 29.9778C31.4905 29.9401 31.6788 29.9568 31.7374 29.9568C31.8965 29.9526 32.0513 29.961 32.2062 29.9736C32.3569 29.9861 32.1727 29.9736 32.156 29.9652C32.1853 29.9778 32.2355 29.9778 32.269 29.9861C32.361 30.0029 32.4531 30.0238 32.5452 30.0489C32.6163 30.0698 32.6875 30.0908 32.7586 30.1159C32.7921 30.1284 32.8298 30.141 32.8633 30.1535C33.0391 30.2163 32.7377 30.0866 32.8424 30.1452C32.9888 30.2247 33.1395 30.2916 33.2776 30.3837C33.3404 30.4256 33.399 30.4674 33.4576 30.5093C33.5497 30.5721 33.3446 30.4005 33.4157 30.48C33.445 30.5135 33.4869 30.5386 33.5204 30.5679C33.6459 30.6767 33.7547 30.7981 33.8636 30.9236C33.9305 30.999 33.9054 30.9194 33.8343 30.8818C33.8636 30.8985 33.897 30.9655 33.9138 30.9948C33.9682 31.0701 34.0142 31.1454 34.0603 31.225C34.1021 31.2961 34.1398 31.3715 34.1775 31.4426C34.1775 31.4384 34.2277 31.5347 34.2235 31.543C34.1775 31.43 34.1691 31.4133 34.2026 31.497C34.2109 31.5138 34.2151 31.5305 34.2235 31.5472C34.2905 31.723 34.3407 31.9072 34.3742 32.0913C34.3825 32.1248 34.3825 32.175 34.3951 32.2043C34.3658 32.129 34.3783 32.0495 34.3909 32.1834C34.3993 32.2922 34.4035 32.3968 34.4076 32.5057C34.4118 32.9577 34.7885 33.3427 35.2447 33.3427C35.906 33.3427 36.5714 33.3427 37.2327 33.3427C37.5968 33.3427 37.9693 33.3595 38.3209 33.2381C39.1747 32.9409 39.7313 32.2169 39.8317 31.3254C39.882 30.8567 39.8443 30.367 39.8443 29.8982C39.8443 29.0403 39.8443 28.1823 39.8443 27.3243C39.8443 26.7676 39.8443 26.2152 39.8443 25.6585C39.8443 25.2191 39.4593 24.8006 39.0072 24.8215C38.5469 24.8382 38.1618 25.1856 38.1618 25.6544ZM11.2589 32.5057C11.2589 32.5936 11.2547 32.6814 11.2506 32.7693C11.2464 32.807 11.2422 32.8447 11.238 32.8865C11.2296 33.0037 11.2673 32.7191 11.2464 32.8363C11.2129 33.0037 11.1794 33.1669 11.125 33.3302C11.1083 33.3762 11.0748 33.5394 11.0371 33.5645C11.0413 33.5604 11.125 33.3762 11.0538 33.5185C11.0371 33.552 11.0204 33.5855 11.0036 33.6189C10.9283 33.7654 10.8446 33.9077 10.7483 34.0417C10.7358 34.0626 10.7023 34.1212 10.6814 34.1295C10.7483 34.0961 10.7776 34.0124 10.7107 34.0877C10.6604 34.1421 10.6144 34.1965 10.5642 34.2509C10.5056 34.3095 10.447 34.3681 10.3884 34.4225C10.3633 34.4476 10.334 34.4686 10.3047 34.4937C10.1959 34.5899 10.3005 34.5355 10.3256 34.4811C10.3047 34.5313 10.1624 34.5983 10.1247 34.6234C10.0619 34.6653 9.99916 34.7029 9.93638 34.7364C9.86523 34.7783 9.7899 34.8117 9.71456 34.8494C9.61411 34.8996 9.7313 34.8745 9.7606 34.8327C9.73967 34.8578 9.66015 34.8745 9.63085 34.8829C9.48019 34.9373 9.32533 34.9792 9.17047 35.0126C9.13281 35.021 9.09514 35.0252 9.05747 35.0336C8.91099 35.0629 9.08677 35.0252 9.1077 35.0294C9.01562 35.0252 8.91099 35.0503 8.81891 35.0503C8.65987 35.0545 8.5092 35.0461 8.35016 35.0336C8.15764 35.021 8.49665 35.0629 8.37109 35.0378C8.33342 35.0294 8.29575 35.0252 8.25809 35.0168C8.17438 35.0001 8.09068 34.9792 8.01116 34.9582C7.93164 34.9373 7.84793 34.908 7.76841 34.8829C7.73493 34.8703 7.69726 34.8578 7.66378 34.8452C7.55915 34.8076 7.80608 34.9206 7.70982 34.862C7.56752 34.7741 7.41266 34.7113 7.27455 34.6234C7.2327 34.5983 7.09458 34.5313 7.07366 34.4811C7.07784 34.4853 7.22851 34.615 7.11551 34.5104C7.08621 34.4853 7.0611 34.4644 7.0318 34.4393C6.91043 34.3304 6.79743 34.2091 6.68861 34.0835C6.58398 33.9663 6.70954 34.1212 6.71791 34.1254C6.70117 34.117 6.66768 34.0542 6.65094 34.0375C6.60909 33.9789 6.56724 33.9161 6.52957 33.8533C6.48772 33.7822 6.44587 33.711 6.4082 33.6357C6.39146 33.6022 6.37472 33.5687 6.35797 33.5352C6.29101 33.4013 6.32031 33.5269 6.36216 33.5562C6.32449 33.5311 6.29101 33.3636 6.27427 33.3218C6.24916 33.2423 6.22405 33.1586 6.20312 33.079C6.18638 33.0037 6.16964 32.9326 6.15708 32.8572C6.13616 32.74 6.13197 32.874 6.16127 32.9074C6.14034 32.8823 6.14871 32.7651 6.14453 32.7359C6.13197 32.581 6.13197 32.422 6.14453 32.2671C6.14871 32.2294 6.1529 32.1918 6.1529 32.1499C6.16545 31.9992 6.1529 32.1792 6.14453 32.2001C6.17801 32.1164 6.17801 32.0076 6.19893 31.9197C6.2366 31.7649 6.28682 31.6142 6.34542 31.4635C6.38309 31.3589 6.27427 31.61 6.32868 31.5096C6.34542 31.4761 6.35797 31.4426 6.37472 31.4091C6.41657 31.3254 6.45842 31.2459 6.50864 31.1664C6.54631 31.1036 6.58816 31.0408 6.63002 30.9822C6.65094 30.9529 6.67187 30.9236 6.6928 30.8943C6.75976 30.7939 6.55887 31.0492 6.68024 30.9111C6.79324 30.7897 6.89787 30.6683 7.02343 30.5553C7.05273 30.5302 7.07784 30.5093 7.10714 30.4842C7.18247 30.4172 7.10295 30.4465 7.06528 30.5135C7.0904 30.4632 7.19503 30.4172 7.24525 30.3879C7.38337 30.2958 7.52985 30.2205 7.68052 30.1452C7.82282 30.074 7.63448 30.1577 7.63448 30.1619C7.64285 30.1494 7.71819 30.1284 7.73911 30.1201C7.81863 30.0908 7.89815 30.0656 7.97767 30.0405C8.04882 30.0196 8.12416 30.0029 8.19531 29.9861C8.23297 29.9778 8.27064 29.9694 8.30831 29.9652C8.50502 29.9317 8.23297 29.9694 8.31249 29.961C8.47991 29.9485 8.64313 29.9359 8.81054 29.9401C8.89006 29.9443 8.9654 29.9485 9.04492 29.9568C9.11607 29.961 9.14955 30.0029 8.99469 29.9485C9.04492 29.9652 9.11188 29.9694 9.1621 29.9778C9.33789 30.0154 9.50948 30.0656 9.67689 30.1284C9.71456 30.141 9.80245 30.2038 9.70619 30.1368C9.59737 30.0615 9.75223 30.1619 9.78152 30.1745C9.85686 30.2121 9.92801 30.2498 9.99916 30.2917C10.0787 30.3377 10.154 30.3879 10.2293 30.4423C10.2377 30.4507 10.3089 30.4884 10.3172 30.5093C10.2293 30.4381 10.2084 30.4256 10.2545 30.4632C10.2754 30.48 10.2963 30.4967 10.3172 30.5177C10.4512 30.6307 10.5684 30.7562 10.6855 30.886C10.6897 30.8943 10.6981 30.8985 10.7023 30.9069C10.7567 30.978 10.7483 30.9613 10.673 30.865C10.7023 30.8818 10.7358 30.9487 10.7525 30.978C10.8069 31.0534 10.853 31.1287 10.899 31.2082C10.9408 31.2794 10.9785 31.3547 11.0162 31.4259C11.0162 31.4217 11.0664 31.5179 11.0622 31.5263C11.0162 31.4133 11.0078 31.3966 11.0413 31.4803C11.0497 31.497 11.0538 31.5138 11.0622 31.5305C11.1292 31.7063 11.1794 31.8904 11.2129 32.0746C11.2213 32.1081 11.2213 32.1583 11.2338 32.1876C11.2045 32.1122 11.2171 32.0327 11.2296 32.1667C11.2547 32.288 11.2589 32.3968 11.2589 32.5057C11.2631 32.9451 11.6398 33.3636 12.096 33.3427C12.548 33.3218 12.9372 32.9744 12.933 32.5057C12.9163 30.706 11.7821 29.1407 10.1038 28.5171C8.50083 27.9228 6.55468 28.4585 5.47488 29.781C4.34486 31.1622 4.13978 33.1335 5.07728 34.682C6.0106 36.2222 7.80608 36.9797 9.56389 36.6491C11.5184 36.2808 12.9205 34.4644 12.9372 32.5098C12.9414 32.0704 12.548 31.6519 12.1002 31.6728C11.6398 31.6853 11.2631 32.0327 11.2589 32.5057Z" fill="white"/>
<path d="M34.4054 32.5065C34.4054 32.5944 34.4013 32.6823 34.3971 32.7702C34.3929 32.8078 34.3887 32.8455 34.3845 32.8873C34.3762 33.0045 34.4138 32.7199 34.3929 32.8371C34.3594 33.0045 34.3259 33.1678 34.2715 33.331C34.2548 33.377 34.2213 33.5402 34.1836 33.5654C34.1878 33.5612 34.2715 33.377 34.2004 33.5193C34.1836 33.5528 34.1669 33.5863 34.1501 33.6198C34.0748 33.7662 33.9911 33.9085 33.8948 34.0425C33.8823 34.0634 33.8488 34.122 33.8279 34.1304C33.8948 34.0969 33.9241 34.0174 33.8572 34.0885C33.807 34.1429 33.7609 34.1973 33.7107 34.2517C33.6521 34.3103 33.5935 34.3689 33.5349 34.4233C33.5098 34.4484 33.4805 34.4694 33.4512 34.4945C33.3424 34.5907 33.447 34.5363 33.4721 34.4819C33.4512 34.5321 33.3089 34.5991 33.2712 34.6242C33.2085 34.6661 33.1457 34.7037 33.0829 34.7372C33.0118 34.7791 32.9364 34.8126 32.8611 34.8502C32.7606 34.9005 32.8778 34.8753 32.9071 34.8335C32.8862 34.8586 32.8067 34.8753 32.7774 34.8837C32.6267 34.9381 32.4719 34.98 32.317 35.0135C32.2793 35.0218 32.2417 35.026 32.204 35.0344C32.0575 35.0637 32.2333 35.026 32.2542 35.0302C32.1621 35.026 32.0575 35.0511 31.9654 35.0511C31.8064 35.0553 31.6557 35.0469 31.4967 35.0344C31.3042 35.0218 31.6432 35.0637 31.5176 35.0386C31.4799 35.0302 31.4423 35.026 31.4046 35.0176C31.3209 35.0009 31.2372 34.98 31.1577 34.959C31.0782 34.9381 30.9945 34.9088 30.9149 34.8837C30.8814 34.8712 30.8438 34.8586 30.8103 34.846C30.7057 34.8084 30.9526 34.9214 30.8563 34.8628C30.714 34.7749 30.5592 34.7121 30.4211 34.6242C30.3792 34.5991 30.2411 34.5321 30.2202 34.4819C30.2244 34.4861 30.375 34.6159 30.262 34.5112C30.2327 34.4861 30.2076 34.4652 30.1783 34.4401C30.0569 34.3313 29.9439 34.2099 29.8351 34.0843C29.7305 33.9671 29.8561 34.122 29.8644 34.1262C29.8477 34.1178 29.8142 34.055 29.7975 34.0383C29.7556 33.9797 29.7138 33.9169 29.6761 33.8541C29.6342 33.783 29.5924 33.7118 29.5547 33.6365C29.538 33.603 29.5212 33.5695 29.5045 33.5361C29.4375 33.4021 29.4668 33.5277 29.5087 33.557C29.471 33.5319 29.4375 33.3645 29.4208 33.3226C29.3957 33.2431 29.3706 33.1594 29.3496 33.0799C29.3329 33.0045 29.3162 32.9334 29.3036 32.858C29.2827 32.7409 29.2785 32.8748 29.3078 32.9083C29.2869 32.8832 29.2952 32.766 29.291 32.7367C29.2785 32.5818 29.2785 32.4228 29.291 32.2679C29.2952 32.2303 29.2994 32.1926 29.2994 32.1507C29.312 32.0001 29.2994 32.18 29.291 32.201C29.3245 32.1173 29.3245 32.0084 29.3455 31.9205C29.3831 31.7657 29.4333 31.615 29.4919 31.4643C29.5296 31.3597 29.4208 31.6108 29.4752 31.5104C29.4919 31.4769 29.5045 31.4434 29.5212 31.4099C29.5631 31.3262 29.6049 31.2467 29.6552 31.1672C29.6928 31.1044 29.7347 31.0416 29.7765 30.983C29.7975 30.9537 29.8184 30.9244 29.8393 30.8952C29.9063 30.7947 29.7054 31.05 29.8268 30.9119C29.9398 30.7905 30.0444 30.6691 30.17 30.5561C30.1992 30.531 30.2244 30.5101 30.2537 30.485C30.329 30.418 30.2495 30.4473 30.2118 30.5143C30.2369 30.4641 30.3415 30.418 30.3918 30.3887C30.5299 30.2967 30.6764 30.2213 30.827 30.146C30.9693 30.0748 30.781 30.1585 30.781 30.1627C30.7894 30.1502 30.8647 30.1292 30.8856 30.1209C30.9652 30.0916 31.0447 30.0665 31.1242 30.0414C31.1953 30.0204 31.2707 30.0037 31.3418 29.9869C31.3795 29.9786 31.4172 29.9702 31.4548 29.966C31.6515 29.9325 31.3795 29.9702 31.459 29.9618C31.6264 29.9493 31.7897 29.9367 31.9571 29.9409C32.0366 29.9451 32.1119 29.9493 32.1914 29.9577C32.2626 29.9618 32.2961 30.0037 32.1412 29.9493C32.1914 29.966 32.2584 29.9702 32.3086 29.9786C32.4844 30.0162 32.656 30.0665 32.8234 30.1292C32.8611 30.1418 32.949 30.2046 32.8527 30.1376C32.7439 30.0623 32.8987 30.1627 32.928 30.1753C33.0034 30.213 33.0745 30.2506 33.1457 30.2925C33.2252 30.3385 33.3005 30.3887 33.3759 30.4431C33.3842 30.4515 33.4554 30.4892 33.4638 30.5101C33.3759 30.439 33.3549 30.4264 33.401 30.4641C33.4219 30.4808 33.4428 30.4976 33.4638 30.5185C33.5977 30.6315 33.7149 30.757 33.8321 30.8868C33.8363 30.8952 33.8446 30.8993 33.8488 30.9077C33.9032 30.9789 33.8948 30.9621 33.8195 30.8659C33.8488 30.8826 33.8823 30.9496 33.899 30.9789C33.9534 31.0542 33.9995 31.1295 34.0455 31.209C34.0874 31.2802 34.125 31.3555 34.1627 31.4267C34.1627 31.4225 34.2129 31.5188 34.2087 31.5271C34.1627 31.4141 34.1543 31.3974 34.1878 31.4811C34.1962 31.4978 34.2004 31.5146 34.2087 31.5313C34.2757 31.7071 34.3259 31.8912 34.3594 32.0754C34.3678 32.1089 34.3678 32.1591 34.3803 32.1884C34.351 32.1131 34.3636 32.0335 34.3762 32.1675C34.4013 32.2888 34.4054 32.3977 34.4054 32.5065C34.4096 32.9459 34.7863 33.3645 35.2425 33.3435C35.6945 33.3226 36.0837 32.9752 36.0796 32.5065C36.0628 30.7068 34.9286 29.1415 33.2503 28.5179C31.6474 27.9236 29.7012 28.4593 28.6214 29.7819C27.4914 31.163 27.2863 33.1343 28.2238 34.6828C29.1571 36.223 30.9526 36.9805 32.7104 36.6499C34.6649 36.2816 36.067 34.4652 36.0837 32.5107C36.0879 32.0712 35.6945 31.6527 35.2467 31.6736C34.7863 31.6862 34.4096 32.0335 34.4054 32.5065ZM20.1295 12.2414C20.1295 12.4256 20.1253 12.6097 20.1127 12.7939C20.1086 12.8901 20.1002 12.9864 20.0876 13.0827C20.0834 13.1413 20.0751 13.1957 20.0667 13.2543C20.05 13.4259 20.096 13.0743 20.0667 13.2584C19.9997 13.6686 19.9118 14.0746 19.7905 14.4722C19.7319 14.6605 19.6691 14.8447 19.5938 15.0246C19.5812 15.0581 19.5687 15.1293 19.5435 15.1544C19.5561 15.1209 19.5728 15.0874 19.5854 15.0581C19.5728 15.0916 19.5561 15.1251 19.5394 15.1586C19.4933 15.259 19.4473 15.3595 19.3971 15.4599C19.2171 15.8198 19.012 16.1714 18.7818 16.502C18.7316 16.5774 18.673 16.6485 18.6228 16.7238C18.514 16.8745 18.7149 16.615 18.6353 16.7071C18.606 16.7406 18.5767 16.7783 18.5516 16.8159C18.4261 16.9708 18.2921 17.1214 18.154 17.2679C17.8778 17.5609 17.5807 17.8288 17.2668 18.0799C17.1161 18.2012 17.4174 17.9711 17.2626 18.0841C17.2333 18.105 17.204 18.1259 17.1747 18.151C17.0868 18.2138 16.9947 18.2766 16.9026 18.3394C16.7352 18.4524 16.5636 18.557 16.3878 18.6574C16.2204 18.7537 16.0488 18.8416 15.8731 18.9253C15.7977 18.963 15.6805 19.0425 15.5968 19.0509C15.7182 19.0425 15.7224 19.0006 15.6429 19.0299C15.5717 19.055 15.5048 19.0843 15.4336 19.1094C15.0486 19.2517 14.651 19.3689 14.245 19.4526C14.1529 19.4736 14.0567 19.4903 13.9646 19.507C13.9185 19.5154 13.8725 19.5238 13.8223 19.528C13.7302 19.5405 13.7009 19.5949 13.8474 19.528C13.7762 19.5656 13.6423 19.5531 13.5586 19.5615C13.4414 19.574 13.3284 19.5824 13.2112 19.5866C12.7843 19.6075 12.3532 19.5949 11.9263 19.5489C11.8803 19.5447 11.7966 19.5489 11.7548 19.528C11.8971 19.5991 11.8719 19.5447 11.7799 19.528C11.6752 19.5112 11.5748 19.4945 11.4702 19.4736C11.2651 19.4359 11.0642 19.3857 10.8633 19.3313C10.675 19.281 10.4866 19.2224 10.3025 19.1555C10.2062 19.122 10.1099 19.0843 10.0137 19.0467C10.0011 19.0425 9.92579 19.0216 9.90905 19.0048C10.0221 19.055 10.0388 19.0592 9.95509 19.0257C9.9216 19.009 9.88812 18.9964 9.85464 18.9797C9.48634 18.8123 9.13059 18.6198 8.79158 18.398C8.63673 18.2975 8.49024 18.1929 8.33957 18.0841C8.18472 17.9711 8.48606 18.2012 8.33539 18.0799C8.30609 18.0589 8.27679 18.0338 8.25168 18.0129C8.15961 17.9376 8.06753 17.8622 7.97964 17.7827C7.68667 17.5232 7.41044 17.2428 7.15933 16.9415C7.09236 16.8661 7.03377 16.7866 6.97099 16.7071C6.89147 16.615 7.09236 16.8745 6.98354 16.7238C6.95006 16.6778 6.91658 16.636 6.88728 16.5899C6.7701 16.4267 6.65709 16.2593 6.55246 16.0877C6.45201 15.9245 6.35575 15.7529 6.26786 15.5813C6.22182 15.4892 6.17579 15.4013 6.13393 15.3092C6.11719 15.2757 6.10464 15.2423 6.0879 15.2088C6.07115 15.1753 6.0586 15.1418 6.04186 15.1083C6.00419 15.0246 6.01256 15.0414 6.06278 15.1544C6.01675 15.1083 5.98326 14.9577 5.96234 14.8949C5.92886 14.807 5.89956 14.7191 5.87026 14.6312C5.79911 14.4178 5.73633 14.2001 5.68192 13.9825C5.63589 13.7983 5.59822 13.6142 5.56474 13.4259C5.55637 13.3714 5.548 13.3129 5.53962 13.2584C5.51451 13.1036 5.53963 13.3003 5.54381 13.3087C5.49777 13.2208 5.51451 13.0324 5.50614 12.9362C5.47266 12.547 5.46848 12.1577 5.49359 11.7685C5.50196 11.6639 5.51033 11.555 5.5187 11.4504C5.52288 11.4044 5.53125 11.3542 5.53544 11.3081C5.55637 11.1072 5.50614 11.5006 5.53544 11.3039C5.56892 11.0947 5.6024 10.8896 5.64844 10.6845C5.74052 10.2827 5.86189 9.88512 6.01256 9.50008C6.0293 9.45823 6.05023 9.41219 6.06278 9.37034C6.10464 9.25733 5.97489 9.56286 6.05441 9.39126C6.09208 9.30756 6.12975 9.22385 6.1716 9.14015C6.26786 8.93925 6.37249 8.74673 6.4855 8.55421C6.57757 8.39517 6.67802 8.24031 6.78265 8.08964C6.83287 8.01431 6.88728 7.93898 6.94169 7.86364C6.97099 7.82597 7.00447 7.7632 7.04214 7.72971C6.9668 7.82597 6.95843 7.83853 7.01284 7.76738C7.02958 7.74645 7.04632 7.72553 7.06306 7.7046C7.31 7.39908 7.58204 7.11029 7.87082 6.84662C8.01731 6.70851 8.17216 6.58295 8.3312 6.45321C8.44839 6.35695 8.29772 6.47413 8.29353 6.4825C8.31446 6.44902 8.39398 6.40717 8.42746 6.38206C8.51535 6.31928 8.60743 6.25231 8.69951 6.19372C9.03433 5.96772 9.39008 5.76682 9.75838 5.59523C9.82116 5.56593 9.94253 5.48641 10.0137 5.48223C9.9802 5.49478 9.94672 5.51152 9.91742 5.52408C9.9509 5.51152 9.98438 5.49478 10.0221 5.48223C10.0555 5.46967 10.0932 5.45293 10.1267 5.44037C10.3359 5.36085 10.5494 5.2897 10.7628 5.22692C10.9428 5.17252 11.127 5.12648 11.3111 5.08881C11.4032 5.06788 11.4953 5.05114 11.5915 5.0344C11.6459 5.02603 11.7045 5.01348 11.7631 5.0051C11.8008 5.00092 11.8385 4.99255 11.8761 4.98836C11.7589 5.00511 11.7296 5.00929 11.7966 5.00092C12.2151 4.95488 12.6337 4.92977 13.0522 4.94233C13.2656 4.94651 13.4791 4.96325 13.6925 4.98418C13.7302 4.98836 13.7679 4.99255 13.8055 4.99673C14.0064 5.01766 13.613 4.96325 13.8097 4.99673C13.9227 5.01348 14.0357 5.0344 14.1487 5.05533C14.5547 5.13485 14.9565 5.24366 15.3457 5.38178C15.4336 5.41526 15.5215 5.44456 15.6052 5.48223C15.6219 5.4906 15.6387 5.49478 15.6554 5.50315C15.7391 5.53663 15.7224 5.53245 15.6094 5.48223C15.6345 5.48223 15.6847 5.51571 15.7098 5.52826C15.9107 5.62034 16.1116 5.7166 16.3041 5.82542C16.6515 6.01794 16.9696 6.24394 17.2961 6.46995C17.3965 6.53691 17.1328 6.3402 17.2793 6.45739C17.3212 6.49087 17.363 6.52436 17.4091 6.56202C17.4802 6.62062 17.5472 6.67921 17.6183 6.74199C17.769 6.87592 17.9155 7.01403 18.0536 7.15633C18.1959 7.29863 18.3298 7.4493 18.4596 7.60415C18.5056 7.65856 18.6144 7.75064 18.6312 7.8176C18.6102 7.78831 18.5893 7.76319 18.5684 7.7339C18.5893 7.76319 18.6144 7.79249 18.6353 7.82179C18.6688 7.86783 18.7023 7.90968 18.7316 7.95572C18.966 8.28635 19.1752 8.63373 19.3594 8.99366C19.4012 9.07737 19.4431 9.16107 19.4808 9.24478C19.5059 9.295 19.5268 9.34523 19.5477 9.39545C19.6105 9.52938 19.5394 9.36197 19.531 9.34941C19.644 9.51264 19.7026 9.78886 19.7654 9.9772C19.8951 10.3748 19.9914 10.7808 20.0541 11.1909C20.0583 11.2286 20.0667 11.2663 20.0709 11.3039C20.1002 11.5048 20.05 11.1072 20.0709 11.3081C20.0793 11.4044 20.0918 11.5006 20.1002 11.5969C20.1211 11.8145 20.1295 12.028 20.1295 12.2414C20.1337 12.6809 20.5145 13.0994 20.9665 13.0785C21.4185 13.0576 21.8078 12.7102 21.8036 12.2414C21.791 10.4041 21.226 8.55839 20.1462 7.06426C19.0497 5.54919 17.5472 4.40661 15.7852 3.77045C12.2821 2.51487 8.15123 3.67419 5.83259 6.58714C4.64398 8.07709 3.94085 9.86001 3.82785 11.7685C3.71903 13.5807 4.19197 15.4348 5.14621 16.975C6.08371 18.49 7.48578 19.7498 9.12222 20.4655C10.901 21.2439 12.8513 21.4574 14.7556 21.0472C18.3131 20.2813 21.1758 17.247 21.699 13.6435C21.7659 13.1747 21.812 12.7102 21.812 12.2372C21.812 11.7978 21.4269 11.3793 20.9749 11.4002C20.5145 11.4253 20.1295 11.7727 20.1295 12.2414Z" fill="white"/>
<path d="M11.9725 7.41468C11.9725 8.82511 11.9725 10.2355 11.9725 11.646C11.9725 11.8469 11.9641 12.052 11.9725 12.2528C11.9892 12.6295 12.1817 12.8262 12.4161 13.0606C12.9811 13.6256 13.5461 14.1864 14.107 14.7515C14.5799 15.2244 15.0528 15.6973 15.5258 16.1703C15.8355 16.48 16.4047 16.5051 16.7102 16.1703C17.0157 15.8354 17.0408 15.3165 16.7102 14.9858C15.7434 14.019 14.7766 13.0522 13.814 12.0896C13.6759 11.9515 13.5419 11.8176 13.4038 11.6795C13.4875 11.8762 13.5671 12.0729 13.6508 12.2696C13.6508 10.855 13.6508 9.44035 13.6508 8.02573C13.6508 7.82483 13.6508 7.61975 13.6508 7.41886C13.6508 6.97941 13.2657 6.56088 12.8137 6.58181C12.3533 6.59855 11.9725 6.94593 11.9725 7.41468Z" fill="white"/>
</svg>
