<svg width="50" height="50" viewBox="0 0 50 50" fill="none" xmlns="http://www.w3.org/2000/svg">
<g clip-path="url(#clip0_1_1551)">
<path d="M48.7774 17.2749C48.612 16.7697 48.3447 16.3039 47.9919 15.9063C47.6391 15.5086 47.2085 15.1877 46.7266 14.9634L41.9024 12.7173L41.2578 7.43601C41.1933 6.90913 41.0211 6.40116 40.7518 5.9437C40.4826 5.48623 40.1221 5.08907 39.6928 4.7769C39.2634 4.46473 38.7745 4.24424 38.2563 4.12915C37.7381 4.01405 37.2018 4.00682 36.6807 4.10788L31.458 5.12644L27.833 1.23288C27.4709 0.843914 27.0326 0.533701 26.5454 0.321585C26.0581 0.10947 25.5324 0 25.001 0C24.4696 0 23.9439 0.10947 23.4566 0.321585C22.9694 0.533701 22.531 0.843914 22.169 1.23288L18.544 5.12644L13.3213 4.10788C12.7999 4.00622 12.2632 4.013 11.7445 4.12782C11.2259 4.24263 10.7364 4.46301 10.3067 4.77523C9.8769 5.08746 9.51603 5.48483 9.24654 5.9426C8.97705 6.40037 8.8047 6.90873 8.74025 7.43601L8.09572 12.7173L3.2715 14.9634C2.78985 15.1876 2.35953 15.5085 2.00736 15.9063C1.65519 16.3041 1.38872 16.7701 1.22454 17.2754C1.06036 17.7807 1.002 18.3144 1.05309 18.8432C1.10418 19.372 1.26363 19.8846 1.5215 20.3491L4.10255 25.0005L1.5215 29.6528C1.26363 30.1173 1.10418 30.6299 1.05309 31.1587C1.002 31.6875 1.06036 32.2212 1.22454 32.7265C1.38872 33.2318 1.65519 33.6978 2.00736 34.0956C2.35953 34.4934 2.78985 34.8143 3.2715 35.0385L8.09572 37.2846L8.74025 42.5659C8.8047 43.0932 8.97705 43.6015 9.24654 44.0593C9.51603 44.5171 9.8769 44.9144 10.3067 45.2267C10.7364 45.5389 11.2259 45.7593 11.7445 45.8741C12.2632 45.9889 12.7999 45.9957 13.3213 45.894L18.544 44.8755L22.169 48.768C22.531 49.157 22.9694 49.4672 23.4566 49.6793C23.9439 49.8915 24.4696 50.0009 25.001 50.0009C25.5324 50.0009 26.0581 49.8915 26.5454 49.6793C27.0326 49.4672 27.4709 49.157 27.833 48.768L31.459 44.8745L36.6817 45.893C37.203 45.9947 37.7398 45.9879 38.2584 45.8731C38.7771 45.7583 39.2665 45.5379 39.6963 45.2257C40.1261 44.9135 40.4869 44.5161 40.7564 44.0583C41.0259 43.6006 41.1982 43.0922 41.2627 42.5649L41.9072 37.2837L46.7315 35.0376C47.2131 34.8134 47.6434 34.4924 47.9956 34.0946C48.3478 33.6968 48.6142 33.2308 48.7784 32.7255C48.9426 32.2202 49.001 31.6866 48.9499 31.1578C48.8988 30.6289 48.7393 30.1163 48.4815 29.6518L45.8994 25.0005L48.4824 20.3481C48.7392 19.8833 48.8978 19.3707 48.9486 18.8421C48.9993 18.3135 48.941 17.7801 48.7774 17.2749ZM46.2608 19.1157L43.3311 24.3843C43.2264 24.5728 43.1715 24.7848 43.1715 25.0005C43.1715 25.2161 43.2264 25.4282 43.3311 25.6167L46.2608 30.8852C46.3501 31.0451 46.4054 31.2216 46.4233 31.4039C46.4413 31.5861 46.4214 31.7701 46.3649 31.9442C46.3084 32.1184 46.2166 32.2791 46.0952 32.4161C45.9737 32.5532 45.8253 32.6637 45.6592 32.7407L40.1963 35.2798C40.0008 35.3707 39.8317 35.51 39.7049 35.6845C39.5781 35.8589 39.4978 36.0628 39.4717 36.2768L38.7412 42.2583C38.719 42.4394 38.6597 42.6141 38.5671 42.7713C38.4744 42.9286 38.3504 43.0651 38.2028 43.1724C38.0551 43.2796 37.8869 43.3554 37.7088 43.3948C37.5306 43.4343 37.3462 43.4367 37.167 43.4018L31.251 42.2475C31.0394 42.2063 30.8208 42.2196 30.6157 42.2863C30.4107 42.3529 30.226 42.4706 30.0791 42.6284L25.9776 47.0376C25.8531 47.1712 25.7025 47.2777 25.535 47.3505C25.3676 47.4234 25.187 47.461 25.0044 47.461C24.8218 47.461 24.6412 47.4234 24.4738 47.3505C24.3064 47.2777 24.1557 47.1712 24.0313 47.0376L19.9229 42.6284C19.7759 42.4706 19.5913 42.3529 19.3862 42.2863C19.1812 42.2196 18.9626 42.2063 18.751 42.2475L12.8369 43.4009C12.6578 43.4357 12.4734 43.4333 12.2952 43.3939C12.117 43.3544 11.9488 43.2786 11.8012 43.1714C11.6535 43.0641 11.5295 42.9276 11.4369 42.7703C11.3442 42.6131 11.2849 42.4384 11.2627 42.2573L10.5322 36.2759C10.5061 36.0618 10.4258 35.8579 10.2991 35.6835C10.1723 35.509 10.0032 35.3698 9.80763 35.2788L4.34474 32.7397C4.17862 32.6627 4.0302 32.5522 3.90877 32.4151C3.78733 32.2781 3.6955 32.1174 3.63903 31.9433C3.58256 31.7691 3.56266 31.5851 3.58058 31.4029C3.5985 31.2207 3.65386 31.0441 3.74318 30.8843L6.67286 25.6157C6.77752 25.4272 6.83244 25.2151 6.83244 24.9995C6.83244 24.7839 6.77752 24.5718 6.67286 24.3833L3.74318 19.1147C3.65386 18.9549 3.5985 18.7783 3.58058 18.5961C3.56266 18.4139 3.58256 18.2299 3.63903 18.0557C3.6955 17.8815 3.78733 17.7209 3.90877 17.5838C4.0302 17.4468 4.17862 17.3363 4.34474 17.2593L9.80763 14.7202C10.0032 14.6292 10.1723 14.4899 10.2991 14.3155C10.4258 14.141 10.5061 13.9372 10.5322 13.7231L11.2627 7.74167C11.2849 7.56052 11.3442 7.38588 11.4369 7.22863C11.5295 7.07137 11.6535 6.93486 11.8012 6.82759C11.9488 6.72033 12.117 6.6446 12.2952 6.60512C12.4734 6.56564 12.6578 6.56326 12.8369 6.59812L18.751 7.75339C18.9626 7.79463 19.1812 7.7813 19.3862 7.71467C19.5913 7.64804 19.7759 7.53029 19.9229 7.37253L24.0244 2.96335C24.1489 2.82977 24.2995 2.72324 24.4669 2.6504C24.6344 2.57756 24.815 2.53997 24.9976 2.53997C25.1802 2.53997 25.3608 2.57756 25.5282 2.6504C25.6956 2.72324 25.8463 2.82977 25.9707 2.96335L30.0791 7.37253C30.226 7.53029 30.4107 7.64804 30.6157 7.71467C30.8208 7.7813 31.0394 7.79463 31.251 7.75339L37.1651 6.60007C37.3443 6.56491 37.529 6.56707 37.7074 6.60641C37.8858 6.64574 38.0542 6.72142 38.2021 6.82871C38.35 6.93601 38.4742 7.07262 38.5669 7.23003C38.6597 7.38744 38.719 7.56227 38.7412 7.74363L39.4717 13.7251C39.4978 13.9391 39.5781 14.143 39.7049 14.3174C39.8317 14.4919 40.0008 14.6312 40.1963 14.7221L45.6592 17.2612C45.8253 17.3382 45.9737 17.4487 46.0952 17.5858C46.2166 17.7228 46.3084 17.8835 46.3649 18.0577C46.4214 18.2318 46.4413 18.4158 46.4233 18.598C46.4054 18.7803 46.3501 18.9568 46.2608 19.1167V19.1157Z" fill="#FF3D54"/>
<path d="M31.4492 16.5664C31.1818 16.362 30.8441 16.2722 30.5104 16.3167C30.1768 16.3612 29.8744 16.5363 29.6699 16.8037L18.3096 31.6543C18.2083 31.7867 18.134 31.9378 18.0911 32.0989C18.0482 32.26 18.0374 32.428 18.0594 32.5932C18.0814 32.7585 18.1357 32.9178 18.2193 33.0621C18.3028 33.2064 18.414 33.3328 18.5464 33.4341C18.6788 33.5354 18.8299 33.6096 18.991 33.6526C19.1521 33.6955 19.3201 33.7063 19.4853 33.6843C19.6506 33.6623 19.8099 33.608 19.9542 33.5244C20.0985 33.4408 20.2249 33.3297 20.3262 33.1973L31.6865 18.3457C31.8909 18.0783 31.9808 17.7406 31.9363 17.4069C31.8918 17.0733 31.7166 16.7709 31.4492 16.5664ZM30.8457 25.252C29.7267 25.2532 28.6539 25.6983 27.8626 26.4896C27.0714 27.2809 26.6263 28.3537 26.625 29.4727V30.3711C26.625 31.4905 27.0697 32.564 27.8612 33.3556C28.6528 34.1471 29.7263 34.5918 30.8457 34.5918C31.9651 34.5918 33.0387 34.1471 33.8302 33.3556C34.6217 32.564 35.0664 31.4905 35.0664 30.3711V29.4727C35.0651 28.3537 34.62 27.2809 33.8288 26.4896C33.0375 25.6983 31.9647 25.2532 30.8457 25.252ZM32.5273 30.3711C32.5273 30.8171 32.3502 31.2448 32.0348 31.5602C31.7194 31.8756 31.2917 32.0527 30.8457 32.0527C30.3997 32.0527 29.972 31.8756 29.6566 31.5602C29.3412 31.2448 29.1641 30.8171 29.1641 30.3711V29.4727C29.1641 29.0267 29.3412 28.5989 29.6566 28.2836C29.972 27.9682 30.3997 27.791 30.8457 27.791C31.2917 27.791 31.7194 27.9682 32.0348 28.2836C32.3502 28.5989 32.5273 29.0267 32.5273 29.4727V30.3711ZM23.3711 20.5273V19.6289C23.3711 18.5095 22.9264 17.436 22.1349 16.6444C21.3433 15.8529 20.2698 15.4082 19.1504 15.4082C18.031 15.4082 16.9574 15.8529 16.1659 16.6444C15.3744 17.436 14.9297 18.5095 14.9297 19.6289V20.5264C14.9297 21.6458 15.3744 22.7193 16.1659 23.5109C16.9574 24.3024 18.031 24.7471 19.1504 24.7471C20.2698 24.7471 21.3433 24.3024 22.1349 23.5109C22.9264 22.7193 23.3711 21.6458 23.3711 20.5264V20.5273ZM17.4688 20.5273V19.6289C17.4688 19.1829 17.6459 18.7552 17.9613 18.4398C18.2767 18.1244 18.7044 17.9473 19.1504 17.9473C19.5964 17.9473 20.0241 18.1244 20.3395 18.4398C20.6549 18.7552 20.832 19.1829 20.832 19.6289V20.5264C20.832 20.9724 20.6549 21.4001 20.3395 21.7155C20.0241 22.0308 19.5964 22.208 19.1504 22.208C18.7044 22.208 18.2767 22.0308 17.9613 21.7155C17.6459 21.4001 17.4688 20.9724 17.4688 20.5264V20.5273Z" fill="#FF3D54"/>
</g>
<defs>
<clipPath id="clip0_1_1551">
<rect width="50" height="50" fill="white"/>
</clipPath>
</defs>
</svg>
