<svg width="16" height="16" viewBox="0 0 16 16" fill="none" xmlns="http://www.w3.org/2000/svg">
<path d="M13.7136 13.5522H2.28958C1.72379 13.5522 1.18117 13.3275 0.781089 12.9274C0.381011 12.5273 0.15625 11.9847 0.15625 11.4189V4.58158C0.15625 4.01578 0.381011 3.47316 0.781089 3.07308C1.18117 2.673 1.72379 2.44824 2.28958 2.44824H13.7136C14.2794 2.44824 14.822 2.673 15.2221 3.07308C15.6222 3.47316 15.8469 4.01578 15.8469 4.58158V11.4189C15.8469 11.9847 15.6222 12.5273 15.2221 12.9274C14.822 13.3275 14.2794 13.5522 13.7136 13.5522ZM2.28958 2.98158C1.86524 2.98158 1.45827 3.15015 1.15821 3.4502C0.858154 3.75026 0.689583 4.15723 0.689583 4.58158V11.4189C0.689583 11.8433 0.858154 12.2502 1.15821 12.5503C1.45827 12.8503 1.86524 13.0189 2.28958 13.0189H13.7136C14.1379 13.0189 14.5449 12.8503 14.845 12.5503C15.145 12.2502 15.3136 11.8433 15.3136 11.4189V4.58158C15.3136 4.15723 15.145 3.75026 14.845 3.4502C14.5449 3.15015 14.1379 2.98158 13.7136 2.98158H2.28958Z" fill="white"/>
<path d="M7.99794 9.48739C7.53513 9.49009 7.08401 9.34221 6.71261 9.06606L0.483272 4.34873C0.449698 4.33052 0.420427 4.3053 0.397441 4.2748C0.374455 4.24429 0.358291 4.20921 0.350043 4.17191C0.341794 4.13462 0.341653 4.09599 0.34963 4.05863C0.357607 4.02128 0.373515 3.98607 0.396278 3.9554C0.419041 3.92473 0.448127 3.89931 0.481568 3.88085C0.51501 3.8624 0.552025 3.85134 0.59011 3.84843C0.628195 3.84552 0.666461 3.85083 0.702317 3.86399C0.738173 3.87716 0.770782 3.89787 0.797939 3.92473L7.03261 8.63139C7.31051 8.84164 7.64946 8.95541 7.99794 8.95541C8.34642 8.95541 8.68537 8.84164 8.96327 8.63139L15.1979 3.92473C15.2256 3.90168 15.2577 3.88447 15.2922 3.87414C15.3266 3.86381 15.3629 3.86057 15.3987 3.86462C15.4344 3.86868 15.469 3.87994 15.5003 3.89772C15.5317 3.91551 15.559 3.93945 15.5809 3.96811C15.6027 3.99676 15.6184 4.02954 15.6272 4.06446C15.636 4.09938 15.6377 4.13572 15.632 4.17128C15.6264 4.20685 15.6136 4.24091 15.5945 4.27141C15.5753 4.3019 15.5502 4.32821 15.5206 4.34873L9.28327 9.06606C8.91187 9.34221 8.46074 9.49009 7.99794 9.48739Z" fill="white"/>
<path d="M0.575828 12.4374C0.522289 12.4367 0.470192 12.4199 0.426318 12.3892C0.382443 12.3585 0.348823 12.3154 0.329834 12.2653C0.310845 12.2152 0.307366 12.1606 0.31985 12.1085C0.332333 12.0565 0.360202 12.0094 0.399828 11.9734L5.30383 7.59737C5.35722 7.55034 5.42712 7.52644 5.49813 7.53094C5.56915 7.53545 5.63546 7.56797 5.68249 7.62137C5.72953 7.67477 5.75342 7.74466 5.74892 7.81567C5.74442 7.88669 5.71189 7.953 5.65849 8.00004L0.754495 12.3707C0.705192 12.4142 0.641565 12.4379 0.575828 12.4374ZM15.4185 12.4374C15.3528 12.4379 15.2891 12.4142 15.2398 12.3707L10.3358 8.00004C10.3076 7.97738 10.2843 7.94922 10.2673 7.91726C10.2503 7.8853 10.24 7.85021 10.237 7.81414C10.234 7.77807 10.2384 7.74176 10.2498 7.70744C10.2613 7.67311 10.2797 7.64148 10.3038 7.61448C10.3279 7.58748 10.3572 7.56566 10.39 7.55037C10.4229 7.53507 10.4584 7.52662 10.4946 7.52551C10.5308 7.52441 10.5668 7.53069 10.6005 7.54396C10.6342 7.55723 10.6648 7.57722 10.6905 7.6027L15.5945 11.9734C15.6471 12.0205 15.6789 12.0865 15.6829 12.157C15.6869 12.2274 15.6628 12.2966 15.6158 12.3494C15.5909 12.377 15.5605 12.3991 15.5265 12.4143C15.4925 12.4294 15.4557 12.4373 15.4185 12.4374Z" fill="white"/>
</svg>
