<svg width="17" height="17" viewBox="0 0 17 17" fill="none" xmlns="http://www.w3.org/2000/svg">
<g clip-path="url(#clip0_1_4017)">
<path d="M14.7095 10.1353L14.6976 9.97156C14.5077 7.44536 13.4175 5.85472 12.4564 4.45109C11.5497 3.12792 10.7666 1.98439 10.7666 0.283258C10.7666 0.230925 10.7522 0.179606 10.7248 0.134991C10.6975 0.0903757 10.6583 0.0542086 10.6116 0.0304997C10.565 0.00679091 10.5127 -0.00353318 10.4605 0.000672289C10.4083 0.00487775 10.3584 0.0234484 10.3161 0.0543251C8.6365 1.28116 7.23343 3.21236 6.82487 4.85966C6.4809 6.24913 6.27633 7.51789 6.2395 8.47896C4.72707 8.23643 4.54007 6.02813 4.5327 5.92896C4.52915 5.8818 4.51386 5.83627 4.4882 5.79654C4.46255 5.7568 4.42736 5.72412 4.38584 5.70147C4.34432 5.67882 4.29779 5.66693 4.25049 5.66688C4.2032 5.66682 4.15664 5.67861 4.11507 5.70116C4.04423 5.73969 2.3754 6.68433 2.27397 10.2838C2.2666 10.4034 2.2666 10.5229 2.2666 10.6431C2.2666 14.1485 5.0631 16.9999 8.49993 16.9999H8.5141C11.9453 16.992 14.7333 14.1439 14.7333 10.6431C14.7333 10.4657 14.7214 10.3002 14.7095 10.1353ZM6.23327 13.9943C6.23327 13.9484 6.23327 13.9031 6.2361 13.8481C6.25367 13.1965 6.3891 12.776 6.52567 12.5142C6.69227 12.9789 7.0334 13.4435 7.64993 13.4435C7.72508 13.4435 7.79715 13.4137 7.85028 13.3605C7.90342 13.3074 7.93327 13.2353 7.93327 13.1602C7.93327 12.7539 8.02167 12.1476 8.1758 11.497C8.29537 10.9921 8.66313 10.3954 9.1261 9.92566C9.25247 10.5207 9.5596 10.9887 9.85823 11.4455C10.2617 12.0609 10.6788 12.6978 10.7524 13.7206L10.757 13.7915C10.7615 13.8572 10.7666 13.9229 10.7666 13.9943C10.7666 15.339 9.75 16.4333 8.49993 16.4333C7.24987 16.4333 6.23327 15.3396 6.23327 13.9943Z" fill="#FF3D54"/>
</g>
<defs>
<clipPath id="clip0_1_4017">
<rect width="17" height="17" fill="white"/>
</clipPath>
</defs>
</svg>
