<svg width="40" height="40" viewBox="0 0 40 40" fill="none" xmlns="http://www.w3.org/2000/svg">
<g clip-path="url(#clip0_1_568)">
<path fill-rule="evenodd" clip-rule="evenodd" d="M24.3146 1.59716C26.6831 -0.0819207 29.9525 0.174808 31.5595 2.45294C33.1667 4.73123 32.3062 7.90549 29.9369 9.56884C29.6489 9.77096 29.3469 9.95269 29.0335 10.1125C28.9207 10.17 28.796 10.1999 28.6694 10.1998L20.4551 10.1927C20.192 10.1924 19.9459 10.0629 19.7967 9.84611C19.6476 9.62936 19.6146 9.35315 19.7084 9.10735C20.8524 6.11051 21.9954 3.2412 24.3146 1.59716ZM30.2521 3.37524C29.2592 1.96766 27.0428 1.62439 25.2399 2.90245C23.6098 4.058 22.64 6.02375 21.6234 8.59367L28.4718 8.59963C28.6597 8.49618 28.842 8.38256 29.0177 8.25925C30.8198 6.99402 31.2449 4.78263 30.2521 3.37524ZM2.55581 18.8998C2.55581 18.458 2.91398 18.0998 3.35581 18.0998H36.6487C37.0905 18.0998 37.4487 18.458 37.4487 18.8998V35.8284C37.4487 36.7983 37.0634 37.7285 36.3775 38.4144C35.6917 39.1002 34.7615 39.4855 33.7915 39.4855H6.21295C5.24302 39.4855 4.31281 39.1002 3.62696 38.4144C2.94112 37.7285 2.55581 36.7983 2.55581 35.8284V18.8998ZM4.15581 19.6998V35.8284C4.15581 36.374 4.37255 36.8972 4.75834 37.283C5.14412 37.6688 5.66737 37.8855 6.21295 37.8855H33.7915C34.3371 37.8855 34.8604 37.6688 35.2461 37.283C35.6319 36.8972 35.8487 36.374 35.8487 35.8284V19.6998H4.15581Z" fill="white"/>
<path fill-rule="evenodd" clip-rule="evenodd" d="M15.0201 18.8998C15.0201 18.458 15.3783 18.0998 15.8201 18.0998H24.1772C24.6191 18.0998 24.9772 18.458 24.9772 18.8998V38.6855C24.9772 39.1273 24.6191 39.4855 24.1772 39.4855H15.8201C15.3783 39.4855 15.0201 39.1273 15.0201 38.6855V18.8998ZM16.6201 19.6998V37.8855H23.3772V19.6998H16.6201Z" fill="white"/>
<path fill-rule="evenodd" clip-rule="evenodd" d="M14.7728 2.90319C12.9628 1.62448 10.7514 1.96676 9.75119 3.37692C8.75457 4.782 9.18259 6.99261 10.9869 8.25934L10.9935 8.26397C11.164 8.38626 11.3415 8.49836 11.5252 8.59963L18.3865 8.59368C17.3665 6.02129 16.4078 4.05834 14.7728 2.90319ZM8.44615 2.45125C10.0602 0.175708 13.3202 -0.0820097 15.696 1.59642C18.0237 3.24089 19.1534 6.11367 20.3026 9.10583C20.3971 9.3517 20.3644 9.6283 20.2153 9.84544C20.0663 10.0626 19.8199 10.1924 19.5565 10.1927L11.3279 10.1998C11.202 10.1999 11.0779 10.1703 10.9655 10.1134C10.6517 9.95427 10.3504 9.77145 10.0643 9.56653C7.69965 7.90406 6.82923 4.73084 8.44615 2.45125Z" fill="white"/>
<path fill-rule="evenodd" clip-rule="evenodd" d="M3.92723 10.1998C3.18559 10.1998 2.58438 10.801 2.58438 11.5427V16.757C2.58438 17.4986 3.18559 18.0998 3.92723 18.0998H36.0701C36.8117 18.0998 37.4129 17.4986 37.4129 16.757V11.5427C37.4129 10.801 36.8117 10.1998 36.0701 10.1998H3.92723ZM0.984375 11.5427C0.984375 9.91737 2.30194 8.59981 3.92723 8.59981H36.0701C37.6954 8.59981 39.013 9.91737 39.013 11.5427V16.757C39.013 18.3822 37.6954 19.6998 36.0701 19.6998H3.92723C2.30194 19.6998 0.984375 18.3822 0.984375 16.757V11.5427Z" fill="white"/>
<path fill-rule="evenodd" clip-rule="evenodd" d="M14.2629 9.39981C14.2629 8.95798 14.6211 8.59981 15.0629 8.59981H24.9415C25.3833 8.59981 25.7415 8.95798 25.7415 9.39981V18.8998C25.7415 19.3416 25.3833 19.6998 24.9415 19.6998H15.0629C14.6211 19.6998 14.2629 19.3416 14.2629 18.8998V9.39981ZM15.8629 10.1998V18.0998H24.1415V10.1998H15.8629Z" fill="white"/>
</g>
<defs>
<clipPath id="clip0_1_568">
<rect width="40" height="40" fill="white"/>
</clipPath>
</defs>
</svg>
