<svg width="50" height="50" viewBox="0 0 50 50" fill="none" xmlns="http://www.w3.org/2000/svg">
<g clip-path="url(#clip0_1_1506)">
<path d="M35.8382 11.7487C36.1883 11.5701 36.5254 11.3673 36.8471 11.1415C39.4542 9.31115 40.2578 5.94508 38.6328 3.64151C37.0078 1.33794 33.5792 0.962941 30.9721 2.81116C28.365 4.65937 27.0257 7.92723 25.5703 11.7397L35.8382 11.7487ZM4.19531 23.6237H45.8114V44.7844C45.8114 45.7316 45.4351 46.64 44.7653 47.3097C44.0956 47.9795 43.1872 48.3558 42.24 48.3558H7.76674C6.81954 48.3558 5.91113 47.9795 5.24136 47.3097C4.57159 46.64 4.19531 45.7316 4.19531 44.7844V23.6237Z" stroke="#FF3D54" stroke-width="2.5" stroke-linecap="round" stroke-linejoin="round"/>
<path d="M30.2199 23.625H19.7734V48.3571H30.2199V23.625Z" stroke="#FF3D54" stroke-width="2.5" stroke-linecap="round" stroke-linejoin="round"/>
<path d="M14.1615 11.7487C13.8131 11.5721 13.4788 11.3691 13.1615 11.1415C10.5543 9.31115 9.74183 5.94508 11.3758 3.64151C13.0097 1.33794 16.4293 0.962941 19.0454 2.81116C21.6615 4.65937 22.9829 7.92723 24.4472 11.7397L14.1615 11.7487Z" stroke="#FF3D54" stroke-width="2.5" stroke-linecap="round" stroke-linejoin="round"/>
<path d="M45.0876 11.75H4.90904C3.42971 11.75 2.23047 12.9492 2.23047 14.4286V20.9464C2.23047 22.4258 3.42971 23.625 4.90904 23.625H45.0876C46.5669 23.625 47.7662 22.4258 47.7662 20.9464V14.4286C47.7662 12.9492 46.5669 11.75 45.0876 11.75Z" stroke="#FF3D54" stroke-width="2.5" stroke-linecap="round" stroke-linejoin="round"/>
<path d="M31.1802 11.75H18.832V23.625H31.1802V11.75Z" stroke="#FF3D54" stroke-width="2.5" stroke-linecap="round" stroke-linejoin="round"/>
</g>
<defs>
<clipPath id="clip0_1_1506">
<rect width="50" height="50" fill="white"/>
</clipPath>
</defs>
</svg>
