<svg width="17" height="17" viewBox="0 0 17 17" fill="none" xmlns="http://www.w3.org/2000/svg">
<path fill-rule="evenodd" clip-rule="evenodd" d="M9.36119 6.89417C10.1102 6.83143 10.8906 6.67456 11.2553 7.20397C11.6788 7.81966 11.5377 8.4628 11.0161 8.81182C10.5337 9.13731 9.85923 9.25495 9.16512 9.32162C7.7259 9.4628 6.84747 9.31378 7.12982 7.97652C7.2161 7.56476 7.22786 7.40005 7.49061 7.17652C7.70237 6.99613 8.13767 6.88633 8.44747 7.01574C8.74159 7.14123 8.70629 7.47456 8.82394 7.80005C9.21218 8.84711 10.1063 9.05495 9.7259 8.59221C9.44747 8.25495 8.96512 7.47064 9.35727 6.89025L9.36119 6.89417ZM16.8867 5.56868V3.84319C16.7259 3.58437 16.8239 3.49025 16.3886 3.49025C14.9534 3.49025 5.16512 3.54123 4.99649 3.4628C4.49845 3.24319 4.57296 3.32946 3.93374 3.25888L3.85139 3.12946C3.30629 3.12554 3.53374 3.12554 3.33766 3.24319C3.11414 3.16476 2.99649 3.17652 2.72982 3.16868C2.69453 3.00397 2.68276 2.90594 2.49453 2.9177C2.42394 3.01574 2.46708 2.96868 2.43178 3.08633C2.42002 3.12554 2.42786 3.1177 2.40825 3.16084C2.33766 3.33339 2.26315 3.35692 2.42786 3.51378C2.25923 3.64711 2.31414 3.67848 2.20825 3.85495C2.06708 3.79613 1.87492 3.63927 1.75727 3.61182C1.56904 3.56868 1.39257 3.71378 1.35727 3.87456C1.31414 4.06672 1.49061 4.23927 1.57688 4.32554C1.72198 4.47848 1.75727 4.55692 1.91414 4.68241C1.9259 4.87456 1.82002 5.2275 1.77688 5.42358C1.60433 6.20397 1.05923 6.21966 0.145508 6.34123L0.149429 6.5177C0.270998 6.59613 0.772959 6.70594 1.00041 6.8275C2.12982 7.43927 1.69845 8.35692 1.40433 9.20005C1.1259 9.98829 0.423939 11.9648 0.286684 12.6942C0.0592333 13.8902 0.180802 13.8942 1.02002 14.0824C1.70237 14.2353 2.26315 14.353 3.00825 14.3844C5.65923 14.4981 5.49061 14.4785 5.44747 13.455C5.4161 12.7177 5.82002 11.2902 6.0161 10.5883C6.24355 9.77652 6.29061 9.49809 7.27884 9.58829C8.4357 9.69417 10.4435 9.67064 11.2788 9.07848C12.0357 8.54123 11.8122 7.94907 11.9416 7.41574C12.2475 6.13731 13.7808 7.07848 14.5416 6.63143C14.7337 6.5177 15.8161 6.57652 16.2239 6.58045C16.4671 6.58045 16.5494 6.60397 16.6435 6.43927C16.8514 6.07848 16.7494 5.68241 16.8867 5.56868Z" fill="#FF3D54"/>
</svg>
