<svg width="14" height="14" viewBox="0 0 14 14" fill="none" xmlns="http://www.w3.org/2000/svg">
<g clip-path="url(#clip0_1_624)">
<path d="M3.1335 13.7173C2.98011 13.7173 2.8278 13.6694 2.6978 13.5754C2.45565 13.4 2.34254 13.0983 2.40844 12.8072L3.3091 8.83984L0.25464 6.16115C0.0301159 5.96514 -0.055656 5.65474 0.0365247 5.37072C0.128705 5.08724 0.379505 4.88653 0.676449 4.85908L4.71787 4.49217L6.31571 0.752926C6.43353 0.4782 6.70184 0.300781 6.99996 0.300781C7.29808 0.300781 7.5664 0.4782 7.68421 0.752285L9.28205 4.49217L13.3228 4.85908C13.6204 4.88589 13.8712 5.08724 13.9634 5.37072C14.0556 5.65421 13.9703 5.96514 13.7458 6.16115L10.6914 8.8393L11.592 12.8066C11.658 13.0983 11.5448 13.4 11.3028 13.5749C11.0613 13.7499 10.7392 13.7633 10.4849 13.6105L6.99996 11.5279L3.51504 13.6117C3.39722 13.6816 3.26595 13.7173 3.1335 13.7173ZM6.99996 10.6308C7.13241 10.6308 7.26358 10.6664 7.3815 10.7363L10.6704 12.7034L9.82039 8.95883C9.75972 8.69232 9.85019 8.41407 10.0561 8.23377L12.9402 5.70441L9.1245 5.3579C8.84977 5.3328 8.6135 5.16008 8.50615 4.90693L6.99996 1.37822L5.49196 4.90747C5.38578 5.15891 5.14951 5.33163 4.87543 5.35673L1.05916 5.70323L3.94315 8.2326C4.14973 8.41343 4.24009 8.69115 4.17889 8.95829L3.3295 12.7028L6.61842 10.7363C6.73624 10.6664 6.86751 10.6308 6.99996 10.6308ZM4.68701 4.56449C4.68701 4.56449 4.68701 4.56513 4.68636 4.56566L4.68701 4.56449ZM9.31174 4.56278L9.31238 4.56395C9.31238 4.56331 9.31238 4.56331 9.31174 4.56278Z" fill="#FF3D54"/>
<path d="M3.13349 14C2.98011 14 2.82779 13.9501 2.6978 13.852C2.45565 13.6689 2.34254 13.3541 2.40844 13.0504L3.3091 8.91042L0.254639 6.11523C0.0301158 5.91071 -0.0556559 5.5868 0.0365247 5.29043C0.128705 4.99462 0.379505 4.78519 0.676448 4.75654L4.71787 4.37368L6.3157 0.471809C6.43352 0.185134 6.70184 0 6.99995 0C7.29807 0 7.56639 0.185135 7.6842 0.47114L9.28204 4.37368L13.3228 4.75654C13.6204 4.78452 13.8712 4.99462 13.9634 5.29043C14.0556 5.58625 13.9703 5.91071 13.7458 6.11523L10.6913 8.90986L11.592 13.0497C11.658 13.3541 11.5448 13.6689 11.3027 13.8514C11.0612 14.034 10.7392 14.048 10.4849 13.8885L6.99995 11.7154L3.51503 13.8898C3.39722 13.9628 3.26594 14 3.13349 14ZM6.99995 10.7793C7.1324 10.7793 7.26357 10.8164 7.38149 10.8894L10.6704 12.942L9.82038 9.03458C9.75971 8.75649 9.85018 8.46614 10.0561 8.278L12.9402 5.63863L9.12449 5.27706C8.84976 5.25086 8.61349 5.07063 8.50614 4.80647L6.99995 1.12429L5.49195 4.80703C5.38578 5.06941 5.14951 5.24964 4.87542 5.27583L1.05916 5.63741L3.94315 8.27677C4.14972 8.46547 4.24009 8.75527 4.17888 9.03403L3.3295 12.9414L6.61841 10.8894C6.73623 10.8164 6.8675 10.7793 6.99995 10.7793ZM4.687 4.44913C4.687 4.44913 4.687 4.4498 4.68636 4.45036L4.687 4.44913ZM9.31173 4.44735L9.31237 4.44858C9.31237 4.44791 9.31237 4.44791 9.31173 4.44735Z" fill="#FF3D54"/>
<g clip-path="url(#clip1_1_624)">
<path d="M13.9634 5.37003C13.8712 5.08655 13.6198 4.88585 13.3235 4.85904L9.28209 4.49214L7.68491 0.752815C7.56699 0.478091 7.29867 0.300781 7.00002 0.300781C6.70137 0.300781 6.43295 0.478091 6.31577 0.752815L4.71859 4.49214L0.676564 4.85904C0.380264 4.88638 0.129359 5.08709 0.0366454 5.37003C-0.0555345 5.65352 0.0295957 5.96445 0.25369 6.16099L3.30866 8.83976L2.4079 12.807C2.342 13.0987 2.45522 13.4004 2.69726 13.5753C2.82736 13.6699 2.98021 13.7171 3.13359 13.7171C3.2654 13.7171 3.39731 13.682 3.51513 13.6115L7.00002 11.5278L10.4843 13.6115C10.7399 13.7643 11.0613 13.7503 11.3028 13.5753C11.5448 13.4004 11.658 13.0987 11.5921 12.807L10.6914 8.83976L13.7463 6.16099C13.9703 5.96445 14.0556 5.65416 13.9634 5.37003Z" fill="#FF3D54"/>
</g>
</g>
<defs>
<clipPath id="clip0_1_624">
<rect width="14" height="14" fill="white"/>
</clipPath>
<clipPath id="clip1_1_624">
<rect width="7" height="14" fill="white"/>
</clipPath>
</defs>
</svg>
