<svg width="40" height="40" viewBox="0 0 40 40" fill="none" xmlns="http://www.w3.org/2000/svg">
<path d="M26 23H13.9989C13.4469 23.0004 12.9996 23.448 13 24C13.0046 27.864 16.136 30.9954 20 31C23.864 30.9954 26.9954 27.864 27 24V23.9988C26.9996 23.4469 26.552 22.9996 26 23ZM21.0017 28.8987C18.2953 29.4519 15.6528 27.7064 15.0996 25H24.9004C24.4991 26.9631 22.9648 28.4973 21.0017 28.8987ZM17 16C17 14.3431 15.6569 13 14 13C12.3431 13 11 14.3431 11 16C11 17.6569 12.3431 19 14 19C15.6561 18.9982 16.9982 17.6561 17 16ZM13 16C13 15.4478 13.4478 15 14 15C14.5519 15.0011 14.9989 15.4481 15 16C15 16.5522 14.5522 17 14 17C13.4478 17 13 16.5522 13 16ZM26 13C24.3431 13 23 14.3431 23 16C23 17.6569 24.3431 19 26 19C27.6561 18.9982 28.9982 17.6561 29 16C29 14.3431 27.6569 13 26 13ZM26 17C25.4478 17 25 16.5522 25 16C25 15.4478 25.4478 15 26 15C26.5519 15.0011 26.9989 15.4481 27 16C27 16.5522 26.5522 17 26 17ZM20 0C8.95435 0 0 8.95435 0 20C0 31.0457 8.95435 40 20 40C31.0403 39.9871 39.9871 31.0403 40 20C40 8.95435 31.0457 0 20 0ZM20 38C10.0588 38 2 29.9412 2 20C2 10.0588 10.0588 2 20 2C29.9366 2.01086 37.9891 10.0634 38 20C38 29.9412 29.9412 38 20 38Z" fill="#FF3D54"/>
</svg>
