<svg width="17" height="15" viewBox="0 0 17 15" fill="none" xmlns="http://www.w3.org/2000/svg">
<path d="M8.5 14.7858C8.33557 14.7858 8.19643 14.7289 8.08259 14.615L2.16295 8.90409C2.0997 8.85349 2.01274 8.77128 1.90206 8.65744C1.79139 8.5436 1.61589 8.33647 1.37556 8.03606C1.13523 7.73565 0.920201 7.42734 0.730469 7.11112C0.540737 6.7949 0.371559 6.41227 0.222935 5.96324C0.0743118 5.51421 0 5.07782 0 4.65409C0 3.26272 0.4016 2.17492 1.2048 1.39069C2.008 0.606469 3.11793 0.214355 4.5346 0.214355C4.92671 0.214355 5.32673 0.282343 5.73465 0.418318C6.14258 0.554292 6.52204 0.7377 6.87305 0.968541C7.22405 1.19938 7.52604 1.41599 7.77902 1.61837C8.03199 1.82075 8.27232 2.03578 8.5 2.26346C8.72768 2.03578 8.96801 1.82075 9.22098 1.61837C9.47396 1.41599 9.77595 1.19938 10.127 0.968541C10.478 0.7377 10.8574 0.554292 11.2653 0.418318C11.6733 0.282343 12.0733 0.214355 12.4654 0.214355C13.8821 0.214355 14.992 0.606469 15.7952 1.39069C16.5984 2.17492 17 3.26272 17 4.65409C17 6.05178 16.2759 7.47477 14.8276 8.92306L8.91741 14.615C8.80357 14.7289 8.66443 14.7858 8.5 14.7858Z" fill="#FF3D54"/>
</svg>
