<svg width="30" height="30" viewBox="0 0 30 30" fill="none" xmlns="http://www.w3.org/2000/svg">
<path d="M25.5126 4.40292C24.2044 2.12078 21.8773 0.677561 19.2866 0.545776C19.0005 0.532919 18.7112 0.532919 18.4251 0.545776C15.8344 0.677561 13.5073 2.12078 12.1991 4.40292C11.9612 4.82078 11.7651 5.25149 11.6076 5.69185C11.5948 5.69185 11.5851 5.69185 11.5723 5.68863C11.2862 5.67578 10.9969 5.67578 10.7109 5.68863C8.12015 5.82042 5.793 7.26363 4.48479 9.54578C3.13479 11.9083 3.07693 14.7529 4.3305 17.154L10.5726 29.1176C10.6819 29.3329 10.9005 29.4647 11.1416 29.4647C11.3826 29.4647 11.6012 29.3329 11.7105 29.1176L16.3391 20.2461L18.2869 23.9747C18.3962 24.1901 18.6148 24.3218 18.8559 24.3218C19.0969 24.3218 19.3155 24.1901 19.4248 23.9747L25.6701 12.0111C26.9205 9.61006 26.8626 6.76542 25.5126 4.40292ZM11.1416 27.4333L5.46836 16.5593C4.4205 14.5472 4.46872 12.1654 5.60336 10.1854C6.70586 8.25363 8.59265 7.08363 10.7784 6.97435C10.8973 6.96792 11.0194 6.9647 11.1416 6.9647C11.2637 6.9647 11.3859 6.96792 11.5048 6.97435C13.6905 7.08363 15.5773 8.25685 16.6798 10.1854C17.8144 12.1654 17.8627 14.5472 16.8148 16.5593L11.1416 27.4333ZM16.9434 8.3372C17.0591 7.38256 17.8723 6.64328 18.8559 6.64328C19.9198 6.64328 20.7844 7.50792 20.7844 8.57185C20.7844 9.63578 19.9198 10.5004 18.8559 10.5004C18.6309 10.5004 18.4155 10.4586 18.213 10.3879C18.0909 10.1018 17.9527 9.8222 17.7984 9.54578C17.5476 9.11185 17.2616 8.70685 16.9434 8.3372ZM24.5291 11.4165L18.8559 22.2904L17.0655 18.8576L17.9559 17.154C18.8302 15.4729 19.0648 13.5733 18.6598 11.7765C18.7273 11.7797 18.7916 11.7861 18.8559 11.7861C20.6269 11.7861 22.0702 10.3429 22.0702 8.57185C22.0702 6.80078 20.6269 5.35756 18.8559 5.35756C17.5252 5.35756 16.3809 6.17078 15.8923 7.3247C15.0212 6.63042 14.0055 6.13542 12.9126 5.88149C13.0284 5.59542 13.1601 5.31578 13.3176 5.04256C14.4201 3.11078 16.3069 1.94078 18.4927 1.83149C18.7337 1.81863 18.978 1.81863 19.2191 1.83149C21.4048 1.94078 23.2916 3.11399 24.3941 5.04256C25.5287 7.02256 25.5769 9.40435 24.5291 11.4165ZM11.1416 10.5004C9.3705 10.5004 7.92729 11.9436 7.92729 13.7147C7.92729 15.4858 9.3705 16.929 11.1416 16.929C12.9126 16.929 14.3559 15.4858 14.3559 13.7147C14.3559 11.9436 12.9126 10.5004 11.1416 10.5004ZM11.1416 15.6433C10.0776 15.6433 9.21301 14.7786 9.21301 13.7147C9.21301 12.6508 10.0776 11.7861 11.1416 11.7861C12.2055 11.7861 13.0701 12.6508 13.0701 13.7147C13.0701 14.7786 12.2055 15.6433 11.1416 15.6433Z" fill="white"/>
</svg>
