<svg width="16" height="16" viewBox="0 0 16 16" fill="none" xmlns="http://www.w3.org/2000/svg">
<path d="M7.99844 15.8995L7.69844 15.5328C7.49844 15.2662 2.39844 9.29949 2.39844 5.73282C2.39844 2.63282 4.93177 0.132812 7.99844 0.132812C11.0651 0.132812 13.5984 2.66615 13.5984 5.73282C13.5984 9.29949 8.49844 15.2995 8.29844 15.5328L7.99844 15.8995ZM7.99844 0.899485C5.33177 0.899485 3.19844 3.06615 3.19844 5.69948C3.19844 8.49948 6.89844 13.2661 7.99844 14.6328C9.09844 13.2661 12.7984 8.53282 12.7984 5.69948C12.7984 3.06615 10.6651 0.899485 7.99844 0.899485Z" fill="white"/>
<path d="M8.00052 7.86628C6.83385 7.86628 5.86719 6.89962 5.86719 5.73295C5.86719 4.56628 6.83385 3.59961 8.00052 3.59961C9.16719 3.59961 10.1338 4.56628 10.1338 5.73295C10.1338 6.89962 9.16719 7.86628 8.00052 7.86628ZM8.00052 4.39962C7.26719 4.39962 6.66719 4.99962 6.66719 5.73295C6.66719 6.46628 7.26719 7.06628 8.00052 7.06628C8.73385 7.06628 9.33385 6.46628 9.33385 5.73295C9.33385 4.99962 8.73385 4.39962 8.00052 4.39962Z" fill="white"/>
</svg>
