<svg width="17" height="17" viewBox="0 0 17 17" fill="none" xmlns="http://www.w3.org/2000/svg">
<path fill-rule="evenodd" clip-rule="evenodd" d="M4.24967 0.53125C3.63912 0.53125 3.05358 0.77379 2.62186 1.20551C2.19013 1.63724 1.94759 2.22278 1.94759 2.83333C1.94759 3.44388 2.19013 4.02943 2.62186 4.46115C3.05358 4.89288 3.63912 5.13542 4.24967 5.13542C4.86022 5.13542 5.44577 4.89288 5.87749 4.46115C6.30922 4.02943 6.55176 3.44388 6.55176 2.83333C6.55176 2.22278 6.30922 1.63724 5.87749 1.20551C5.44577 0.77379 4.86022 0.53125 4.24967 0.53125ZM12.0413 0.885417C10.7274 0.885417 9.73926 2.03292 9.73926 3.34829V4.95833C9.73926 5.25158 9.97726 5.48958 10.2705 5.48958H13.8122C13.9531 5.48958 14.0882 5.43361 14.1878 5.33398C14.2875 5.23435 14.3434 5.09923 14.3434 4.95833V3.34829C14.3434 2.03292 13.3553 0.885417 12.0413 0.885417ZM2.47884 5.84375C2.15008 5.84375 1.83479 5.97435 1.60232 6.20682C1.36986 6.43928 1.23926 6.75458 1.23926 7.08333V10.5301C1.23926 11.0712 1.59059 11.5501 2.10697 11.713L2.46751 11.8263C2.5034 11.8376 2.53476 11.86 2.55705 11.8904C2.57934 11.9207 2.59139 11.9573 2.59147 11.9949V15.9375C2.59147 16.2307 2.82947 16.4688 3.12272 16.4688H5.37663C5.51753 16.4688 5.65265 16.4128 5.75228 16.3132C5.85191 16.2135 5.90788 16.0784 5.90788 15.9375V11.9949C5.90788 11.917 5.95747 11.849 6.03184 11.8256L6.39238 11.7123C6.64397 11.6332 6.86376 11.4759 7.01981 11.2633C7.17586 11.0507 7.26003 10.7938 7.26009 10.5301V7.08333C7.26009 6.75458 7.12949 6.43928 6.89703 6.20682C6.66456 5.97435 6.34927 5.84375 6.02051 5.84375H2.47884ZM10.325 5.84375C10.2063 5.84376 10.0911 5.88353 9.9976 5.95671C9.90413 6.02989 9.83787 6.13226 9.80938 6.2475L8.33817 12.1975C8.31883 12.2758 8.31754 12.3574 8.33442 12.4362C8.35129 12.515 8.38589 12.589 8.43557 12.6525C8.48526 12.7159 8.54874 12.7673 8.62121 12.8026C8.69368 12.8379 8.77323 12.8562 8.85384 12.8562H9.91847L10.7933 16.0763C10.8238 16.189 10.8905 16.2885 10.9832 16.3594C11.0759 16.4303 11.1894 16.4688 11.3061 16.4688H12.7773C12.8925 16.4686 13.0046 16.431 13.0966 16.3617C13.1886 16.2923 13.2555 16.1949 13.2873 16.0841L14.2124 12.8562H15.2288C15.3091 12.8563 15.3884 12.8382 15.4606 12.8032C15.5329 12.7682 15.5963 12.7173 15.646 12.6543C15.6958 12.5913 15.7306 12.5179 15.7479 12.4395C15.7652 12.3611 15.7645 12.2798 15.7459 12.2017L14.3293 6.25175C14.3015 6.13549 14.2354 6.03198 14.1416 5.95794C14.0477 5.88391 13.9317 5.84368 13.8122 5.84375H10.325Z" fill="#FF3D54"/>
</svg>
