<svg width="17" height="17" viewBox="0 0 17 17" fill="none" xmlns="http://www.w3.org/2000/svg">
<path fill-rule="evenodd" clip-rule="evenodd" d="M8.11003 0.53125C7.49948 0.53125 6.91393 0.77379 6.48221 1.20551C6.05048 1.63724 5.80794 2.22278 5.80794 2.83333C5.80794 3.44388 6.05048 4.02943 6.48221 4.46115C6.91393 4.89288 7.49948 5.13542 8.11003 5.13542C8.72058 5.13542 9.30612 4.89288 9.73784 4.46115C10.1696 4.02943 10.4121 3.44388 10.4121 2.83333C10.4121 2.22278 10.1696 1.63724 9.73784 1.20551C9.30612 0.77379 8.72058 0.53125 8.11003 0.53125ZM6.33919 5.84375C6.01043 5.84375 5.69514 5.97435 5.46267 6.20682C5.23021 6.43928 5.09961 6.75458 5.09961 7.08333V10.5301C5.09961 11.0712 5.45094 11.5501 5.96732 11.713L6.32786 11.8263C6.36375 11.8376 6.39511 11.86 6.4174 11.8904C6.43969 11.9207 6.45174 11.9573 6.45182 11.9949V15.9375C6.45182 16.2308 6.68982 16.4688 6.98307 16.4688H9.23698C9.37788 16.4688 9.51301 16.4128 9.61263 16.3132C9.71226 16.2135 9.76823 16.0784 9.76823 15.9375V11.9949C9.76823 11.917 9.81782 11.849 9.89219 11.8256L10.2527 11.7123C10.5043 11.6332 10.7241 11.4759 10.8802 11.2633C11.0362 11.0507 11.1204 10.7938 11.1204 10.5301V7.08333C11.1204 6.75458 10.9898 6.43928 10.7574 6.20682C10.5249 5.97435 10.2096 5.84375 9.88086 5.84375H6.33919Z" fill="#FF3D54"/>
</svg>
