<svg width="20" height="20" viewBox="0 0 20 20" fill="none" xmlns="http://www.w3.org/2000/svg">
<g clip-path="url(#clip0_1_3037)">
<path d="M13.174 15.1519C13.1367 15.2454 13.0798 15.3297 13.0072 15.3993C12.9345 15.4689 12.8479 15.5222 12.7529 15.5556C12.658 15.5889 12.5571 15.6016 12.4569 15.5926C12.3567 15.5837 12.2595 15.5535 12.172 15.5039L9.45698 13.3939L7.71498 15.0019C7.67455 15.0318 7.62726 15.051 7.57746 15.0578C7.52767 15.0646 7.47695 15.0588 7.42998 15.0409L7.76398 12.0519L7.77398 12.0609L7.78098 12.0019C7.78098 12.0019 12.666 7.55393 12.865 7.36493C13.067 7.17593 13 7.13493 13 7.13493C13.012 6.90493 12.639 7.13493 12.639 7.13493L6.16598 11.2989L3.47098 10.3809C3.47098 10.3809 3.05698 10.2329 3.01798 9.90593C2.97698 9.58193 3.48398 9.40593 3.48398 9.40593L14.201 5.14793C14.201 5.14793 15.082 4.75593 15.082 5.40593L13.174 15.1519Z" fill="white"/>
<path d="M9.99414 0C4.47114 0 -0.00585938 4.477 -0.00585938 10C-0.00585938 15.523 4.47114 20 9.99414 20C15.5171 20 19.9941 15.523 19.9941 10C19.9941 4.477 15.5171 0 9.99414 0ZM13.1741 15.152C13.1368 15.2454 13.0799 15.3298 13.0073 15.3994C12.9347 15.469 12.848 15.5223 12.7531 15.5556C12.6582 15.589 12.5572 15.6016 12.457 15.5927C12.3568 15.5838 12.2597 15.5536 12.1721 15.504L9.45714 13.394L7.71514 15.002C7.67471 15.0319 7.62742 15.0511 7.57762 15.0579C7.52782 15.0647 7.47711 15.0589 7.43014 15.041L7.76414 12.052L7.77414 12.061L7.78114 12.002C7.78114 12.002 12.6661 7.554 12.8651 7.365C13.0671 7.176 13.0001 7.135 13.0001 7.135C13.0121 6.905 12.6391 7.135 12.6391 7.135L6.16614 11.299L3.47114 10.381C3.47114 10.381 3.05714 10.232 3.01814 9.906C2.97714 9.582 3.48414 9.406 3.48414 9.406L14.2011 5.148C14.2011 5.148 15.0821 4.756 15.0821 5.406L13.1741 15.152Z" fill="#FF3D54"/>
</g>
<defs>
<clipPath id="clip0_1_3037">
<rect width="20" height="20" fill="white"/>
</clipPath>
</defs>
</svg>
