<svg width="20" height="20" viewBox="0 0 20 20" fill="none" xmlns="http://www.w3.org/2000/svg">
<g clip-path="url(#clip0_1_3019)">
<path d="M18 2H2C0.9 2 0.00999999 2.9 0.00999999 4L0 16C0 17.1 0.9 18 2 18H18C19.1 18 20 17.1 20 16V4C20 2.9 19.1 2 18 2ZM17.6 6.25L10.53 10.67C10.21 10.87 9.79 10.87 9.47 10.67L2.4 6.25C2.15 6.09 2 5.82 2 5.53C2 4.86 2.73 4.46 3.3 4.81L10 9L16.7 4.81C17.27 4.46 18 4.86 18 5.53C18 5.82 17.85 6.09 17.6 6.25Z" fill="#FF3D54"/>
</g>
<defs>
<clipPath id="clip0_1_3019">
<rect width="20" height="20" fill="white"/>
</clipPath>
</defs>
</svg>
