<svg width="50" height="50" viewBox="0 0 50 50" fill="none" xmlns="http://www.w3.org/2000/svg">
<path d="M40.049 43.2449H1.04167C0.765399 43.2449 0.500448 43.1351 0.305097 42.9398C0.109747 42.7444 0 42.4795 0 42.2032V19.8761C0 19.5999 0.109747 19.3349 0.305097 19.1396C0.500448 18.9442 0.765399 18.8345 1.04167 18.8345H40.049C40.3252 18.8345 40.5902 18.9442 40.7855 19.1396C40.9809 19.3349 41.0906 19.5999 41.0906 19.8761V42.2032C41.0906 42.4795 40.9809 42.7444 40.7855 42.9398C40.5902 43.1351 40.3252 43.2449 40.049 43.2449ZM2.08333 41.1616H39.0073V20.9178H2.08333V41.1616Z" fill="#FF3D54"/>
<path d="M33.3334 40.0886H7.76362C7.48736 40.0886 7.2224 39.9789 7.02705 39.7835C6.8317 39.5882 6.72196 39.3232 6.72196 39.047C6.72113 38.4926 6.50046 37.9611 6.10834 37.5692C5.71623 37.1773 5.18468 36.9569 4.63029 36.9563C4.35402 36.9563 4.08907 36.8466 3.89372 36.6513C3.69837 36.4559 3.58862 36.1909 3.58862 35.9147V26.1657C3.58862 25.8895 3.69837 25.6245 3.89372 25.4292C4.08907 25.2338 4.35402 25.1241 4.63029 25.1241C5.18478 25.1232 5.71632 24.9026 6.10841 24.5105C6.50049 24.1184 6.72113 23.5869 6.72196 23.0324C6.72196 22.7561 6.8317 22.4912 7.02705 22.2958C7.2224 22.1005 7.48736 21.9907 7.76362 21.9907H33.3334C33.6097 21.9907 33.8746 22.1005 34.07 22.2958C34.2653 22.4912 34.3751 22.7561 34.3751 23.0324C34.3756 23.5855 34.595 24.116 34.9854 24.5079C35.3757 24.8998 35.9053 25.1213 36.4584 25.1241C36.7347 25.1241 36.9996 25.2338 37.195 25.4292C37.3903 25.6245 37.5001 25.8895 37.5001 26.1657V35.9147C37.5001 36.1909 37.3903 36.4559 37.195 36.6513C36.9996 36.8466 36.7347 36.9563 36.4584 36.9563C35.9041 36.9569 35.3727 37.1773 34.9807 37.5693C34.5888 37.9612 34.3683 38.4927 34.3678 39.047C34.3678 39.322 34.2591 39.5858 34.0653 39.781C33.8715 39.9761 33.6084 40.0867 33.3334 40.0886ZM8.67821 38.0053H32.4282C32.6145 37.2841 32.9895 36.6255 33.5148 36.0973C34.0401 35.5691 34.6966 35.1904 35.4167 35.0001V27.0751C34.6947 26.8873 34.0358 26.5102 33.5082 25.9826C32.9806 25.455 32.6035 24.7961 32.4157 24.0741H8.673C8.48542 24.7962 8.10833 25.4552 7.58072 25.9828C7.05311 26.5104 6.39414 26.8875 5.67196 27.0751V35.0001C6.39455 35.1882 7.05376 35.566 7.58138 36.0944C8.109 36.6227 8.48587 37.2824 8.673 38.0053H8.67821Z" fill="#FF3D54"/>
<path d="M20.5459 36.7812C19.4102 36.7814 18.2999 36.4448 17.3555 35.8139C16.4111 35.183 15.6751 34.2863 15.2404 33.237C14.8057 32.1877 14.692 31.0331 14.9136 29.9193C15.1352 28.8054 15.6821 27.7822 16.4853 26.9792C17.2884 26.1762 18.3117 25.6294 19.4256 25.408C20.5396 25.1866 21.6942 25.3005 22.7433 25.7354C23.7925 26.1703 24.6892 26.9065 25.3199 27.851C25.9506 28.7955 26.287 29.9059 26.2866 31.0416C26.2841 32.5633 25.6784 34.0219 24.6024 35.0977C23.5263 36.1736 22.0676 36.779 20.5459 36.7812ZM20.5459 27.3822C19.8224 27.382 19.115 27.5964 18.5133 27.9982C17.9116 28.4 17.4425 28.9712 17.1654 29.6396C16.8884 30.308 16.8157 31.0436 16.9566 31.7532C17.0976 32.4629 17.4458 33.1149 17.9573 33.6267C18.4688 34.1384 19.1206 34.487 19.8302 34.6284C20.5398 34.7698 21.2754 34.6975 21.9439 34.4208C22.6125 34.1441 23.184 33.6754 23.5861 33.0739C23.9883 32.4724 24.203 31.7652 24.2032 31.0416C24.2027 30.0716 23.8172 29.1415 23.1315 28.4554C22.4458 27.7693 21.5159 27.3833 20.5459 27.3822Z" fill="#FF3D54"/>
<path d="M42.5197 37.2791C42.2524 37.2792 41.9954 37.1765 41.8017 36.9923C41.608 36.8081 41.4926 36.5565 41.4792 36.2896C41.4658 36.0227 41.5555 35.7608 41.7298 35.5582C41.9041 35.3556 42.1496 35.2277 42.4155 35.201L43.6176 35.075L41.503 14.9427L7.96864 18.4635C7.69376 18.4924 7.41866 18.4109 7.20387 18.2369C6.98909 18.0629 6.8522 17.8108 6.82333 17.5359C6.79446 17.261 6.87597 16.9859 7.04993 16.7711C7.22389 16.5563 7.47605 16.4195 7.75094 16.3906L42.3176 12.7614C42.4537 12.747 42.5914 12.7595 42.7226 12.7983C42.8539 12.8371 42.9762 12.9014 43.0827 12.9875C43.1891 13.0736 43.2775 13.1798 43.3428 13.3001C43.4082 13.4204 43.4491 13.5524 43.4634 13.6885L45.7957 35.8937C45.8102 36.0298 45.7976 36.1675 45.7588 36.2987C45.7201 36.43 45.6558 36.5524 45.5697 36.6588C45.4836 36.7652 45.3773 36.8536 45.257 36.9189C45.1368 36.9843 45.0048 37.0253 44.8686 37.0395L42.6301 37.275C42.5926 37.2771 42.5561 37.2791 42.5197 37.2791Z" fill="#FF3D54"/>
<path d="M47.2572 31.0916C46.9981 31.0914 46.7484 30.9946 46.5569 30.8202C46.3653 30.6458 46.2456 30.4062 46.2211 30.1483C46.1967 29.8904 46.2692 29.6326 46.4245 29.4253C46.5799 29.218 46.807 29.076 47.0614 29.027L47.7395 28.8968L43.9249 9.01558L11.2781 15.2781C11.1435 15.3039 11.0052 15.3029 10.8711 15.2752C10.7369 15.2476 10.6095 15.1938 10.4961 15.1169C10.2672 14.9616 10.1093 14.7217 10.0572 14.45C10.0314 14.3154 10.0324 14.1771 10.0601 14.043C10.0877 13.9088 10.1415 13.7814 10.2184 13.668C10.2953 13.5547 10.3938 13.4576 10.5082 13.3822C10.6227 13.3069 10.7508 13.2549 10.8853 13.2291L44.5562 6.77079C44.8273 6.71887 45.108 6.77671 45.3365 6.9316C45.565 7.08648 45.7227 7.32575 45.7749 7.59683L49.9812 29.525C50.0331 29.7962 49.9751 30.077 49.82 30.3056C49.6649 30.5341 49.4254 30.6917 49.1541 30.7437L47.4541 31.0697C47.3893 31.0831 47.3234 31.0905 47.2572 31.0916Z" fill="#FF3D54"/>
</svg>
