<svg width="17" height="17" viewBox="0 0 17 17" fill="none" xmlns="http://www.w3.org/2000/svg">
<path d="M13.8125 5.84368C13.8116 4.94502 13.5825 4.06131 13.1468 3.27537C12.711 2.48942 12.0829 1.82697 11.3212 1.3501C11.0474 1.55127 10.7446 1.70955 10.4231 1.81946C10.7433 3.13662 10.9004 4.48818 10.8906 5.84368C10.8906 7.68871 10.6144 9.59696 10.0871 10.8921C9.87013 10.9668 9.64824 11.0264 9.42303 11.0704C9.94976 10.0376 10.3594 8.16949 10.3594 5.84368C10.3746 4.53821 10.2246 3.23605 9.91311 1.96821C9.4496 2.07426 8.97546 2.12685 8.49998 2.12493C8.0245 2.12685 7.55036 2.07426 7.08686 1.96821C6.77534 3.23605 6.6254 4.53821 6.64061 5.84368C6.64061 8.17188 7.05153 10.0384 7.57906 11.0698C7.35346 11.0272 7.13105 10.969 6.9134 10.8959C6.38561 9.60014 6.10936 7.69004 6.10936 5.84368C6.09961 4.48818 6.25662 3.13662 6.57686 1.81946C6.25539 1.70955 5.95255 1.55127 5.67878 1.3501C5.07889 1.72445 4.56008 2.21518 4.15296 2.79333C3.74584 3.37148 3.45868 4.02534 3.30841 4.7163C3.15815 5.40726 3.14783 6.12132 3.27807 6.81633C3.40831 7.51134 3.67646 8.17322 4.0667 8.7629L6.22092 13.2812H6.10936C6.07087 13.2809 6.03279 13.289 5.9978 13.3051C5.95193 13.3267 5.91312 13.3609 5.88586 13.4037C5.8586 13.4465 5.84399 13.4961 5.84373 13.5468V14.0781C5.84373 14.1485 5.87172 14.2161 5.92153 14.2659C5.97135 14.3157 6.03891 14.3437 6.10936 14.3437H6.37498V16.2031C6.37498 16.2735 6.40297 16.3411 6.45278 16.3909C6.5026 16.4407 6.57016 16.4687 6.64061 16.4687H10.3594C10.4298 16.4687 10.4974 16.4407 10.5472 16.3909C10.597 16.3411 10.625 16.2735 10.625 16.2031V14.3437H10.8906C10.9611 14.3437 11.0286 14.3157 11.0784 14.2659C11.1282 14.2161 11.1562 14.1485 11.1562 14.0781V13.5468C11.156 13.4961 11.1414 13.4465 11.1141 13.4037C11.0868 13.3609 11.048 13.3267 11.0022 13.3051C10.9672 13.289 10.9291 13.2809 10.8906 13.2812H10.779L12.9333 8.7629C13.5064 7.89714 13.8121 6.88193 13.8125 5.84368ZM6.80795 13.2812L5.67719 10.9083C6.45384 11.3698 7.33196 11.6334 8.23436 11.676V13.2812H6.80795ZM10.192 13.2812H8.76561V11.6757C9.67001 11.6327 10.5497 11.3665 11.3262 10.9009L10.192 13.2812Z" fill="#FF3D54"/>
<path d="M7.23526 1.45562C7.65006 1.54981 8.07428 1.59615 8.49963 1.59375C8.92498 1.59615 9.34921 1.54981 9.76401 1.45562C9.93676 1.41827 10.1064 1.36765 10.2714 1.30422C10.4533 1.2396 10.6287 1.15786 10.7952 1.06011C10.08 0.712094 9.29501 0.53125 8.49963 0.53125C7.70426 0.53125 6.9193 0.712094 6.2041 1.06011C6.37059 1.15786 6.54598 1.2396 6.72791 1.30422C6.89289 1.36765 7.0625 1.41827 7.23526 1.45562Z" fill="#FF3D54"/>
</svg>
