<svg width="38" height="50" viewBox="0 0 38 50" fill="none" xmlns="http://www.w3.org/2000/svg">
<path d="M25.25 50H12.75C11.9212 50 11.1263 49.6708 10.5403 49.0847C9.95424 48.4987 9.625 47.7038 9.625 46.875V40.625C9.625 39.7962 9.95424 39.0013 10.5403 38.4153C11.1263 37.8292 11.9212 37.5 12.75 37.5H25.25C26.0788 37.5 26.8737 37.8292 27.4597 38.4153C28.0458 39.0013 28.375 39.7962 28.375 40.625V46.875C28.375 47.7038 28.0458 48.4987 27.4597 49.0847C26.8737 49.6708 26.0788 50 25.25 50ZM12.75 39.5833C12.4737 39.5833 12.2088 39.6931 12.0134 39.8884C11.8181 40.0838 11.7083 40.3487 11.7083 40.625V46.875C11.7083 47.1513 11.8181 47.4162 12.0134 47.6116C12.2088 47.8069 12.4737 47.9167 12.75 47.9167H25.25C25.5263 47.9167 25.7912 47.8069 25.9866 47.6116C26.1819 47.4162 26.2917 47.1513 26.2917 46.875V40.625C26.2917 40.3487 26.1819 40.0838 25.9866 39.8884C25.7912 39.6931 25.5263 39.5833 25.25 39.5833H12.75Z" fill="#FF3D54"/>
<path d="M2.1237 21.25L0.457031 22.5L12.9571 39.1666L14.6237 37.9166L2.1237 21.25Z" fill="#FF3D54"/>
<path d="M35.8492 21.2846L24.3945 37.9531L26.1115 39.133L37.5662 22.4645L35.8492 21.2846Z" fill="#FF3D54"/>
<path d="M36.7083 22.9167C36.4321 22.9167 36.1671 22.8069 35.9718 22.6116C35.7764 22.4162 35.6667 22.1513 35.6667 21.875C35.6667 21.0462 35.3374 20.2513 34.7514 19.6653C34.1653 19.0792 33.3705 18.75 32.5417 18.75C31.7129 18.75 30.918 19.0792 30.332 19.6653C29.7459 20.2513 29.4167 21.0462 29.4167 21.875C29.4167 22.1513 29.3069 22.4162 29.1116 22.6116C28.9162 22.8069 28.6513 22.9167 28.375 22.9167C28.0987 22.9167 27.8338 22.8069 27.6384 22.6116C27.4431 22.4162 27.3333 22.1513 27.3333 21.875C27.2581 20.9796 26.8334 20.1498 26.1511 19.565C25.4689 18.9802 24.5839 18.6874 23.6875 18.75C22.7911 18.6874 21.9061 18.9802 21.2239 19.565C20.5416 20.1498 20.1169 20.9796 20.0417 21.875C20.0417 22.1513 19.9319 22.4162 19.7366 22.6116C19.5412 22.8069 19.2763 22.9167 19 22.9167C18.7237 22.9167 18.4588 22.8069 18.2634 22.6116C18.0681 22.4162 17.9583 22.1513 17.9583 21.875C17.8831 20.9796 17.4584 20.1498 16.7761 19.565C16.0939 18.9802 15.2089 18.6874 14.3125 18.75C13.4161 18.6874 12.5311 18.9802 11.8489 19.565C11.1666 20.1498 10.7419 20.9796 10.6667 21.875C10.6667 22.1513 10.5569 22.4162 10.3616 22.6116C10.1662 22.8069 9.90127 22.9167 9.625 22.9167C9.34873 22.9167 9.08378 22.8069 8.88843 22.6116C8.69308 22.4162 8.58333 22.1513 8.58333 21.875C8.58333 21.0462 8.25409 20.2513 7.66804 19.6653C7.08199 19.0792 6.28713 18.75 5.45833 18.75C4.62953 18.75 3.83468 19.0792 3.24862 19.6653C2.66257 20.2513 2.33333 21.0462 2.33333 21.875C2.33333 22.1513 2.22359 22.4162 2.02824 22.6116C1.83289 22.8069 1.56793 22.9167 1.29167 22.9167C1.0154 22.9167 0.750448 22.8069 0.555097 22.6116C0.359747 22.4162 0.25 22.1513 0.25 21.875C0.25 9.8125 8.66146 0 19 0C29.3385 0 37.75 9.8125 37.75 21.875C37.75 22.1513 37.6403 22.4162 37.4449 22.6116C37.2496 22.8069 36.9846 22.9167 36.7083 22.9167ZM14.3125 16.6667C15.2109 16.6557 16.1 16.8496 16.9122 17.2337C17.7244 17.6178 18.4384 18.182 19 18.8833C19.5648 18.1957 20.2739 17.6407 21.077 17.2576C21.8802 16.8746 22.7578 16.6729 23.6476 16.6668C24.5374 16.6608 25.4177 16.8505 26.226 17.2226C27.0343 17.5946 27.7509 18.1399 28.325 18.8198C29.0915 17.7605 30.2287 17.0286 31.5104 16.7697C32.792 16.5109 34.1241 16.7441 35.2417 17.4229C33.5354 8.64583 26.901 2.08333 19 2.08333C11.099 2.08333 4.46458 8.64583 2.75833 17.4229C3.87585 16.7441 5.20798 16.5109 6.48964 16.7697C7.77129 17.0286 8.90852 17.7605 9.675 18.8198C10.2379 18.1371 10.9467 17.5893 11.7493 17.2166C12.5518 16.844 13.4277 16.6561 14.3125 16.6667Z" fill="#FF3D54"/>
<path d="M20.0404 21.875H17.957V38.5417H20.0404V21.875Z" fill="#FF3D54"/>
<path d="M27.4003 21.5084L21.1523 38.1758L23.1031 38.907L29.3511 22.2396L27.4003 21.5084Z" fill="#FF3D54"/>
<path d="M10.5991 21.5087L8.64844 22.2402L14.8984 38.9069L16.8491 38.1754L10.5991 21.5087Z" fill="#FF3D54"/>
</svg>
