<svg width="24" height="24" viewBox="0 0 24 24" fill="none" xmlns="http://www.w3.org/2000/svg">
<g clip-path="url(#clip0_1_602)">
<path d="M5.90817 1.0002C3.19785 1.0002 1.00313 3.19649 1.00313 5.9069V18.0951C1.00313 20.8055 3.19784 23.0002 5.90817 23.0002H18.0981C20.8084 23.0002 23.0031 20.8055 23.0031 18.0951V5.9069C23.0031 3.19649 20.8084 1.0002 18.0981 1.0002H5.90817ZM5.90817 1.84635H18.0981C20.3543 1.84635 22.157 3.65056 22.157 5.9069V18.0951C22.157 20.3513 20.3543 22.154 18.0981 22.154H5.90817C3.65199 22.154 1.84928 20.3513 1.84928 18.0951V5.9069C1.84928 3.65056 3.65198 1.84635 5.90817 1.84635ZM9.87287 6.92327C9.76325 6.92712 9.65942 6.97338 9.58326 7.05231C9.5071 7.13124 9.46458 7.23667 9.46466 7.34635V16.6524C9.46422 16.7321 9.48631 16.8103 9.5284 16.8781C9.57049 16.9458 9.63086 17.0002 9.70254 17.0351C9.77423 17.07 9.85432 17.0839 9.93358 17.0753C10.0128 17.0666 10.088 17.0358 10.1505 16.9862C12.1245 15.4353 14.0997 13.8834 16.0736 12.3324C16.1238 12.2928 16.1644 12.2423 16.1923 12.1848C16.2202 12.1273 16.2347 12.0641 16.2347 12.0002C16.2347 11.9363 16.2202 11.8731 16.1923 11.8156C16.1644 11.7581 16.1238 11.7076 16.0736 11.668L10.1505 7.01417C10.0717 6.95186 9.97327 6.91964 9.87287 6.92327ZM10.3108 8.21729L15.1266 12.0002C13.5217 13.2613 11.9157 14.5221 10.3108 15.7831V8.21729Z" fill="white"/>
<path fill-rule="evenodd" clip-rule="evenodd" d="M16.0736 12.3324L10.1505 16.9862C10.088 17.0358 10.0128 17.0666 9.93358 17.0753C9.85432 17.0839 9.77423 17.07 9.70254 17.0351C9.63086 17.0002 9.57049 16.9458 9.5284 16.8781C9.48631 16.8103 9.46422 16.7321 9.46466 16.6524V7.34635C9.46458 7.23667 9.5071 7.13124 9.58326 7.05231C9.65942 6.97338 9.76325 6.92712 9.87287 6.92327C9.97327 6.91964 10.0717 6.95186 10.1505 7.01417L16.0736 11.668C16.1238 11.7076 16.1644 11.7581 16.1923 11.8156C16.2202 11.8731 16.2347 11.9363 16.2347 12.0002C16.2347 12.0641 16.2202 12.1273 16.1923 12.1848C16.1644 12.2423 16.1238 12.2928 16.0736 12.3324ZM10.3366 6.77883C10.3366 6.77889 10.3365 6.77876 10.3366 6.77883L16.2589 11.4321C16.3448 11.4998 16.4145 11.5864 16.4622 11.6847C16.5099 11.783 16.5347 11.8909 16.5347 12.0002C16.5347 12.1095 16.5099 12.2174 16.4622 12.3157C16.4145 12.414 16.3452 12.5003 16.2593 12.568L10.3369 17.2213C10.3368 17.2214 10.337 17.2212 10.3369 17.2213C10.2302 17.3058 10.1014 17.3587 9.96613 17.3735C9.83066 17.3883 9.69378 17.3645 9.57125 17.3049C9.44872 17.2452 9.34554 17.1522 9.2736 17.0364C9.20184 16.921 9.16409 16.7876 9.16466 16.6517L9.16466 7.34657C9.16466 7.3465 9.16466 7.34665 9.16466 7.34657C9.16458 7.15919 9.23726 6.97886 9.36737 6.84401C9.49753 6.7091 9.67501 6.63002 9.86236 6.62346C9.86247 6.62345 9.86224 6.62346 9.86236 6.62346M10.3366 6.77883C10.202 6.67253 10.0337 6.61733 9.86236 6.62346L10.3366 6.77883ZM0.703125 5.9069C0.703125 3.03094 3.03204 0.700195 5.90817 0.700195H18.0981C20.9742 0.700195 23.3031 3.03094 23.3031 5.9069V18.0951C23.3031 20.9711 20.9741 23.3002 18.0981 23.3002H5.90817C3.03216 23.3002 0.703125 20.9711 0.703125 18.0951V5.9069ZM18.0981 2.14635H5.90817C3.81782 2.14635 2.14928 3.81609 2.14928 5.9069V18.0951C2.14928 20.1856 3.81768 21.854 5.90817 21.854H18.0981C20.1886 21.854 21.857 20.1856 21.857 18.0951V5.9069C21.857 3.81609 20.1884 2.14635 18.0981 2.14635ZM10.3108 8.21729V15.7831C10.4108 15.7045 10.5108 15.626 10.6108 15.5474C11.2365 15.0558 11.8624 14.5643 12.4883 14.0727C13.2869 13.4455 14.0855 12.8183 14.8838 12.191C14.9648 12.1274 15.0457 12.0638 15.1266 12.0002L10.3108 8.21729ZM10.6108 8.83444V15.1659C11.1752 14.7225 11.7397 14.2792 12.3041 13.8359C13.0831 13.224 13.8621 12.6122 14.641 12.0002L10.6108 8.83444ZM1.00313 5.9069C1.00313 3.19649 3.19785 1.0002 5.90817 1.0002H18.0981C20.8084 1.0002 23.0031 3.19649 23.0031 5.9069V18.0951C23.0031 20.8055 20.8084 23.0002 18.0981 23.0002H5.90817C3.19784 23.0002 1.00313 20.8055 1.00313 18.0951V5.9069ZM18.0981 1.84635H5.90817C3.65198 1.84635 1.84928 3.65056 1.84928 5.9069V18.0951C1.84928 20.3513 3.65199 22.154 5.90817 22.154H18.0981C20.3543 22.154 22.157 20.3513 22.157 18.0951V5.9069C22.157 3.65056 20.3543 1.84635 18.0981 1.84635Z" fill="white"/>
</g>
<defs>
<clipPath id="clip0_1_602">
<rect width="24" height="24" fill="white"/>
</clipPath>
</defs>
</svg>
