<svg width="70" height="70" viewBox="0 0 70 70" fill="none" xmlns="http://www.w3.org/2000/svg">
<g clip-path="url(#clip0_1_5813)">
<g filter="url(#filter0_b_1_5813)">
<rect width="70" height="70" rx="20" fill="black" fill-opacity="0.3"/>
</g>
<path d="M15.607 0C6.98323 0 0 6.98823 0 15.6122V54.393C0 63.0167 6.9832 70 15.607 70H54.393C63.0168 70 70 63.0167 70 54.393V15.6122C70 6.98823 63.0168 0 54.393 0H15.607ZM15.607 2.69231H54.393C61.5718 2.69231 67.3077 8.43298 67.3077 15.6122V54.393C67.3077 61.5717 61.5718 67.3077 54.393 67.3077H15.607C8.42821 67.3077 2.69231 61.5717 2.69231 54.393V15.6122C2.69231 8.43298 8.42817 2.69231 15.607 2.69231ZM28.2219 18.8462C27.8731 18.8584 27.5427 19.0056 27.3004 19.2567C27.0581 19.5079 26.9228 19.8433 26.9231 20.1923V49.8024C26.9217 50.0561 26.992 50.305 27.1259 50.5205C27.2598 50.7359 27.4519 50.9092 27.68 51.0202C27.9081 51.1312 28.1629 51.1755 28.4151 51.148C28.6673 51.1205 28.9065 51.0222 29.1053 50.8646C35.386 45.9297 41.6708 40.9921 47.9515 36.0569C48.1112 35.931 48.2404 35.7704 48.3292 35.5873C48.4179 35.4043 48.4641 35.2035 48.4641 35C48.4641 34.7965 48.4179 34.5957 48.3292 34.4127C48.2404 34.2296 48.1112 34.069 47.9515 33.9431L29.1053 19.1354C28.8545 18.9371 28.5414 18.8346 28.2219 18.8462V18.8462ZM29.6154 22.9635L44.9384 35C39.8319 39.0127 34.722 43.0244 29.6154 47.0365V22.9635Z" fill="white"/>
</g>
<defs>
<filter id="filter0_b_1_5813" x="-6" y="-6" width="82" height="82" filterUnits="userSpaceOnUse" color-interpolation-filters="sRGB">
<feFlood flood-opacity="0" result="BackgroundImageFix"/>
<feGaussianBlur in="BackgroundImageFix" stdDeviation="3"/>
<feComposite in2="SourceAlpha" operator="in" result="effect1_backgroundBlur_1_5813"/>
<feBlend mode="normal" in="SourceGraphic" in2="effect1_backgroundBlur_1_5813" result="shape"/>
</filter>
<clipPath id="clip0_1_5813">
<rect width="70" height="70" fill="white"/>
</clipPath>
</defs>
</svg>
