<svg width="20" height="20" viewBox="0 0 20 20" fill="none" xmlns="http://www.w3.org/2000/svg">
<g clip-path="url(#clip0_1_5662)">
<path fill-rule="evenodd" clip-rule="evenodd" d="M9.9987 0.333496C10.551 0.333496 10.9987 0.781211 10.9987 1.3335V9.00016H18.6654C19.2176 9.00016 19.6654 9.44788 19.6654 10.0002C19.6654 10.5524 19.2176 11.0002 18.6654 11.0002H10.9987V18.6668C10.9987 19.2191 10.551 19.6668 9.9987 19.6668C9.44641 19.6668 8.9987 19.2191 8.9987 18.6668V11.0002H1.33203C0.779747 11.0002 0.332031 10.5524 0.332031 10.0002C0.332031 9.44788 0.779747 9.00016 1.33203 9.00016H8.9987V1.3335C8.9987 0.781211 9.44641 0.333496 9.9987 0.333496Z" fill="#FF3D54"/>
</g>
<defs>
<clipPath id="clip0_1_5662">
<rect width="20" height="20" fill="white"/>
</clipPath>
</defs>
</svg>
