<svg width="60" height="60" viewBox="0 0 60 60" fill="none" xmlns="http://www.w3.org/2000/svg">
<g clip-path="url(#clip0_1_2104)">
<path d="M58.8367 30.0004C58.8367 14.0745 45.9262 1.16406 30.0004 1.16406C14.0745 1.16406 1.16406 14.0745 1.16406 30.0004C1.16406 45.9262 14.0745 58.8367 30.0004 58.8367C45.9262 58.8367 58.8367 45.9262 58.8367 30.0004Z" stroke="#FF3D54" stroke-width="2" stroke-miterlimit="10"/>
<path d="M47.0583 27.684C47.0587 27.0195 46.8695 26.3687 46.5129 25.808C46.1563 25.2473 45.6471 24.8 45.0451 24.5187C44.1509 24.0425 43.4663 23.25 43.125 22.2961L43.0552 22.11C42.659 21.1639 42.6136 20.1075 42.9272 19.1309C43.1179 18.5224 43.1383 17.8733 42.9863 17.254C42.8342 16.6348 42.5154 16.069 42.0645 15.6181C41.6136 15.1672 41.0478 14.8484 40.4285 14.6963C39.8093 14.5442 39.1601 14.5647 38.5517 14.7554C37.5751 15.0689 36.5187 15.0235 35.5726 14.6274L35.3865 14.546C34.431 14.2135 33.6369 13.5316 33.1638 12.6375C32.8832 12.0345 32.4363 11.5242 31.8756 11.1666C31.3148 10.809 30.6636 10.6191 29.9986 10.6191C29.3335 10.6191 28.6823 10.809 28.1215 11.1666C27.5608 11.5242 27.1138 12.0345 26.8333 12.6375C26.3611 13.528 25.5722 14.209 24.6223 14.546L24.4244 14.6274C23.4783 15.0235 22.4219 15.0689 21.4454 14.7554C20.8369 14.5647 20.1878 14.5442 19.5686 14.6963C18.9493 14.8484 18.3835 15.1672 17.9326 15.6181C17.4817 16.069 17.1629 16.6348 17.0108 17.254C16.8587 17.8733 16.8791 18.5224 17.0699 19.1309C17.3871 20.1061 17.3458 21.1625 16.9535 22.11C16.9215 22.1698 16.8943 22.232 16.8721 22.2961C16.5308 23.25 15.8461 24.0425 14.9519 24.5187C14.349 24.7993 13.8387 25.2463 13.4811 25.807C13.1236 26.3678 12.9336 27.019 12.9336 27.684C12.9336 28.3491 13.1236 29.0003 13.4811 29.561C13.8387 30.1218 14.349 30.5687 14.9519 30.8492C15.8454 31.3209 16.5302 32.1096 16.8721 33.0603C16.8942 33.1282 16.9214 33.1943 16.9535 33.2581C17.3203 34.1971 17.345 35.2352 17.0234 36.1906C16.8326 36.7991 16.8122 37.4482 16.9643 38.0675C17.1163 38.6868 17.4351 39.2525 17.886 39.7034C18.3369 40.1543 18.9027 40.4731 19.522 40.6252C20.1413 40.7773 20.7904 40.7569 21.3988 40.5661C22.3732 40.2426 23.4318 40.2839 24.3779 40.6825L24.5757 40.7639C25.527 41.1048 26.316 41.7899 26.7868 42.684C27.0673 43.287 27.5142 43.7973 28.075 44.1549C28.6357 44.5124 29.2869 44.7024 29.952 44.7024C30.617 44.7024 31.2682 44.5124 31.829 44.1549C32.3897 43.7973 32.8367 43.287 33.1172 42.684C33.5899 41.787 34.3836 41.1013 35.3399 40.7639L35.5261 40.6825C36.4722 40.2839 37.5308 40.2426 38.5051 40.5661C39.1136 40.7569 39.7627 40.7773 40.3819 40.6252C41.0012 40.4731 41.5671 40.1543 42.018 39.7034C42.4689 39.2525 42.7876 38.6868 42.9397 38.0675C43.0917 37.4482 43.0713 36.7991 42.8806 36.1906C42.5671 35.2141 42.6125 34.1576 43.0086 33.2116L43.0784 33.0138C43.4203 32.063 44.1051 31.2744 44.9985 30.8027C45.6021 30.5315 46.1162 30.0944 46.4809 29.5422C46.8456 28.9901 47.0458 28.3456 47.0583 27.684V27.684Z" stroke="#FF3D54" stroke-width="2" stroke-miterlimit="10"/>
<path d="M23.8789 27.7425L27.9286 31.7805L36.121 23.5881" stroke="#FF3D54" stroke-width="2" stroke-linecap="round" stroke-linejoin="round"/>
<path d="M18.8537 40.4043L15.5023 46.665C15.4583 46.7491 15.4391 46.844 15.447 46.9386C15.455 47.0332 15.4896 47.1235 15.5469 47.1992C15.6043 47.2748 15.682 47.3326 15.7709 47.3658C15.8599 47.3989 15.9563 47.4061 16.0492 47.3865L20.7738 46.409C20.8762 46.3869 20.9829 46.3974 21.0789 46.4392C21.175 46.4809 21.2555 46.5517 21.3091 46.6417L22.7987 49.1087C22.8422 49.1862 22.9055 49.2507 22.9822 49.2956C23.0589 49.3405 23.1462 49.3642 23.2351 49.3642C23.3239 49.3642 23.4112 49.3405 23.4879 49.2956C23.5646 49.2507 23.628 49.1862 23.6715 49.1087L26.8483 42.7899M40.7428 40.5789L44.0011 46.6766C44.0451 46.7607 44.0643 46.8556 44.0564 46.9502C44.0485 47.0448 44.0139 47.1352 43.9565 47.2108C43.8992 47.2864 43.8215 47.3443 43.7326 47.3774C43.6436 47.4106 43.5471 47.4177 43.4542 47.3981L38.7296 46.4206C38.6273 46.3985 38.5205 46.4091 38.4245 46.4508C38.3285 46.4926 38.248 46.5634 38.1943 46.6533L36.7048 49.1203C36.6613 49.1979 36.5979 49.2624 36.5212 49.3073C36.4445 49.3522 36.3572 49.3759 36.2684 49.3759C36.1795 49.3759 36.0923 49.3522 36.0156 49.3073C35.9389 49.2624 35.8755 49.1979 35.832 49.1203L32.8879 43.3019" stroke="#FF3D54" stroke-width="2" stroke-miterlimit="10"/>
</g>
<defs>
<clipPath id="clip0_1_2104">
<rect width="60" height="60" fill="white"/>
</clipPath>
</defs>
</svg>
