<svg width="17" height="17" viewBox="0 0 17 17" fill="none" xmlns="http://www.w3.org/2000/svg">
<g clip-path="url(#clip0_1_4182)">
<path d="M15.9727 9.52701L9.45602 2.54993C9.06643 2.16035 8.53518 1.91243 8.00393 1.94785L4.03727 2.12493C3.82477 2.12493 3.64768 2.19576 3.43518 2.2666L1.73518 0.389512C1.45185 0.106179 1.02685 0.106179 0.743516 0.354095C0.460182 0.637429 0.460182 1.06243 0.708099 1.34576L2.44352 3.22285C2.37268 3.39993 2.30185 3.57701 2.26643 3.78951L1.80602 7.72076C1.73518 8.28743 1.91227 8.81868 2.30185 9.20826L8.81852 16.2208C9.52685 16.9645 10.6956 17.0353 11.4748 16.327L15.9018 12.1833C16.6456 11.4749 16.681 10.3062 15.9727 9.52701ZM5.45393 5.41868C4.92268 5.91451 4.07268 5.8791 3.57685 5.34785C3.2581 4.99368 3.15185 4.53326 3.2581 4.07284L3.71852 4.60409C3.96643 4.88743 4.42685 4.88743 4.71018 4.63951C4.99352 4.3916 4.99352 3.93118 4.7456 3.64785L4.24977 3.1166C4.67477 3.04576 5.1706 3.15201 5.48935 3.50618C6.0206 4.07284 5.98518 4.92285 5.45393 5.41868ZM9.66852 15.4416L8.74768 14.4499L14.2018 9.38535L15.1227 10.377L9.66852 15.4416Z" fill="#FF3D54"/>
</g>
<defs>
<clipPath id="clip0_1_4182">
<rect width="17" height="17" fill="white"/>
</clipPath>
</defs>
</svg>
