<svg width="30" height="30" viewBox="0 0 30 30" fill="none" xmlns="http://www.w3.org/2000/svg">
<path d="M23.6878 22.9138C23.4809 21 22.3947 19.2414 20.5844 17.8448L17.0154 15L20.5844 12.2069C22.4465 10.7586 23.4809 9 23.6878 7.13793C23.843 5.74138 23.4809 4.34483 22.6534 3.05172C22.8603 3 23.0154 2.7931 23.0154 2.58621V0.517241C23.0154 0.206897 22.8085 0 22.4982 0H7.49818C7.18784 0 6.98094 0.206897 6.98094 0.517241V2.48276C6.98094 2.74138 7.13611 2.89655 7.34301 2.94828C6.51542 4.24138 6.15336 5.63793 6.30853 7.03448C6.51542 8.94828 7.60163 10.7069 9.41198 12.1034L12.9809 14.8966L9.41198 17.6897C7.54991 19.1379 6.51542 20.8966 6.30853 22.7586C6.15336 24.1552 6.51542 25.5517 7.34301 26.8448C7.13611 26.8966 6.98094 27.1034 6.98094 27.3103V29.4828C6.98094 29.7931 7.18784 30 7.49818 30H22.5499C22.8603 30 23.0671 29.7931 23.0671 29.4828V27.5172C23.0671 27.2586 22.912 27.1034 22.7051 27.0517C23.4809 25.7069 23.843 24.3103 23.6878 22.9138ZM8.01542 1.03448H22.0327V1.96552H21.7223H8.32577H8.01542V1.03448ZM21.9809 28.9655H8.01542V28.0345H8.32577H21.6706H21.9809V28.9655ZM21.412 27H8.58439C7.60163 25.7586 7.18784 24.4138 7.34301 23.0172C7.49818 21.4138 8.48094 19.9138 10.0844 18.6207L14.1706 15.4138C14.274 15.3103 14.3775 15.1552 14.3775 15C14.3775 14.8448 14.3258 14.6897 14.1706 14.5862L10.0327 11.3793C8.42922 10.1379 7.49818 8.58621 7.29129 6.98276C7.13611 5.63793 7.60163 4.24138 8.53267 3H21.412C22.3947 4.24138 22.8085 5.58621 22.6534 6.98276C22.4982 8.58621 21.5154 10.0862 19.912 11.3793L15.8258 14.5862C15.7223 14.6897 15.6189 14.8448 15.6189 15C15.6189 15.1552 15.6706 15.3103 15.8258 15.4138L19.912 18.6207C21.5154 19.8621 22.4465 21.4138 22.6534 23.0172C22.8085 24.3621 22.3947 25.7586 21.412 27Z" fill="white"/>
<path d="M21.6205 7.13759C21.9826 5.37897 20.9999 4.24104 20.9999 4.18932C20.8964 4.08587 20.7412 3.98242 20.5861 3.98242H9.5171C9.36193 3.98242 9.20676 4.08587 9.10331 4.18932C8.37917 5.17208 8.17227 6.20656 8.43089 7.34449C9.25848 10.7066 14.5861 13.3962 14.793 13.4997C14.8447 13.5514 14.9481 13.5514 14.9999 13.5514C15.1033 13.5514 15.155 13.5514 15.2585 13.4997C19.0861 11.4824 21.2068 9.36173 21.6205 7.13759ZM15.0516 12.4652C14.0171 11.9479 10.0861 9.67208 9.46538 7.13759C9.3102 6.41346 9.41365 5.74104 9.82745 5.06863H20.3274C20.5343 5.37897 20.793 6.05139 20.6378 7.03415C20.3274 8.27553 19.1895 10.241 15.0516 12.4652Z" fill="white"/>
</svg>
