<svg width="26" height="25" viewBox="0 0 26 25" fill="none" xmlns="http://www.w3.org/2000/svg">
<path d="M9.74731 18.8269C11.952 18.8269 14.0342 18.0454 15.6914 16.6238L23.7468 24.6999C23.8175 24.7713 23.9016 24.8281 23.9944 24.8668C24.0871 24.9056 24.1866 24.9257 24.2871 24.9258C24.3876 24.9259 24.4872 24.9062 24.58 24.8677C24.6729 24.8292 24.7572 24.7726 24.8281 24.7014C24.9716 24.5582 25.0524 24.3638 25.0527 24.1611C25.053 23.9583 24.9728 23.7637 24.8296 23.6201L16.7673 15.5379C19.7856 11.9331 19.6097 6.53504 16.2282 3.14587C14.4969 1.40998 12.1951 0.454102 9.74654 0.454102C7.29795 0.454102 4.99619 1.40998 3.26489 3.14587C-0.307048 6.72698 -0.307048 12.5548 3.26489 16.1359C4.11346 16.9913 5.12343 17.6696 6.23622 18.1315C7.34901 18.5935 8.54245 18.8299 9.74731 18.8269ZM4.34848 4.22563C5.79072 2.77957 7.70784 1.98351 9.74731 1.98351C11.7868 1.98351 13.7039 2.77957 15.1461 4.22563C18.1247 7.21181 18.1247 12.07 15.1461 15.0562C13.7039 16.5022 11.7868 17.2983 9.74731 17.2983C7.70784 17.2983 5.79072 16.5022 4.34848 15.0562C1.37072 12.07 1.37072 7.21181 4.34848 4.22563Z" fill="#222222"/>
</svg>
