<svg width="25" height="26" viewBox="0 0 25 26" fill="none" xmlns="http://www.w3.org/2000/svg">
<path d="M8.12872 20.7384C6.7042 20.7384 5.54936 21.8933 5.54936 23.3178C5.54936 24.7423 6.7042 25.8972 8.12872 25.8972C9.55253 25.8954 10.7063 24.7416 10.7081 23.3178C10.7081 21.8933 9.55324 20.7384 8.12872 20.7384ZM8.12872 24.6075C7.41642 24.6075 6.83904 24.0301 6.83904 23.3178C6.83904 22.6055 7.41642 22.0281 8.12872 22.0281C8.84079 22.0286 9.41793 22.6057 9.4184 23.3178C9.4184 24.0301 8.84102 24.6075 8.12872 24.6075ZM18.4462 20.7384C17.0217 20.7384 15.8668 21.8933 15.8668 23.3178C15.8668 24.7423 17.0217 25.8972 18.4462 25.8972C19.87 25.8954 21.0237 24.7416 21.0255 23.3178C21.0255 21.8933 19.8707 20.7384 18.4462 20.7384ZM18.4462 24.6075C17.7339 24.6075 17.1565 24.0301 17.1565 23.3178C17.1565 22.6055 17.7339 22.0281 18.4462 22.0281C19.1582 22.0286 19.7354 22.6057 19.7359 23.3178C19.7359 24.0301 19.1585 24.6075 18.4462 24.6075ZM21.6685 13.0651L24.2283 3.49397C24.2427 3.43989 24.25 3.38424 24.25 3.32827C24.2501 2.97193 23.9613 2.68296 23.6049 2.68288H4.15632L3.59358 0.582739C3.51801 0.300857 3.26258 0.104775 2.9707 0.104775H1.04168C1.03948 0.104775 1.03767 0.103516 1.03547 0.103516C0.679355 0.103516 0.390625 0.392246 0.390625 0.748357C0.390625 1.10447 0.679355 1.3932 1.03547 1.3932V1.39446L2.47502 1.3932L5.80219 13.8114C5.87776 14.0937 6.13366 14.29 6.42594 14.29H10.7081H19.5558H21.0255C22.094 14.29 22.9601 15.1561 22.9601 16.2245C22.9601 17.293 22.094 18.1591 21.0255 18.1591H2.96999C2.61388 18.1591 2.32515 18.4478 2.32515 18.8039C2.32515 19.16 2.61388 19.4488 2.96999 19.4488H21.0255C22.8063 19.4488 24.2498 18.0053 24.2498 16.2245C24.2498 14.6641 23.1411 13.3632 21.6685 13.0651ZM20.35 13.0003H19.5558H10.7081H6.9209L4.50188 3.97256H22.7649L20.35 13.0003Z" fill="#222222"/>
</svg>
