<svg width="10" height="6" viewBox="0 0 10 6" fill="none" xmlns="http://www.w3.org/2000/svg">
<path d="M0.312726 0.931867C0.316759 1.06718 0.373312 1.19561 0.470403 1.28994L4.63097 5.45152C4.72865 5.54915 4.8611 5.604 4.99921 5.604C5.13732 5.604 5.26978 5.54915 5.36746 5.45152L9.52802 1.28994C9.578 1.24195 9.6179 1.18446 9.64538 1.12086C9.67287 1.05725 9.68739 0.988798 9.68809 0.91951C9.68879 0.850223 9.67566 0.781491 9.64947 0.717341C9.62328 0.653191 9.58455 0.594912 9.53555 0.545916C9.48656 0.496919 9.42828 0.458191 9.36413 0.431999C9.29998 0.405807 9.23125 0.392676 9.16196 0.393377C9.09267 0.394078 9.02422 0.408597 8.96061 0.436082C8.89701 0.463567 8.83952 0.503467 8.79153 0.553444L4.99921 4.34678L1.20689 0.553445C1.13374 0.478182 1.03955 0.426776 0.936671 0.405964C0.833796 0.385152 0.727032 0.395904 0.630373 0.436811C0.533713 0.477719 0.451666 0.546874 0.394985 0.635212C0.338303 0.723551 0.309631 0.826953 0.312726 0.931867Z" fill="#222222"/>
</svg>
