<svg width="17" height="17" viewBox="0 0 17 17" fill="none" xmlns="http://www.w3.org/2000/svg">
<path d="M16.0584 13.94H10.5398V15.3H16.1148C16.2377 15.306 16.359 15.2696 16.4582 15.1969C16.5574 15.1241 16.6286 15.0195 16.6598 14.9005V14.5707C16.6598 14.5707 16.6558 13.94 16.0584 13.94ZM15.2951 13.6714C15.6573 13.6708 16.0046 13.5265 16.2605 13.2701C16.5164 13.0137 16.66 12.6661 16.6598 12.3039C16.6598 11.5467 16.0478 10.9361 15.2951 10.9361C15.1158 10.9364 14.9384 10.972 14.7729 11.0409C14.6074 11.1098 14.4571 11.2107 14.3306 11.3377C14.2041 11.4648 14.1039 11.6155 14.0357 11.7812C13.9675 11.947 13.9326 12.1246 13.933 12.3039C13.933 13.0583 14.5433 13.6714 15.2951 13.6714ZM12.4207 13.6C13.1368 13.6 13.7127 13.0954 13.7127 12.3804C13.7124 11.6667 13.1344 11.2924 12.4238 11.2869L10.5398 11.5256V13.6H12.4207ZM6.29766 4.73717C7.13372 4.73717 7.80998 4.05717 7.80998 3.21839C7.80998 2.37961 7.13372 1.69995 6.29766 1.69995C5.46228 1.69995 4.785 2.37961 4.785 3.21839C4.785 4.05717 5.46228 4.73717 6.29766 4.73717ZM4.75338 9.65221L4.73978 9.63249L4.05434 8.03653L4.05332 11.22H6.10182L6.54926 10.744L5.3358 10.2768C5.04816 10.1687 4.84382 9.92387 4.75338 9.65221ZM5.18756 9.50907C5.25386 9.65799 5.3766 9.77869 5.53096 9.83411L7.86914 10.7008C7.94038 10.7321 8.0171 10.7491 8.09492 10.7507C8.17273 10.7523 8.25009 10.7385 8.32256 10.7102C8.39503 10.6818 8.46119 10.6394 8.51723 10.5854C8.57326 10.5314 8.61808 10.4668 8.6491 10.3955C8.7124 10.2508 8.71589 10.087 8.65882 9.93976C8.60174 9.79254 8.48873 9.67389 8.34446 9.60971L6.18716 8.79507L5.52076 7.19673L5.95528 7.03489L6.52002 8.40441L8.15984 9.01233V7.33885L9.03024 7.85667L9.46408 10.0422C9.48907 10.1161 9.52846 10.1844 9.57999 10.243C9.63151 10.3017 9.69415 10.3495 9.76427 10.3838C9.8344 10.418 9.91062 10.4381 9.98854 10.4427C10.0665 10.4473 10.1445 10.4365 10.2182 10.4108C10.3666 10.358 10.4882 10.2488 10.5566 10.1069C10.6251 9.96503 10.6348 9.80189 10.5837 9.65289L10.0975 7.54795C10.0657 7.43142 9.99899 7.32739 9.90642 7.24977C9.6572 6.97369 8.39682 5.56439 8.30706 5.47021C8.17548 5.33829 7.87458 5.09995 7.3061 5.09995H5.2661C4.1067 5.09995 3.88366 6.28315 4.12064 6.88495L5.18756 9.50907ZM10.1998 11.56H1.00862C0.674064 11.56 0.339844 11.7487 0.339844 12.1638V15.3H10.1998V11.56Z" fill="#FF3D54"/>
</svg>
