<svg width="17" height="17" viewBox="0 0 17 17" fill="none" xmlns="http://www.w3.org/2000/svg">
<path d="M15.1915 0.747658C15.1915 0.747658 12.9951 2.09953 10.834 4.55397L13.3834 4.63357L15.0025 6.40938C15.5349 3.23653 15.1908 0.747658 15.1908 0.747658H15.1915ZM9.09866 6.83597C8.85188 7.2194 8.62072 7.61213 8.40573 8.01337C8.46285 8.56462 8.50093 9.12591 8.50093 9.70303C8.50093 11.6221 7.93041 14.0944 7.15044 16.2139L8.88105 17C10.6844 15.396 12.6394 13.0404 13.5323 11.1757C13.8519 10.509 14.113 9.83565 14.3306 9.16964L12.3096 6.89298L9.09866 6.83597ZM4.42022 0C3.68445 1.2637 1.7002 5.06813 1.7002 9.70303C1.7002 11.79 2.4584 14.7724 3.40837 17H4.4209L4.42022 0ZM5.10022 0V17H6.11343C7.06272 14.7724 7.82161 11.79 7.82161 9.70303C7.82161 5.06746 5.83667 1.2637 5.1009 0H5.10022Z" fill="#FF3D54"/>
</svg>
