<svg width="16" height="16" viewBox="0 0 16 16" fill="none" xmlns="http://www.w3.org/2000/svg">
<path d="M10.2781 8.85391L8.4 7.76875V4C8.4 3.7791 8.2209 3.6 8 3.6C7.7791 3.6 7.6 3.7791 7.6 4V8C7.60005 8.14282 7.67627 8.27476 7.8 8.34609L9.87813 9.54609C9.93887 9.58145 10.0079 9.60005 10.0781 9.6C10.2208 9.5999 10.3526 9.52383 10.424 9.40034C10.5346 9.20918 10.4693 8.9645 10.2781 8.85391ZM8 0C3.58174 0 0 3.58174 0 8C0 12.4183 3.58174 16 8 16C12.4161 15.9948 15.9948 12.4161 16 8C16 3.58174 12.4183 0 8 0ZM8 15.2C4.02354 15.2 0.8 11.9765 0.8 8C0.8 4.02354 4.02354 0.8 8 0.8C11.9747 0.804346 15.1957 4.02534 15.2 8C15.2 11.9765 11.9765 15.2 8 15.2Z" fill="white"/>
</svg>
