<svg width="16" height="16" viewBox="0 0 16 16" fill="none" xmlns="http://www.w3.org/2000/svg">
<path d="M3.66927 10.3332C4.31541 10.1222 4.98965 10.0099 5.66927 9.99984C6.7226 9.99984 7.32927 10.7265 8.66927 10.9998C10.0093 11.2732 11.0026 11.6265 11.0026 12.3332C11.0026 13.0398 9.9226 13.3932 6.33594 12.3332M11.0026 12.6665C11.9801 12.3529 12.9843 12.1298 14.0026 11.9998C14.8359 11.9998 15.6693 12.3332 15.6693 12.9998C14.5293 13.4998 10.5559 15.6665 9.0026 15.6665C7.44927 15.6665 3.33594 13.6665 3.33594 13.6665M13.3359 2.33984C13.3359 3.44441 12.4405 4.33984 11.3359 4.33984C10.2314 4.33984 9.33594 3.44441 9.33594 2.33984C9.33594 1.23527 10.2314 0.339844 11.3359 0.339844C12.4405 0.339844 13.3359 1.23527 13.3359 2.33984ZM11.3359 5.67318C10.1381 5.70613 8.9646 6.01891 7.90927 6.58651C7.63626 6.72723 7.40725 6.94039 7.24732 7.20262C7.0874 7.46484 7.00273 7.76603 7.0026 8.07318V8.37984C7.00172 8.46182 7.01711 8.54316 7.04787 8.61916C7.07863 8.69515 7.12416 8.76429 7.18182 8.82257C7.23948 8.88085 7.30813 8.92711 7.38379 8.95869C7.45945 8.99026 7.54062 9.00652 7.6226 9.00651H15.0493C15.1313 9.00652 15.2124 8.99026 15.2881 8.95869C15.3637 8.92711 15.4324 8.88085 15.4901 8.82257C15.5477 8.76429 15.5932 8.69515 15.624 8.61916C15.6548 8.54316 15.6702 8.46182 15.6693 8.37984V8.07318C15.6691 7.76603 15.5845 7.46484 15.4246 7.20262C15.2646 6.94039 15.0356 6.72723 14.7626 6.58651C13.7073 6.01891 12.5338 5.70613 11.3359 5.67318ZM0.335938 8.99984L3.04927 9.53984C3.21564 9.57382 3.36277 9.67001 3.46064 9.80876C3.55851 9.94752 3.59975 10.1184 3.57594 10.2865L3.0826 13.7532C3.05996 13.9134 2.97985 14.0598 2.85719 14.1653C2.73453 14.2708 2.57771 14.3281 2.41594 14.3265H0.335938V8.99984Z" stroke="white" stroke-width="0.5" stroke-linecap="round" stroke-linejoin="round"/>
</svg>
