<svg width="17" height="17" viewBox="0 0 17 17" fill="none" xmlns="http://www.w3.org/2000/svg">
<path fill-rule="evenodd" clip-rule="evenodd" d="M8.8183 0.850098C7.50434 0.850098 6.51622 1.9976 6.51622 3.31297V4.92301C6.51622 5.21626 6.75422 5.45426 7.04747 5.45426H10.5891C10.73 5.45426 10.8652 5.39829 10.9648 5.29867C11.0644 5.19904 11.1204 5.06391 11.1204 4.92301V3.31297C11.1204 1.9976 10.1323 0.850098 8.8183 0.850098ZM7.10201 5.80843C6.98331 5.80844 6.86803 5.84821 6.77456 5.92139C6.6811 5.99457 6.61483 6.09695 6.58634 6.21218L5.11514 12.1622C5.09579 12.2404 5.09451 12.3221 5.11138 12.4009C5.12825 12.4797 5.16285 12.5537 5.21254 12.6171C5.26222 12.6806 5.32571 12.732 5.39817 12.7673C5.47064 12.8026 5.55019 12.8209 5.6308 12.8209H6.69543L7.57022 16.041C7.60072 16.1537 7.66748 16.2532 7.76017 16.3241C7.85286 16.395 7.96634 16.4334 8.08305 16.4334H9.55426C9.66948 16.4333 9.78153 16.3957 9.87353 16.3263C9.96552 16.257 10.0325 16.1596 10.0643 16.0488L10.9893 12.8209H12.0058C12.0861 12.821 12.1653 12.8028 12.2376 12.7679C12.3098 12.7329 12.3732 12.682 12.423 12.619C12.4727 12.556 12.5076 12.4826 12.5249 12.4042C12.5422 12.3258 12.5415 12.2445 12.5229 12.1664L11.1062 6.21643C11.0785 6.10017 11.0124 5.99666 10.9185 5.92262C10.8247 5.84859 10.7087 5.80836 10.5891 5.80843H7.10201Z" fill="#FF3D54"/>
</svg>
