<svg width="17" height="17" viewBox="0 0 17 17" fill="none" xmlns="http://www.w3.org/2000/svg">
<g clip-path="url(#clip0_1_4172)">
<path d="M16.433 11.7229C16.3268 11.5104 16.0789 11.4041 15.8664 11.4041H9.84553V10.0583H14.6268C14.8747 10.0583 15.0872 9.91663 15.2289 9.70413C15.3351 9.49163 15.3351 9.24371 15.1934 9.03121L9.73928 0.495793C9.5622 0.247877 9.27887 0.141627 8.99553 0.21246C8.7122 0.283294 8.4997 0.566627 8.4997 0.84996V9.38538V11.4041H1.13303C0.885117 11.4041 0.672617 11.5104 0.566367 11.7229C0.460117 11.9354 0.4247 12.1479 0.53095 12.3604L1.41637 14.202C2.16012 15.7604 4.53303 16.8229 7.26012 16.8229H9.73928C12.4664 16.8229 14.8039 15.7604 15.583 14.202L16.4684 12.3604C16.5747 12.1479 16.5747 11.9 16.433 11.7229Z" fill="#FF3D54"/>
<path d="M2.08993 10.0583H6.51701C6.87118 10.0583 7.18993 9.77493 7.18993 9.38535V2.4791C7.18993 2.19577 6.97743 1.91243 6.6941 1.8416C6.37535 1.73535 6.09201 1.87702 5.91493 2.12493L1.52326 9.03118C1.3816 9.24368 1.3816 9.4916 1.48785 9.7041C1.5941 9.9166 1.84201 10.0583 2.08993 10.0583Z" fill="#FF3D54"/>
</g>
<defs>
<clipPath id="clip0_1_4172">
<rect width="17" height="17" fill="white"/>
</clipPath>
</defs>
</svg>
