<svg width="20" height="16" viewBox="0 0 20 16" fill="none" xmlns="http://www.w3.org/2000/svg">
<path d="M19.5577 2.94019L19.5827 3.10353C19.3411 2.24603 18.6886 1.58436 17.8594 1.34353L17.8419 1.33936C16.2827 0.916027 10.0086 0.916027 10.0086 0.916027C10.0086 0.916027 3.75025 0.907694 2.17525 1.33936C1.33025 1.58436 0.676912 2.24603 0.439412 3.08603L0.435245 3.10353C-0.147255 6.14603 -0.151422 9.80186 0.461078 13.0594L0.435245 12.8944C0.676912 13.7519 1.32941 14.4135 2.15858 14.6544L2.17608 14.6585C3.73358 15.0827 10.0094 15.0827 10.0094 15.0827C10.0094 15.0827 16.2669 15.0827 17.8427 14.6585C18.6886 14.4135 19.3419 13.7519 19.5794 12.9119L19.5836 12.8944C19.8486 11.4794 20.0002 9.85103 20.0002 8.18769C20.0002 8.12686 20.0002 8.06519 19.9994 8.00353C20.0002 7.94686 20.0002 7.87936 20.0002 7.81186C20.0002 6.14769 19.8486 4.51936 19.5577 2.94019ZM8.00691 11.0419V4.96436L13.2286 8.00769L8.00691 11.0419Z" fill="white"/>
</svg>
